<svg xmlns="http://www.w3.org/2000/svg" xmlns:xlink="http://www.w3.org/1999/xlink" width="1080" zoomAndPan="magnify" viewBox="0 0 810 809.999993" height="1080" preserveAspectRatio="xMidYMid meet" version="1.0"><path fill="#0a290e" d="M 420.027344 33.277344 L 416.574219 37.378906 L 414.4375 34.863281 C 412.480469 32.632812 409.132812 30.394531 407.546875 30.394531 C 407.265625 30.394531 407.171875 32.726562 407.359375 35.515625 C 407.640625 39.238281 407.453125 41.007812 406.519531 41.753906 C 405.027344 42.96875 403.449219 41.476562 403.449219 38.875 C 403.449219 37.847656 403.171875 37.847656 402.050781 38.78125 C 401.304688 39.421875 400.652344 40.449219 400.652344 41.101562 C 400.652344 41.847656 399.160156 42.875 397.304688 43.433594 L 393.945312 44.554688 L 399.347656 46.78125 C 406.332031 49.582031 411.269531 53.675781 411.640625 56.839844 C 411.828125 58.519531 411.546875 59.265625 410.523438 59.265625 C 409.785156 59.265625 409.039062 58.796875 408.851562 58.238281 C 408.664062 57.679688 406.894531 57.117188 404.933594 56.933594 C 402.984375 56.746094 400.1875 56.195312 398.878906 55.636719 C 397.582031 55.167969 394.226562 54.515625 391.625 54.234375 C 387.144531 53.769531 386.679688 53.957031 386.679688 55.636719 C 386.679688 56.652344 388.824219 59.636719 391.4375 62.25 L 396.277344 67.089844 L 394.226562 68.667969 C 391.996094 70.4375 383.332031 71.929688 379.886719 71 C 378.675781 70.71875 376.53125 69.597656 375.222656 68.480469 C 373.089844 66.902344 372.714844 65.878906 372.714844 61.96875 C 372.714844 56.289062 370.757812 52.277344 367.128906 50.421875 C 365.636719 49.675781 364.234375 49.023438 363.863281 49.023438 C 362.847656 49.023438 363.488281 57.585938 364.796875 60.664062 C 365.449219 62.425781 367.5 64.757812 369.171875 65.785156 C 372.808594 67.929688 375.132812 72.210938 375.785156 77.796875 C 376.25 81.335938 375.972656 82.453125 374.019531 84.691406 C 372.15625 86.828125 371.96875 87.667969 372.902344 88.226562 C 374.859375 89.535156 383.796875 89.160156 386.679688 87.667969 C 389.292969 86.363281 389.292969 86.363281 390.785156 90 C 393.199219 96.054688 392.917969 96.519531 387.050781 96.519531 C 381.929688 96.519531 381.839844 96.613281 382.304688 98.9375 C 382.585938 100.429688 382.304688 101.546875 381.464844 101.828125 C 379.140625 102.667969 374.019531 100.242188 372.433594 97.445312 C 371.503906 95.960938 370.011719 94.28125 369.085938 93.722656 C 367.96875 93.160156 367.128906 91.304688 366.660156 88.507812 C 366.195312 84.878906 366.382812 83.667969 367.96875 81.519531 C 369.085938 80.027344 369.917969 78.546875 369.917969 78.078125 C 369.917969 77.707031 368.246094 75.652344 366.195312 73.703125 C 363.03125 70.625 362.472656 69.507812 362.472656 66.15625 C 362.472656 62.800781 362.007812 61.96875 359.300781 59.824219 C 356.980469 58.050781 356.234375 56.933594 356.511719 55.355469 L 356.980469 53.210938 L 355.859375 55.261719 C 355.019531 56.933594 353.808594 57.398438 350.925781 57.585938 L 347.101562 57.679688 L 350.832031 58.050781 C 352.875 58.332031 355.953125 59.542969 357.621094 60.851562 C 360.140625 62.707031 360.699219 63.730469 360.421875 66.0625 C 360.140625 68.574219 359.769531 69.039062 357.808594 68.851562 C 354.554688 68.667969 346.167969 71.09375 344.871094 72.675781 C 341.886719 76.214844 355.859375 78.730469 360.515625 75.464844 C 362.191406 74.253906 363.125 74.160156 364.890625 75 C 367.59375 76.214844 367.78125 78.917969 365.261719 81.148438 C 364.050781 82.265625 363.398438 84.039062 363.398438 86.269531 C 363.398438 89.625 363.304688 89.8125 359.582031 90.28125 C 357.53125 90.558594 355.578125 91.027344 355.300781 91.210938 C 353.808594 92.695312 357.257812 97.078125 364.703125 103.21875 C 367.035156 105.175781 367.222656 105.734375 366.289062 107.507812 C 365.074219 109.832031 360.699219 112.347656 357.902344 112.347656 C 356.324219 112.347656 355.578125 110.765625 353.15625 103.125 C 351.660156 98.097656 350.367188 93.253906 350.367188 92.414062 C 350.367188 91.484375 349.992188 91.117188 349.433594 91.390625 C 348.871094 91.667969 348.5 91.027344 348.5 89.90625 C 348.5 88.785156 348.21875 88.132812 347.941406 88.414062 C 347.566406 88.785156 347.847656 91.574219 348.40625 94.746094 C 349.058594 97.816406 349.339844 100.613281 349.058594 100.894531 C 348.871094 101.175781 346.261719 99.402344 343.378906 97.078125 C 336.019531 91.117188 335.085938 91.667969 341.328125 98.28125 C 344.21875 101.269531 346.820312 104.898438 347.195312 106.296875 C 348.21875 110.390625 344.589844 112.628906 338.910156 111.136719 C 336.207031 110.390625 333.601562 106.015625 333.601562 102.109375 C 333.601562 98.9375 330.898438 94.746094 327.734375 92.789062 C 323.257812 90 322.429688 90.371094 322.429688 94.933594 L 322.429688 98.84375 L 317.109375 98.9375 C 311.988281 98.9375 305.65625 101.175781 305.65625 102.855469 C 305.65625 103.21875 306.867188 104.242188 308.363281 105.175781 C 311.429688 106.949219 316.375 107.226562 320.1875 105.828125 C 323.164062 104.617188 323.257812 104.710938 324.003906 108.898438 C 324.472656 112.070312 324.285156 112.257812 320.46875 114.214844 C 318.230469 115.417969 316.1875 116.445312 316 116.632812 C 315.816406 116.722656 316.5625 118.03125 317.671875 119.429688 C 321.027344 123.617188 320.003906 129.207031 315.160156 133.488281 C 313.390625 135.074219 311.710938 135.632812 308.269531 135.632812 C 301.933594 135.632812 300.070312 134.417969 300.070312 130.511719 C 300.070312 128.832031 299.695312 126.3125 299.144531 125.015625 C 298.304688 122.683594 293.089844 118.777344 289.175781 117.5625 C 287.316406 117.003906 287.039062 117.191406 287.039062 119.335938 C 287.039062 122.589844 288.519531 125.390625 291.507812 127.898438 C 294.386719 130.324219 293.921875 130.976562 287.773438 133.300781 C 285.265625 134.234375 283.304688 135.351562 283.304688 135.820312 C 283.304688 136.191406 284.144531 138.980469 285.171875 141.871094 C 287.773438 149.417969 287.679688 150.527344 283.960938 150.527344 C 280.984375 150.527344 276.785156 152.675781 276.785156 154.167969 C 276.785156 154.820312 281.355469 157.050781 285.453125 158.355469 C 286.664062 158.726562 287.039062 159.847656 287.039062 163.101562 C 287.039062 166.925781 287.222656 167.292969 289.265625 167.292969 C 292.625 167.292969 297.09375 169.15625 297.652344 170.742188 C 298.492188 172.878906 295.695312 175.492188 291.320312 176.796875 C 286.292969 178.195312 285.453125 179.027344 288.335938 179.773438 C 290.945312 180.425781 291.597656 182.570312 289.359375 183.503906 C 287.503906 184.15625 287.597656 187.878906 289.546875 191.972656 C 291.132812 195.332031 291.132812 195.425781 289.175781 196.90625 C 286.664062 198.867188 285.171875 202.683594 285.171875 207.253906 C 285.171875 211.71875 285.730469 212.1875 288.894531 210.601562 C 291.691406 209.203125 294.480469 204.175781 294.480469 200.640625 C 294.480469 197.652344 295.414062 196.535156 298.492188 195.796875 C 301.46875 195.050781 301.65625 194.210938 299.144531 191.972656 C 297 190.023438 296.625 186.105469 298.679688 185.359375 C 299.414062 185.078125 302.960938 185.734375 306.589844 186.851562 C 310.226562 187.972656 313.484375 188.71875 313.761719 188.4375 C 314.601562 187.503906 313.015625 185.917969 309.292969 183.96875 C 304.546875 181.542969 304.828125 180.050781 310.695312 175.769531 C 314.414062 173.160156 315.441406 172.792969 316.738281 173.625 C 317.578125 174.277344 319.535156 175.582031 321.027344 176.609375 L 323.816406 178.476562 L 324.097656 173.71875 C 324.472656 168.316406 325.683594 167.382812 330.429688 169.0625 C 332.671875 169.902344 334.070312 169.902344 335.460938 169.15625 C 337.046875 168.316406 337.882812 168.597656 340.488281 170.554688 C 344.683594 173.71875 345.710938 173.53125 345.710938 169.34375 C 345.710938 167.382812 345.980469 165.433594 346.261719 165.15625 C 347.289062 164.128906 350.367188 166.367188 352.222656 169.4375 C 355.578125 174.929688 354.179688 180.984375 348.6875 184.707031 C 346.261719 186.292969 345.058594 186.574219 343.285156 185.824219 C 341.980469 185.359375 339.003906 184.988281 336.578125 184.988281 C 333.136719 184.988281 331.644531 185.546875 329.59375 187.410156 C 328.203125 188.71875 327.082031 190.117188 327.269531 190.386719 C 327.457031 190.761719 328.203125 192.160156 328.847656 193.558594 C 330.523438 196.722656 329.5 200.546875 326.804688 201.292969 C 325.683594 201.664062 323.726562 202.960938 322.429688 204.082031 C 321.121094 205.292969 319.070312 206.507812 317.765625 206.878906 C 316.46875 207.160156 314.414062 208.175781 313.203125 209.109375 L 310.964844 210.882812 L 313.855469 212.375 C 319.628906 215.347656 329.683594 212.839844 329.21875 208.550781 C 329.03125 206.785156 329.59375 206.414062 333.230469 205.851562 C 338.539062 205.105469 340.671875 206.691406 339.285156 210.226562 C 338.816406 211.535156 338.351562 214.230469 338.257812 216.1875 C 337.699219 225.132812 338.539062 225.871094 344.03125 221.308594 C 347.566406 218.335938 349.433594 214.042969 349.433594 208.640625 C 349.433594 206.972656 350.273438 204.734375 351.203125 203.519531 L 353.0625 201.292969 L 356.417969 205.199219 C 359.953125 209.386719 363.21875 211.066406 364.328125 209.203125 C 365.542969 207.253906 364.328125 197.746094 362.378906 194.679688 C 361.167969 192.625 360.699219 190.855469 361.167969 189.277344 C 361.820312 186.386719 361.632812 186.386719 365.730469 188.71875 C 373.554688 193.09375 374.019531 189.089844 366.941406 179.210938 C 365.542969 177.355469 365.820312 176.984375 369.171875 176.144531 C 371.035156 175.675781 371.875 175.863281 372.15625 176.703125 C 372.34375 177.449219 372.996094 179.867188 373.648438 182.105469 C 374.207031 184.34375 376.15625 187.597656 377.835938 189.371094 C 380.542969 192.160156 380.8125 193 380.074219 194.957031 C 378.769531 198.308594 379.050781 199.707031 381.089844 201.476562 C 382.304688 202.496094 382.957031 204.265625 382.957031 206.226562 C 382.957031 210.601562 385.476562 215.535156 388.636719 217.121094 C 390.039062 217.867188 391.4375 218.519531 391.808594 218.519531 C 393.199219 218.519531 392.089844 209.574219 390.222656 206.320312 C 388.636719 203.519531 388.453125 202.402344 389.292969 201.570312 C 389.945312 200.917969 390.410156 199.707031 390.410156 198.773438 C 390.410156 197.839844 390.785156 197.09375 391.25 197.09375 C 392.734375 197.09375 397.582031 203.335938 400.28125 208.828125 L 402.984375 214.324219 L 402.984375 241.429688 C 402.984375 262.195312 402.703125 269.085938 401.773438 270.765625 C 401.027344 271.96875 398.226562 274.863281 395.4375 277.101562 C 391.15625 280.730469 389.292969 281.476562 382.304688 282.96875 C 377.742188 283.890625 368.0625 285.105469 360.609375 285.570312 C 342.539062 286.691406 336.390625 287.902344 327.550781 292.183594 C 319.441406 296.09375 319.910156 296.929688 328.378906 293.957031 C 334.898438 291.71875 343.75 290.597656 365.261719 289.292969 C 374.207031 288.742188 383.144531 287.996094 385.101562 287.714844 C 389.199219 287.0625 389.476562 288.183594 386.316406 293.023438 L 384.171875 296.277344 L 364.703125 296.277344 C 346.539062 296.277344 344.964844 296.371094 341.511719 298.332031 C 339.46875 299.355469 336.765625 301.492188 335.460938 302.890625 L 333.136719 305.503906 L 336.207031 302.984375 C 340.394531 299.636719 341.980469 299.730469 342.074219 303.453125 C 342.257812 306.53125 342.257812 306.53125 342.632812 303.824219 C 343.566406 297.492188 346.820312 296.746094 366.941406 297.957031 C 376.4375 298.609375 379.234375 299.078125 379.234375 300.101562 C 379.234375 302.238281 375.222656 304.105469 367.5 305.503906 C 357.53125 307.171875 354.832031 308.757812 350.457031 315.28125 C 346.632812 320.867188 345.246094 321.894531 341.511719 321.894531 C 340.300781 321.894531 339.003906 322.359375 338.628906 323.011719 C 338.257812 323.664062 338.351562 323.757812 339.003906 323.386719 C 339.65625 323.011719 340.113281 323.292969 340.113281 324.039062 C 340.113281 324.777344 337.699219 326.640625 334.804688 328.226562 C 331.832031 329.8125 328.378906 332.042969 327.175781 333.160156 C 324.75 335.398438 322.429688 340.429688 322.519531 343.03125 C 322.519531 344.054688 322.976562 343.589844 323.539062 341.910156 C 324.9375 338.003906 329.59375 333.253906 334.804688 330.644531 C 339.5625 328.132812 339.9375 328.320312 337.699219 331.667969 C 336.765625 333.066406 336.390625 335.027344 336.671875 336.511719 C 337.046875 338.46875 336.484375 339.683594 333.976562 342.097656 C 332.109375 343.871094 330.804688 346.015625 330.804688 347.226562 C 330.898438 349.085938 331.085938 348.992188 332.109375 346.480469 C 333.324219 343.777344 336.765625 340.519531 338.539062 340.519531 C 338.910156 340.519531 340.113281 342.285156 341.046875 344.429688 C 342.820312 348.246094 342.914062 348.339844 342.914062 345.734375 C 342.914062 344.148438 341.792969 341.359375 340.488281 339.496094 C 337.417969 334.933594 337.976562 333.066406 344.21875 328.414062 C 346.914062 326.363281 350.457031 322.640625 352.128906 320.027344 C 356.699219 312.949219 360.609375 310.4375 367.59375 309.972656 L 373.367188 309.597656 L 374.488281 312.574219 C 375.039062 314.253906 375.503906 317.613281 375.503906 320.027344 C 375.503906 325.054688 373.367188 327.574219 365.542969 331.667969 C 359.023438 335.027344 355.113281 339.121094 354.460938 343.402344 C 353.808594 347.59375 353.433594 347.964844 349.433594 350.761719 C 342.632812 355.324219 340.671875 358.214844 339.75 365.195312 C 339.378906 367.710938 338.910156 370.699219 338.628906 371.714844 C 338.257812 373.207031 338.351562 373.300781 339.097656 372.179688 C 339.65625 371.433594 340.113281 369.859375 340.113281 368.738281 C 340.113281 365.566406 343.003906 366.6875 345.058594 370.699219 C 346.074219 372.554688 347.007812 373.953125 347.289062 373.765625 C 347.847656 373.113281 345.152344 367.433594 342.820312 364.644531 C 341.140625 362.496094 341.046875 361.84375 341.980469 359.980469 C 343.472656 357.375 345.246094 355.511719 349.621094 352.257812 L 353.0625 349.738281 L 354.085938 351.789062 C 354.742188 352.910156 355.488281 357.191406 355.765625 361.378906 C 356.234375 367.898438 356.417969 368.457031 357.070312 365.660156 C 357.445312 363.898438 357.714844 359.054688 357.621094 354.953125 C 357.53125 344.335938 358.367188 340.988281 362.101562 337.910156 C 363.769531 336.511719 366.753906 334.746094 368.714844 334.09375 C 379.050781 330.457031 381.558594 326.734375 380.8125 316.210938 C 380.261719 307.734375 380.8125 306.625 387.332031 302.613281 C 389.851562 301.027344 395.4375 296.09375 399.90625 291.625 C 404.375 287.0625 408.386719 283.609375 408.664062 283.984375 C 410.335938 285.664062 408.945312 293.304688 406.238281 297.210938 C 404.09375 300.289062 403.449219 302.332031 403.449219 305.691406 C 403.449219 309.039062 402.890625 310.71875 401.398438 312.398438 C 399.625 314.253906 399.160156 316.027344 398.785156 322.917969 L 398.226562 331.203125 L 394.132812 334.839844 C 391.15625 337.441406 389.757812 339.496094 389.105469 342.472656 L 388.078125 346.574219 L 382.492188 347.136719 C 374.019531 347.964844 365.542969 352.347656 367.875 354.671875 C 368.527344 355.324219 368.992188 357.285156 369.085938 359.140625 L 369.171875 362.40625 L 370.011719 358.871094 C 371.6875 351.601562 375.691406 348.523438 382.863281 349.085938 L 386.773438 349.363281 L 383.144531 354.484375 C 377.464844 362.496094 375.132812 368.644531 375.972656 373.394531 C 376.902344 378.234375 377.089844 389.597656 376.34375 396.394531 C 375.972656 399.195312 375.972656 400.492188 376.15625 399.195312 C 376.4375 397.886719 377.089844 396.582031 377.648438 396.210938 C 378.394531 395.742188 378.769531 391.835938 378.769531 384.753906 C 378.769531 372.925781 378.675781 373.113281 384.824219 375.539062 C 389.476562 377.394531 391.902344 381.59375 392.828125 389.6875 C 393.664062 397.515625 395.4375 396.117188 394.785156 388.113281 C 394.132812 379.261719 392.917969 377.207031 386.222656 374.046875 C 383.050781 372.554688 379.886719 370.605469 379.234375 369.859375 C 377.554688 367.898438 379.140625 364.550781 385.753906 355.792969 C 388.824219 351.695312 391.625 346.949219 392.183594 344.617188 C 392.828125 341.910156 394.320312 339.683594 396.742188 337.535156 C 401.117188 333.816406 402.050781 332.042969 402.984375 326.082031 C 403.542969 321.988281 403.730469 321.707031 404.46875 323.664062 C 407.171875 330.734375 408.292969 339.308594 407.640625 347.042969 C 406.613281 357.84375 406.707031 360.351562 408.011719 368.925781 C 409.410156 378.328125 408.292969 388.664062 405.027344 395.648438 C 402.238281 401.703125 400.371094 411.851562 400.839844 418.746094 C 401.210938 423.402344 401.210938 423.214844 401.398438 416.890625 C 401.585938 411.945312 401.863281 410.277344 402.519531 411.300781 C 403.171875 412.410156 403.449219 412.039062 403.449219 409.902344 L 403.542969 407.105469 L 404.5625 409.4375 C 405.492188 411.480469 405.679688 410.835938 406.238281 404.316406 C 406.613281 400.210938 407.359375 395.929688 407.917969 394.808594 C 408.945312 392.859375 410.800781 385.6875 411.359375 381.6875 C 411.734375 378.234375 412.480469 378.328125 413.691406 381.871094 C 415.1875 386.527344 415.09375 393.234375 413.320312 406.171875 C 411.734375 417.441406 412.015625 432.160156 413.785156 433.277344 C 414.253906 433.558594 414.625 432.71875 414.625 431.414062 C 414.625 429.921875 415.1875 428.988281 416.015625 428.988281 C 416.761719 428.988281 417.414062 429.546875 417.414062 430.292969 C 417.414062 431.039062 418.066406 431.785156 418.8125 432.160156 C 419.839844 432.53125 419.558594 431.320312 417.789062 427.785156 C 414.625 421.542969 413.972656 413.90625 415.921875 404.78125 C 418.347656 393.605469 417.882812 384.660156 414.4375 373.207031 C 411.640625 363.804688 411.546875 362.589844 411.453125 346.109375 C 411.359375 336.605469 410.988281 326.175781 410.523438 322.824219 C 409.867188 317.703125 410.148438 315.1875 412.105469 306.988281 C 413.414062 301.585938 414.71875 295.71875 415.09375 293.863281 C 415.371094 291.902344 416.203125 289.945312 416.855469 289.386719 C 419.09375 287.527344 424.402344 293.210938 428.589844 301.960938 C 430.640625 306.25 435.015625 313.226562 438.375 317.425781 C 441.722656 321.613281 444.429688 325.800781 444.429688 326.640625 C 444.429688 328.695312 442.191406 330.457031 435.390625 333.90625 C 432.226562 335.492188 429.335938 337.164062 429.054688 337.816406 C 428.683594 338.375 428.03125 341.632812 427.5625 344.988281 C 425.613281 358.496094 425.613281 362.3125 427.011719 367.058594 C 428.125 370.78125 428.496094 371.15625 428.496094 369.113281 C 428.589844 367.617188 428.125 365.660156 427.65625 364.644531 C 426.640625 362.871094 427.9375 351.882812 429.523438 348.992188 C 430.269531 347.59375 435.855469 355.792969 437.535156 361.003906 C 438.65625 364.175781 438.65625 364.175781 438.746094 361.660156 C 438.839844 358.871094 437.347656 355.324219 433.710938 349.363281 C 430.269531 343.871094 430.640625 341.082031 435.015625 338.097656 C 437.070312 336.789062 440.324219 335.492188 442.375 335.214844 C 445.910156 334.746094 446.191406 334.933594 447.777344 337.816406 C 449.921875 341.910156 450.753906 359.140625 449.082031 365.472656 C 445.820312 377.953125 444.148438 381.5 438.746094 387.738281 C 435.667969 391.089844 433.246094 394.53125 433.335938 395.371094 C 433.335938 396.675781 433.429688 396.675781 433.898438 395.464844 C 434.738281 393.234375 437.164062 390.808594 438.5625 390.808594 C 439.484375 390.808594 439.765625 392.859375 439.953125 398.914062 C 439.953125 403.476562 440.230469 405.707031 440.417969 404.035156 C 440.605469 402.355469 441.351562 401.050781 442.003906 401.050781 C 443.867188 401.050781 452.433594 407.664062 454.109375 410.371094 C 454.859375 411.664062 455.605469 412.132812 455.605469 411.394531 C 455.605469 410.183594 452.804688 407.289062 444.523438 400.023438 C 440.136719 396.210938 439.765625 393.792969 442.5625 388.941406 C 443.589844 387.179688 445.820312 382.980469 447.40625 379.632812 C 450.296875 373.671875 450.390625 373.671875 451.03125 376.378906 C 451.5 378.421875 451.6875 378.609375 451.777344 377.113281 C 451.964844 374.234375 452.898438 372.179688 454.109375 372.179688 C 455.605469 372.179688 463.886719 380.472656 465.566406 383.636719 C 466.5 385.59375 466.871094 388.195312 466.59375 392.207031 C 466.3125 396.488281 466.59375 397.980469 467.429688 397.980469 C 468.074219 397.980469 468.636719 397.421875 468.636719 396.675781 C 468.636719 396.023438 469.101562 395.464844 469.566406 395.464844 C 470.21875 395.464844 470.21875 394.902344 469.566406 393.699219 C 469.101562 392.675781 468.636719 391.089844 468.636719 390.15625 C 468.636719 385.59375 466.3125 381.21875 460.632812 374.886719 C 457.179688 371.0625 454.109375 367.058594 453.644531 365.847656 C 453.179688 364.644531 453.085938 357.75 453.363281 350.390625 C 453.925781 339.027344 453.738281 336.417969 452.339844 332.136719 C 449.921875 324.777344 446.9375 319.28125 442.46875 313.972656 C 437.535156 308.105469 434.175781 301.027344 434.175781 296.464844 C 434.175781 293.210938 434.363281 293.023438 436.042969 293.957031 C 437.070312 294.515625 440.230469 298.332031 443.121094 302.425781 C 449.644531 311.746094 452.617188 314.71875 460.539062 319.746094 C 464.914062 322.640625 466.777344 324.402344 466.777344 325.800781 C 466.777344 327.386719 467.058594 327.480469 468.074219 326.640625 C 469.101562 325.800781 469.941406 325.800781 471.339844 326.453125 C 476.554688 329.253906 477.394531 335.773438 473.859375 344.523438 C 471.804688 349.363281 471.804688 349.832031 473.300781 349.363281 C 474.503906 348.992188 475.0625 349.550781 475.527344 351.789062 C 476.554688 356.910156 476.179688 360.351562 474.316406 362.3125 C 473.390625 363.429688 472.273438 365.285156 471.898438 366.59375 L 471.246094 368.925781 L 473.207031 366.3125 C 474.410156 364.914062 475.902344 363.804688 476.554688 363.804688 C 477.765625 363.804688 480.089844 370.230469 481.117188 376.378906 C 481.675781 379.914062 480.835938 370.136719 480.089844 365.378906 C 479.632812 362.3125 479.808594 361.9375 481.769531 361.9375 C 482.886719 361.9375 484.660156 362.683594 485.675781 363.523438 C 487.449219 365.101562 487.542969 365.101562 486.421875 363.152344 C 485.769531 361.9375 483.820312 360.632812 481.675781 360.074219 C 477.671875 358.960938 477.488281 358.683594 476.648438 349.738281 C 476.273438 346.203125 476.554688 343.125 477.488281 340.519531 C 478.234375 338.375 478.886719 334.839844 478.886719 332.789062 C 478.886719 329.625 478.328125 328.507812 474.96875 325.429688 C 472.738281 323.386719 467.710938 319.839844 463.792969 317.519531 C 454.484375 311.929688 451.3125 308.757812 446.566406 300.101562 C 442.46875 292.929688 441.910156 291.15625 443.402344 291.15625 C 445.632812 291.15625 469.566406 303.265625 470.40625 304.851562 C 470.875 305.878906 471.621094 308.945312 471.992188 311.746094 C 472.644531 316.585938 472.738281 316.679688 473.484375 313.878906 C 474.78125 308.851562 478.886719 308.667969 478.886719 313.601562 C 478.886719 316.773438 480.929688 321.148438 486.421875 329.53125 C 490.15625 335.308594 490.246094 335.585938 489.78125 342.097656 C 489.59375 345.828125 489.6875 348.617188 490.0625 348.429688 C 490.433594 348.152344 492.382812 349.085938 494.34375 350.296875 L 497.972656 352.628906 L 494.4375 349.457031 C 490.992188 346.386719 490.902344 346.109375 491.449219 342.097656 C 492.199219 337.257812 490.902344 332.320312 487.824219 328.601562 C 482.421875 321.988281 478.886719 312.574219 481.863281 312.574219 C 483.074219 312.574219 499.558594 323.574219 503.277344 326.921875 C 505.703125 329.066406 506.636719 334.09375 507.570312 348.710938 C 508.035156 356.539062 508.78125 362.40625 509.425781 363.058594 C 510.265625 363.898438 510.265625 363.429688 509.613281 360.914062 C 508.503906 357.191406 508.316406 339.589844 509.425781 339.589844 C 509.800781 339.589844 511.011719 340.988281 512.039062 342.65625 C 513.34375 344.617188 515.945312 346.480469 519.769531 348.152344 C 522.839844 349.457031 525.453125 350.296875 525.453125 349.925781 C 525.453125 349.550781 522.652344 347.5 519.304688 345.269531 C 512.597656 340.894531 510.171875 337.070312 510.730469 331.761719 C 511.011719 328.972656 511.105469 328.878906 515.480469 328.972656 C 518.464844 328.972656 520.695312 329.625 522.652344 331.015625 C 524.613281 332.507812 525.453125 332.789062 525.453125 331.855469 C 525.453125 329.160156 521.71875 327.109375 515.851562 326.734375 C 510.640625 326.363281 509.707031 325.988281 506.636719 322.824219 C 504.769531 320.867188 498.25 316.304688 492.199219 312.761719 C 486.144531 309.132812 479.351562 304.199219 477.019531 301.867188 C 472.367188 297.023438 469.195312 295.160156 460.257812 292.089844 C 456.898438 290.972656 453.550781 289.480469 452.804688 288.742188 C 451.6875 287.621094 452.058594 287.4375 455.605469 287.4375 C 460.539062 287.4375 479.257812 291.15625 485.863281 293.488281 C 488.476562 294.328125 492.664062 295.253906 495.183594 295.53125 C 498.902344 296 500.304688 296.652344 502.355469 299.078125 C 503.652344 300.664062 506.636719 302.707031 508.867188 303.636719 C 516.597656 306.800781 518.558594 308.011719 520.144531 310.53125 C 521.347656 312.574219 521.71875 312.667969 521.71875 311.277344 C 521.71875 310.066406 522.1875 309.785156 523.398438 310.253906 C 526.75 311.652344 533.269531 313.507812 534.667969 313.414062 C 535.507812 313.414062 533.546875 312.574219 530.292969 311.652344 C 522.652344 309.503906 521.441406 308.386719 524.425781 305.96875 L 526.65625 304.105469 L 522.933594 304.757812 C 520.507812 305.132812 517.253906 304.757812 513.808594 303.730469 C 508.410156 302.238281 503.464844 298.425781 504.492188 296.746094 C 504.769531 296.183594 507.851562 295.8125 511.292969 295.8125 C 519.023438 295.8125 527.308594 294.609375 537.371094 291.902344 C 544.722656 290.039062 545.28125 290.039062 547.800781 291.4375 C 550.402344 293.023438 550.402344 293.023438 550.21875 290.691406 C 550.125 288.648438 549.65625 288.367188 546.867188 288.367188 C 545.097656 288.367188 540.90625 289.207031 537.746094 290.226562 C 524.984375 294.234375 499.183594 293.394531 487.824219 288.648438 C 484.847656 287.4375 479.445312 286.035156 475.714844 285.570312 C 472.085938 285.195312 467.898438 284.359375 466.3125 283.796875 C 464.820312 283.152344 458.113281 282.40625 451.3125 282.128906 L 439.019531 281.570312 L 433.898438 277.285156 C 431.109375 274.953125 428.125 271.699219 427.292969 270.207031 C 425.148438 266.007812 423.933594 253.632812 423.933594 235.65625 L 423.933594 219.628906 L 430.082031 214.042969 C 435.949219 208.640625 441.164062 205.667969 457.925781 198.027344 C 461.5625 196.347656 465.472656 194.117188 466.777344 192.90625 C 469.382812 190.480469 479.351562 187.878906 480.742188 189.277344 C 482.792969 191.320312 482.703125 194.863281 480.554688 198.027344 C 478.699219 200.824219 477.765625 201.292969 474.316406 201.570312 C 471.058594 201.851562 465.007812 204.546875 462.21875 207.066406 C 461.9375 207.253906 462.675781 207.988281 463.792969 208.828125 C 465.472656 209.949219 465.847656 211.160156 465.847656 215.347656 C 465.847656 218.800781 466.21875 220.375 467.058594 220.375 C 468.914062 220.285156 472.085938 217.308594 473.765625 213.855469 C 475.527344 210.226562 478.605469 207.347656 480.742188 207.347656 C 481.488281 207.347656 482.792969 208.734375 483.632812 210.414062 C 484.941406 213.121094 490.15625 217.585938 492.011719 217.585938 C 492.476562 217.585938 492.851562 214.230469 492.851562 210.136719 C 492.851562 205.574219 493.222656 202.683594 493.78125 202.683594 C 494.34375 202.683594 497.140625 204.175781 499.929688 205.945312 C 502.730469 207.71875 505.238281 209.203125 505.519531 209.203125 C 505.890625 209.203125 505.890625 207.066406 505.703125 204.546875 C 505.238281 200.078125 505.425781 199.707031 507.851562 198.492188 C 511.851562 196.347656 513.0625 196.8125 515.292969 200.730469 C 516.972656 203.707031 520.238281 206.414062 522.1875 206.414062 C 522.464844 206.414062 522.652344 204.265625 522.652344 201.664062 C 522.652344 198.398438 522 195.796875 520.695312 193.746094 C 519.117188 191.226562 519.023438 190.304688 519.957031 188.625 C 520.601562 187.410156 520.789062 184.894531 520.421875 182.570312 C 520.144531 180.332031 520.050781 178.476562 520.238281 178.476562 C 520.332031 178.476562 521.90625 179.121094 523.585938 179.957031 C 526.105469 181.265625 526.75 181.265625 527.402344 180.238281 C 528.148438 179.121094 528.425781 179.121094 529.453125 180.332031 C 531.132812 182.382812 535.414062 184.988281 536.066406 184.34375 C 537.09375 183.316406 536.625 177.542969 535.226562 174.277344 C 533.921875 171.117188 534.015625 170.929688 536.71875 167.757812 C 538.296875 165.996094 540.160156 164.503906 540.90625 164.503906 C 541.5625 164.503906 542.960938 166.089844 543.976562 168.039062 C 546.402344 172.792969 548.175781 174.089844 551.148438 173.53125 C 553.203125 173.160156 554.320312 173.8125 557.109375 176.703125 C 561.765625 181.636719 562.699219 181.359375 562.699219 175.210938 C 562.699219 170.460938 562.886719 170.089844 565.777344 168.597656 C 567.351562 167.757812 568.9375 166.925781 569.125 166.742188 C 570.058594 165.902344 566.800781 163.476562 563.539062 162.636719 C 560.1875 161.703125 559.910156 161.332031 559.910156 158.449219 C 559.910156 154.261719 558.417969 153.515625 556.738281 156.863281 C 554.789062 160.6875 552.082031 161.152344 548.734375 158.355469 C 545.84375 155.929688 543.332031 149.875 544.628906 148.671875 C 545.097656 148.300781 547.054688 147.460938 549.015625 146.808594 C 550.871094 146.246094 552.457031 145.316406 552.457031 144.847656 C 552.457031 144.382812 550.777344 143.179688 548.828125 142.152344 C 544.257812 139.820312 543.789062 139.167969 545.003906 136.097656 C 545.9375 133.578125 545.9375 133.578125 542.960938 134.140625 C 540.070312 134.605469 539.695312 134.417969 536.90625 130.230469 C 533.363281 125.203125 533.363281 124.738281 535.226562 121.097656 C 537 117.75 537.09375 110.484375 535.414062 110.484375 C 534.761719 110.484375 532.800781 111.601562 531.132812 113.003906 C 528.894531 114.953125 527.960938 116.632812 527.585938 119.617188 C 527.121094 122.777344 526.5625 123.898438 524.796875 124.550781 C 523.492188 125.015625 522.09375 125.203125 521.71875 124.921875 C 521.253906 124.644531 521.066406 121.007812 521.441406 117.003906 C 522.09375 108.347656 521.535156 107.882812 515.480469 112.257812 C 511.476562 115.136719 509.613281 119.617188 509.613281 126.230469 C 509.613281 129.578125 509.238281 130.324219 506.636719 131.910156 C 504.957031 132.925781 503.1875 133.765625 502.820312 133.765625 C 501.328125 133.765625 501.050781 130.789062 502.449219 127.898438 C 503.1875 126.3125 504.023438 122.683594 504.210938 119.988281 C 504.679688 114.953125 504.679688 114.953125 502.261719 115.417969 C 498.066406 116.257812 496.953125 114.953125 498.34375 110.578125 C 499.371094 106.855469 503 103.683594 508.035156 101.828125 C 510.546875 100.894531 509.890625 99.777344 505.890625 97.910156 C 503.839844 96.988281 502.167969 95.867188 502.167969 95.402344 C 502.167969 95.027344 503.652344 93.90625 505.519531 93.070312 C 508.128906 91.761719 509.144531 91.667969 510.546875 92.601562 C 511.570312 93.253906 513.625 93.722656 515.199219 93.722656 C 518.371094 93.722656 525.453125 91.117188 525.453125 90 C 525.453125 89.535156 524.332031 88.320312 523.027344 87.292969 C 520.238281 85.066406 516.320312 84.785156 511.757812 86.457031 C 509.144531 87.386719 508.222656 87.386719 506.078125 86.082031 C 501.515625 83.292969 502.542969 79.75 508.503906 77.238281 C 512.316406 75.652344 511.945312 73.796875 507.851562 73.425781 C 504.769531 73.144531 504.769531 73.050781 505.238281 69.507812 C 505.796875 64.945312 505.425781 64.570312 501.980469 66.34375 C 500.117188 67.277344 498.53125 69.320312 497.320312 72.398438 C 494.902344 78.078125 492.851562 78.453125 492.851562 73.238281 C 492.851562 68.945312 491.636719 68.480469 487.914062 71.371094 C 485.125 73.609375 483.539062 78.265625 483.539062 84.414062 C 483.539062 87.574219 482.980469 89.253906 481.210938 91.210938 C 478.328125 94.28125 477.765625 94.28125 474.128906 91.667969 L 471.339844 89.535156 L 467.992188 93.535156 C 464.074219 98.28125 458.394531 101.359375 454.390625 100.988281 C 451.03125 100.707031 449.828125 97.628906 452.339844 95.585938 C 453.085938 94.933594 453.738281 93.628906 453.738281 92.695312 C 453.738281 90.746094 452.339844 90.839844 445.074219 93.347656 C 440.882812 94.839844 440.417969 94.28125 440.882812 87.574219 C 441.070312 84.226562 441.535156 83.011719 442.5625 83.011719 C 443.402344 83.011719 444.054688 84.039062 444.242188 85.53125 C 444.429688 87.015625 444.980469 88.132812 445.539062 88.132812 C 447.589844 88.132812 452.804688 83.386719 454.296875 80.214844 C 455.605469 77.519531 456.351562 76.960938 458.765625 76.960938 C 461.472656 76.960938 461.84375 76.585938 462.859375 72.769531 C 463.980469 68.667969 464.820312 68.023438 468.636719 68.574219 C 469.382812 68.667969 470.96875 69.597656 472.085938 70.625 C 474.78125 73.144531 476.089844 72.117188 476.089844 67.554688 C 476.089844 64.199219 475.902344 63.917969 473.578125 63.917969 C 472.085938 63.917969 470.035156 63.640625 468.820312 63.359375 C 466.871094 62.800781 466.777344 62.425781 467.339844 58.609375 C 467.898438 54.609375 467.898438 54.421875 466.03125 55.449219 C 463.140625 56.933594 459.324219 56.746094 458.671875 54.984375 C 457.738281 52.558594 459.605469 50.515625 464.261719 49.023438 C 470.6875 46.96875 471.339844 45.757812 467.617188 43.527344 C 464.074219 41.289062 462.21875 41.195312 457.179688 42.59375 C 454.109375 43.433594 453.363281 43.246094 450.484375 41.101562 C 446.84375 38.3125 445.726562 38.59375 444.886719 42.5 C 444.523438 43.992188 443.867188 45.476562 443.402344 45.851562 C 442.285156 46.503906 433.246094 44.460938 433.246094 43.621094 C 433.246094 43.246094 434.085938 41.664062 435.109375 40.167969 C 437.070312 37.195312 437.628906 32.257812 436.042969 32.257812 C 435.484375 32.257812 433.335938 33.097656 431.296875 34.210938 C 427.75 35.980469 427.378906 35.980469 425.800781 34.582031 C 424.773438 33.648438 423.933594 32.167969 423.75 31.046875 C 423.46875 29.460938 423.003906 29.742188 420.027344 33.277344 Z M 453.738281 161.515625 L 453.738281 165.996094 L 458.671875 165.902344 C 463.234375 165.902344 463.515625 165.996094 463.515625 168.222656 C 463.515625 169.996094 462.675781 170.929688 459.699219 172.421875 C 455.511719 174.371094 451.871094 177.355469 451.871094 178.664062 C 451.871094 179.027344 453.179688 179.398438 454.671875 179.398438 C 457.460938 179.398438 457.460938 179.398438 456.070312 182.105469 C 454.019531 186.105469 436.976562 193.839844 436.976562 190.761719 C 436.976562 188.625 439.207031 184.988281 440.511719 184.988281 C 441.535156 184.988281 441.722656 183.691406 441.535156 179.121094 C 441.351562 175.863281 441.722656 172.515625 442.375 171.300781 C 443.867188 168.597656 443.960938 168.785156 440.042969 165.15625 C 437.910156 163.011719 436.882812 161.425781 437.253906 160.5 C 438 158.542969 442.65625 157.234375 448.898438 157.140625 L 453.738281 157.050781 Z M 413.691406 167.570312 C 418.160156 169.808594 419.28125 171.863281 417.042969 174.089844 C 415.1875 175.957031 416.109375 176.609375 420.492188 176.609375 L 424.121094 176.609375 L 423.46875 180.050781 C 422.722656 184.15625 420.867188 188.34375 417.136719 194.585938 C 414.8125 198.398438 414.253906 198.867188 412.945312 197.839844 C 410.613281 195.890625 399.71875 181.078125 399.71875 179.867188 C 399.71875 179.210938 400.558594 177.730469 401.492188 176.421875 C 402.519531 175.210938 403.542969 172.515625 403.917969 170.460938 C 405.121094 163.476562 405.121094 163.476562 413.691406 167.570312 Z M 392.089844 176.984375 C 392.371094 182.105469 392.453125 182.382812 394.597656 181.824219 C 396.371094 181.359375 397.210938 181.917969 398.878906 184.25 C 400.558594 186.574219 411.175781 200.078125 413.320312 202.589844 C 413.972656 203.335938 416.667969 200.359375 419.09375 196.078125 C 420.773438 193 422.257812 191.507812 423.46875 191.507812 C 426.265625 191.507812 431.015625 188.25 432.878906 185.078125 C 436.789062 178.476562 437.164062 184.0625 433.335938 191.601562 L 430.640625 196.90625 L 436.882812 194.773438 C 440.230469 193.652344 445.632812 191.507812 448.804688 190.117188 C 453.644531 187.972656 454.949219 187.785156 456.070312 188.71875 C 457.554688 189.929688 457.738281 189.835938 465.097656 182.851562 C 467.617188 180.519531 468.542969 181.542969 467.710938 185.917969 C 466.871094 190.761719 465.753906 191.878906 459.417969 194.863281 C 436.324219 205.667969 430.175781 209.296875 424.960938 215.347656 L 421.882812 218.894531 L 422.257812 242.644531 C 422.722656 269.273438 423.09375 270.953125 429.148438 276.449219 C 431.203125 278.398438 432.320312 280.167969 431.949219 280.730469 C 431.480469 281.570312 426.175781 281.847656 414.066406 281.847656 C 394.878906 281.847656 394.226562 281.570312 400.28125 276.074219 C 402.144531 274.394531 404.1875 271.699219 404.839844 270.019531 C 406.054688 267.222656 406.519531 266.941406 410.613281 266.753906 L 415.09375 266.570312 L 410.707031 266.289062 C 407.171875 266.007812 406.238281 265.550781 406.238281 264.246094 C 406.238281 263.3125 407.171875 262.101562 408.386719 261.542969 L 410.429688 260.515625 L 408.386719 260.515625 C 405.214844 260.421875 405.679688 257.632812 408.851562 257.539062 L 411.359375 257.445312 L 409.039062 256.792969 C 406.984375 256.234375 406.707031 255.582031 406.425781 250.738281 C 406.148438 245.898438 406.332031 245.339844 408.199219 244.871094 L 410.335938 244.3125 L 408.292969 243.566406 C 406.519531 242.914062 406.238281 242.082031 406.238281 237.234375 C 406.238281 231.832031 406.332031 231.550781 408.851562 231 C 413.226562 230.070312 413.320312 229.882812 409.785156 229.789062 C 405.867188 229.695312 404.5625 226.992188 408.386719 226.804688 L 410.429688 226.617188 L 408.386719 226.246094 C 406.519531 225.871094 406.238281 225.3125 406.238281 220.84375 C 406.238281 216.375 406.519531 215.816406 408.386719 215.441406 C 410.148438 215.070312 410.148438 215.070312 407.917969 214.882812 C 405.867188 214.789062 405.214844 214.042969 403.824219 210.507812 C 402.425781 206.878906 402.425781 206.132812 403.542969 205.386719 C 404.5625 204.734375 404.46875 204.546875 402.984375 204.546875 C 401.027344 204.546875 400.09375 203.707031 395.625 197.5625 C 394.132812 195.519531 391.0625 191.878906 388.824219 189.558594 C 385.007812 185.546875 383.050781 181.171875 382.957031 176.332031 C 382.957031 174.558594 388.265625 170.835938 390.410156 171.210938 C 391.4375 171.394531 391.902344 172.972656 392.089844 176.984375 Z M 392.089844 176.984375 " fill-opacity="1" fill-rule="nonzero"/><path fill="#0a290e" d="M 157.761719 463.726562 C 153.285156 464.472656 140.90625 468.855469 136.988281 471.085938 C 122.277344 479.378906 111.753906 493.25 107.277344 510.011719 C 105.140625 518.304688 104.957031 536.558594 107 544.5625 C 112.773438 567.199219 130.1875 584.335938 153.5625 590.203125 C 162.601562 592.433594 179.457031 592.246094 187.75 589.832031 C 205.808594 584.617188 220.714844 572.414062 227.980469 557.042969 C 231.796875 548.851562 233.195312 542.050781 233.195312 531.902344 L 233.195312 521.746094 L 164.28125 521.746094 L 164.28125 539.441406 L 185.605469 539.441406 C 199.757812 539.441406 207.207031 539.8125 207.582031 540.464844 C 208.609375 542.050781 204.511719 551.734375 200.78125 556.667969 C 196.875 561.894531 189.980469 566.828125 184.300781 568.589844 C 182.246094 569.148438 175.738281 569.710938 169.867188 569.710938 C 160.269531 569.710938 158.601562 569.429688 154.03125 567.292969 C 138.015625 559.746094 130.746094 547.171875 130.652344 527.144531 C 130.5625 507.5 140.160156 492.875 156.828125 487.289062 C 165.296875 484.40625 178.246094 484.964844 185.699219 488.59375 C 190.914062 491.019531 196.128906 495.300781 198.832031 499.207031 C 200.316406 501.261719 200.6875 501.261719 214.476562 501.074219 L 228.53125 500.792969 L 225.277344 493.902344 C 218.382812 479.65625 202.179688 467.644531 185.417969 464.472656 C 178.710938 463.164062 163.347656 462.800781 157.761719 463.726562 Z M 157.761719 463.726562 " fill-opacity="1" fill-rule="nonzero"/><path fill="#0a290e" d="M 257.273438 464.582031 C 256.804688 464.957031 256.527344 493.734375 256.527344 528.472656 L 256.527344 591.613281 L 281.675781 591.613281 L 281.675781 567.03125 C 281.675781 545.511719 281.859375 542.351562 283.167969 541.882812 C 285.210938 541.136719 292.195312 541.230469 293.410156 542.070312 C 294.339844 542.628906 301.609375 555.019531 309.425781 569.261719 C 310.636719 571.59375 313.15625 575.78125 314.824219 578.675781 C 316.597656 581.554688 317.996094 584.449219 317.996094 585 C 317.996094 585.558594 318.277344 586.023438 318.742188 586.023438 C 319.117188 586.023438 319.945312 587.238281 320.601562 588.824219 L 321.90625 591.613281 L 336.253906 591.613281 C 344.441406 591.613281 350.589844 591.238281 350.589844 590.773438 C 350.589844 590.035156 348.722656 586.769531 343.136719 577.648438 C 338.109375 569.449219 331.039062 557.0625 331.039062 556.316406 C 331.039062 555.847656 330.757812 555.296875 330.292969 555.113281 C 329.359375 554.738281 323.023438 543.9375 322.1875 541.417969 C 321.71875 540.019531 322.09375 539.273438 323.304688 538.898438 C 330.757812 536.390625 333.828125 534.617188 338.667969 529.964844 C 345.75 523.070312 348.910156 516.363281 349.46875 506.773438 C 350.683594 486.1875 339.507812 471.382812 319.023438 466.074219 C 313.25 464.675781 258.484375 463.277344 257.273438 464.582031 Z M 313.800781 486.746094 C 319.210938 489.265625 322 492.054688 323.492188 496.53125 C 326.1875 504.628906 323.398438 513.945312 316.691406 519.347656 L 313.15625 522.230469 L 297.597656 522.511719 L 281.953125 522.882812 L 281.394531 512.269531 C 280.554688 498.667969 280.554688 485.90625 281.394531 485.171875 C 281.675781 484.796875 288.101562 484.515625 295.554688 484.515625 C 307.839844 484.515625 309.613281 484.703125 313.800781 486.746094 Z M 313.800781 486.746094 " fill-opacity="1" fill-rule="nonzero"/><path fill="#0a290e" d="M 377.527344 497.734375 C 377.15625 516.269531 376.875 544.953125 376.875 561.527344 L 376.875 591.613281 L 450.453125 591.613281 L 450.453125 572.238281 L 427.171875 571.957031 C 407.703125 571.6875 403.703125 571.40625 402.957031 570.195312 C 401.929688 568.703125 401.652344 540.578125 402.582031 538.152344 C 403.050781 536.847656 405.839844 536.671875 424 536.671875 L 444.859375 536.671875 L 444.859375 517.109375 L 424.46875 517.109375 C 408.265625 517.109375 403.890625 516.828125 403.050781 515.804688 C 402.304688 514.964844 402.023438 509.75 402.210938 499.320312 L 402.488281 484.050781 L 426.332031 483.769531 L 450.175781 483.585938 L 450.632812 479.015625 C 450.910156 476.503906 450.910156 472.128906 450.632812 469.238281 L 450.269531 464.023438 L 378.089844 464.023438 Z M 377.527344 497.734375 " fill-opacity="1" fill-rule="nonzero"/><path fill="#0a290e" d="M 478.128906 527.816406 L 478.128906 591.613281 L 550.769531 591.613281 L 550.769531 572.050781 L 526.832031 571.863281 L 502.8125 571.59375 L 502.8125 537.128906 L 524.042969 536.847656 L 545.179688 536.671875 L 545.179688 517.109375 L 524.042969 516.921875 L 502.8125 516.644531 L 502.53125 502.203125 C 502.441406 494.292969 502.53125 486.839844 502.8125 485.628906 L 503.277344 483.585938 L 550.769531 483.585938 L 550.769531 464.023438 L 478.128906 464.023438 Z M 478.128906 527.816406 " fill-opacity="1" fill-rule="nonzero"/><path fill="#0a290e" d="M 578.425781 527.816406 L 578.425781 591.613281 L 590.53125 591.613281 C 599.5625 591.613281 602.640625 591.339844 602.640625 590.410156 C 602.453125 559.953125 603.015625 504.816406 603.574219 504.535156 C 603.9375 504.347656 617.257812 523.816406 633.367188 547.84375 L 662.421875 591.613281 L 687.386719 591.613281 L 687.386719 463.929688 L 675.089844 464.210938 L 662.703125 464.488281 L 662.421875 507.988281 C 662.332031 532.015625 661.875 551.566406 661.5 551.566406 C 661.128906 551.566406 656.929688 545.511719 652.179688 538.253906 C 647.433594 530.988281 634.394531 511.335938 623.3125 494.574219 L 603.105469 464.023438 L 578.425781 464.023438 Z M 578.425781 527.816406 " fill-opacity="1" fill-rule="nonzero"/><path fill="#0a290e" d="M 266.085938 618.578125 C 255.003906 621.929688 245.3125 627.703125 237.683594 635.621094 C 232.097656 641.300781 230.230469 644.089844 226.777344 652.011719 C 217.84375 672.214844 219.707031 695.683594 231.628906 713.566406 C 251.648438 743.460938 297.28125 748.769531 324.386719 724.285156 C 329.789062 719.339844 339.191406 706.589844 339.191406 704.164062 C 339.191406 703.605469 340.03125 701.644531 340.960938 699.789062 C 343.84375 694.480469 345.246094 680.132812 343.9375 669.613281 C 341.988281 654.34375 337.136719 644.652344 325.964844 633.664062 C 318.519531 626.300781 310.878906 621.929688 299.238281 618.484375 C 292.71875 616.527344 272.699219 616.621094 266.085938 618.578125 Z M 300.265625 642.046875 C 310.785156 647.730469 316.5625 656.011719 319.265625 669.332031 C 320.75 676.414062 320.75 678.363281 319.816406 684.230469 C 317.214844 699.601562 312.652344 707.511719 303.054688 713.753906 C 290.300781 721.953125 270.742188 720.925781 259.007812 711.335938 C 251.367188 705.097656 247.367188 696.988281 246.058594 685.164062 C 243.550781 663 252.113281 646.703125 269.621094 640.183594 C 273.625 638.691406 276.234375 638.410156 284.707031 638.785156 C 294.023438 639.0625 295.421875 639.4375 300.265625 642.046875 Z M 300.265625 642.046875 " fill-opacity="1" fill-rule="nonzero"/><path fill="#0a290e" d="M 406.484375 618.578125 C 396.519531 621.648438 391.957031 623.980469 384.414062 629.753906 C 376.960938 635.433594 372.117188 641.394531 367.742188 650.339844 C 355.636719 675.011719 360.195312 702.585938 379.386719 721.765625 C 388.320312 730.710938 396.054688 734.992188 408.347656 738.0625 C 424.832031 742.164062 443.644531 738.992188 457.890625 729.777344 C 464.128906 725.777344 472.796875 716.644531 476.421875 710.402344 C 485.460938 695.039062 487.320312 673.808594 480.984375 656.480469 C 474 637.113281 456.582031 622.300781 436.003906 618.300781 C 427.164062 616.621094 412.535156 616.714844 406.484375 618.578125 Z M 433.488281 638.792969 C 439.914062 640.460938 443.085938 642.234375 448.671875 647.261719 C 458.542969 656.113281 463.011719 672.039062 460.128906 687.402344 C 458.261719 697 455.472656 702.679688 449.324219 708.734375 C 441.40625 716.644531 435.820312 718.882812 423.246094 718.882812 C 411.605469 718.976562 405.550781 716.832031 398.011719 709.84375 C 384.972656 697.921875 381.707031 673.894531 390.839844 656.570312 C 392.976562 652.476562 399.777344 644.929688 401.363281 644.929688 C 401.828125 644.929688 402.292969 644.566406 402.292969 644.195312 C 402.292969 643.261719 411.042969 639.34375 413.28125 639.34375 C 414.121094 639.34375 415.519531 638.886719 416.257812 638.417969 C 418.308594 637.113281 428.085938 637.300781 433.488281 638.792969 Z M 433.488281 638.792969 " fill-opacity="1" fill-rule="nonzero"/><path fill="#0a290e" d="M 640.34375 617.554688 C 625.726562 620.433594 614.550781 628.542969 610.550781 639.0625 C 608.871094 643.53125 608.59375 645.957031 608.871094 653.308594 C 609.152344 660.945312 609.523438 662.8125 611.753906 666.535156 C 617.25 676.039062 624.703125 680.320312 646.769531 686.839844 C 662.515625 691.496094 668.199219 695.21875 670.054688 702.019531 C 673.691406 714.777344 659.8125 724.648438 644.820312 720.179688 C 640.71875 718.96875 635.128906 713.285156 634.195312 709.472656 C 633.832031 707.976562 633.273438 706.394531 632.808594 705.925781 C 632.246094 705.097656 624.609375 704.910156 610.738281 705.367188 L 607.566406 705.460938 L 608.21875 709.378906 C 611.472656 728.460938 631.5 741.222656 655.625 739.648438 C 673.878906 738.339844 685.148438 731.820312 691.667969 718.6875 C 694.457031 713.007812 694.734375 711.699219 694.734375 704.070312 C 694.640625 693.910156 692.871094 689.164062 686.535156 683.015625 C 681.042969 677.617188 674.066406 674.265625 656.835938 668.679688 C 638.023438 662.625 632.902344 658.707031 632.902344 650.050781 C 632.902344 639.53125 643.421875 633.289062 655.53125 636.636719 C 660.089844 637.851562 665.867188 643.160156 666.984375 646.984375 L 667.917969 650.050781 L 680.761719 650.332031 L 693.617188 650.613281 L 692.964844 646.609375 C 692.132812 641.386719 688.867188 634.128906 685.519531 630.210938 C 681.882812 625.835938 673.785156 620.902344 667.542969 619.222656 C 662.238281 617.832031 644.726562 616.714844 640.34375 617.554688 Z M 640.34375 617.554688 " fill-opacity="1" fill-rule="nonzero"/><path fill="#0a290e" d="M 112.78125 677.007812 C 112.6875 709.050781 112.59375 736.054688 112.59375 736.894531 C 112.503906 738.378906 113.714844 738.566406 123.863281 738.84375 L 135.316406 739.125 L 135.503906 715.5625 L 135.785156 692 L 148.359375 692 L 161.667969 715.28125 L 174.898438 738.566406 L 187.378906 738.84375 C 194.269531 738.9375 200.136719 738.75 200.511719 738.378906 C 200.882812 738.015625 194.925781 727.203125 187.378906 714.546875 C 179.738281 701.785156 173.496094 691.074219 173.496094 690.703125 C 173.496094 690.328125 176.296875 688.746094 179.832031 687.066406 C 189.988281 682.316406 195.203125 676.636719 198.550781 666.582031 C 202.835938 653.914062 199.765625 639.566406 190.820312 630.628906 C 186.445312 626.257812 183.46875 624.484375 175.363281 621.414062 C 170.617188 619.640625 167.910156 619.457031 141.652344 619.082031 L 112.96875 618.710938 Z M 164.375 638.457031 C 172.292969 640.6875 176.667969 646.925781 176.667969 656.152344 C 176.667969 664.0625 173.777344 668.902344 167.257812 672.074219 C 163.535156 673.847656 160.921875 674.3125 151.425781 674.585938 C 145.1875 674.863281 138.945312 674.769531 137.640625 674.398438 L 135.316406 673.847656 L 135.316406 656.246094 C 135.316406 646.648438 135.597656 638.457031 135.972656 638.175781 C 136.902344 637.152344 160.558594 637.429688 164.375 638.457031 Z M 164.375 638.457031 " fill-opacity="1" fill-rule="nonzero"/><path fill="#0a290e" d="M 501.730469 627.75 L 501.730469 636.589844 L 517.382812 636.777344 L 532.933594 637.058594 L 533.867188 738.566406 L 545.320312 738.84375 L 556.683594 739.125 L 556.683594 688.929688 C 556.683594 651.207031 556.960938 638.550781 557.800781 637.710938 C 558.546875 636.964844 563.574219 636.589844 574.097656 636.589844 L 589.273438 636.589844 L 589.273438 618.894531 L 501.730469 618.894531 Z M 501.730469 627.75 " fill-opacity="1" fill-rule="nonzero"/></svg>