<svg xmlns="http://www.w3.org/2000/svg" version="1.0" width="1068.000000pt" height="526.000000pt" viewBox="0 0 1068.000000 526.000000" preserveAspectRatio="xMidYMid meet">

<g transform="translate(0.000000,526.000000) scale(0.100000,-0.100000)" fill="#0a290e" stroke="none">
<path d="M2058 4799 l-37 -44 -23 27 c-21 24 -57 48 -74 48 -3 0 -4 -25 -2 -55 3 -40 1 -59 -9 -67 -16 -13 -33 3 -33 31 0 11 -3 11 -15 1 -8 -7 -15 -18 -15 -25 0 -8 -16 -19 -36 -25 l-36 -12 58 -24 c75 -30 128 -74 132 -108 2 -18 -1 -26 -12 -26 -8 0 -16 5 -18 11 -2 6 -21 12 -42 14 -21 2 -51 8 -65 14 -14 5 -50 12 -78 15 -48 5 -53 3 -53 -15 0 -11 23 -43 51 -71 l52 -52 -22 -17 c-24 -19 -117 -35 -154 -25 -13 3 -36 15 -50 27 -23 17 -27 28 -27 70 0 61 -21 104 -60 124 -16 8 -31 15 -35 15 -11 0 -4 -92 10 -125 7 -19 29 -44 47 -55 39 -23 64 -69 71 -129 5 -38 2 -50 -19 -74 -20 -23 -22 -32 -12 -38 21 -14 117 -10 148 6 28 14 28 14 44 -25 26 -65 23 -70 -40 -70 -55 0 -56 -1 -51 -26 3 -16 0 -28 -9 -31 -25 -9 -80 17 -97 47 -10 16 -26 34 -36 40 -12 6 -21 26 -26 56 -5 39 -3 52 14 75 12 16 21 32 21 37 0 4 -18 26 -40 47 -34 33 -40 45 -40 81 0 36 -5 45 -34 68 -25 19 -33 31 -30 48 l5 23 -12 -22 c-9 -18 -22 -23 -53 -25 l-41 -1 40 -4 c22 -3 55 -16 73 -30 27 -20 33 -31 30 -56 -3 -27 -7 -32 -28 -30 -35 2 -125 -24 -139 -41 -32 -38 118 -65 168 -30 18 13 28 14 47 5 29 -13 31 -42 4 -66 -13 -12 -20 -31 -20 -55 0 -36 -1 -38 -41 -43 -22 -3 -43 -8 -46 -10 -16 -16 21 -63 101 -129 25 -21 27 -27 17 -46 -13 -25 -60 -52 -90 -52 -17 0 -25 17 -51 99 -16 54 -30 106 -30 115 0 10 -4 14 -10 11 -6 -3 -10 4 -10 16 0 12 -3 19 -6 16 -4 -4 -1 -34 5 -68 7 -33 10 -63 7 -66 -2 -3 -30 16 -61 41 -79 64 -89 58 -22 -13 31 -32 59 -71 63 -86 11 -44 -28 -68 -89 -52 -29 8 -57 55 -57 97 0 34 -29 79 -63 100 -48 30 -57 26 -57 -23 l0 -42 -57 -1 c-55 0 -123 -24 -123 -42 0 -4 13 -15 29 -25 33 -19 86 -22 127 -7 32 13 33 12 41 -33 5 -34 3 -36 -38 -57 -24 -13 -46 -24 -48 -26 -2 -1 6 -15 18 -30 36 -45 25 -105 -27 -151 -19 -17 -37 -23 -74 -23 -68 0 -88 13 -88 55 0 18 -4 45 -10 59 -9 25 -65 67 -107 80 -20 6 -23 4 -23 -19 0 -35 16 -65 48 -92 31 -26 26 -33 -40 -58 -27 -10 -48 -22 -48 -27 0 -4 9 -34 20 -65 28 -81 27 -93 -13 -93 -32 0 -77 -23 -77 -39 0 -7 49 -31 93 -45 13 -4 17 -16 17 -51 0 -41 2 -45 24 -45 36 0 84 -20 90 -37 9 -23 -21 -51 -68 -65 -54 -15 -63 -24 -32 -32 28 -7 35 -30 11 -40 -20 -7 -19 -47 2 -91 17 -36 17 -37 -4 -53 -27 -21 -43 -62 -43 -111 0 -48 6 -53 40 -36 30 15 60 69 60 107 0 32 10 44 43 52 32 8 34 17 7 41 -23 21 -27 63 -5 71 8 3 46 -4 85 -16 39 -12 74 -20 77 -17 9 10 -8 27 -48 48 -51 26 -48 42 15 88 40 28 51 32 65 23 9 -7 30 -21 46 -32 l30 -20 3 51 c4 58 17 68 68 50 24 -9 39 -9 54 -1 17 9 26 6 54 -15 45 -34 56 -32 56 13 0 21 3 42 6 45 11 11 44 -13 64 -46 36 -59 21 -124 -38 -164 -26 -17 -39 -20 -58 -12 -14 5 -46 9 -72 9 -37 0 -53 -6 -75 -26 -15 -14 -27 -29 -25 -32 2 -4 10 -19 17 -34 18 -34 7 -75 -22 -83 -12 -4 -33 -18 -47 -30 -14 -13 -36 -26 -50 -30 -14 -3 -36 -14 -49 -24 l-24 -19 31 -16 c62 -32 170 -5 165 41 -2 19 4 23 43 29 57 8 80 -9 65 -47 -5 -14 -10 -43 -11 -64 -6 -96 3 -104 62 -55 38 32 58 78 58 136 0 18 9 42 19 55 l20 24 36 -42 c38 -45 73 -63 85 -43 13 21 0 123 -21 156 -13 22 -18 41 -13 58 7 31 5 31 49 6 84 -47 89 -4 13 102 -15 20 -12 24 24 33 20 5 29 3 32 -6 2 -8 9 -34 16 -58 6 -24 27 -59 45 -78 29 -30 32 -39 24 -60 -14 -36 -11 -51 11 -70 13 -11 20 -30 20 -51 0 -47 27 -100 61 -117 15 -8 30 -15 34 -15 15 0 3 96 -17 131 -17 30 -19 42 -10 51 7 7 12 20 12 30 0 10 4 18 9 18 16 0 68 -67 97 -126 l29 -59 0 -291 c0 -223 -3 -297 -13 -315 -8 -13 -38 -44 -68 -68 -46 -39 -66 -47 -141 -63 -49 -10 -153 -23 -233 -28 -194 -12 -260 -25 -355 -71 -87 -42 -82 -51 9 -19 70 24 165 36 396 50 96 6 192 14 213 17 44 7 47 -5 13 -57 l-23 -35 -209 0 c-195 0 -212 -1 -249 -22 -22 -11 -51 -34 -65 -49 l-25 -28 33 27 c45 36 62 35 63 -5 2 -33 2 -33 6 -4 10 68 45 76 261 63 102 -7 132 -12 132 -23 0 -23 -43 -43 -126 -58 -107 -18 -136 -35 -183 -105 -41 -60 -56 -71 -96 -71 -13 0 -27 -5 -31 -12 -4 -7 -3 -8 4 -4 7 4 12 1 12 -7 0 -8 -26 -28 -57 -45 -32 -17 -69 -41 -82 -53 -26 -24 -51 -78 -50 -106 0 -11 5 -6 11 12 15 42 65 93 121 121 51 27 55 25 31 -11 -10 -15 -14 -36 -11 -52 4 -21 -2 -34 -29 -60 -20 -19 -34 -42 -34 -55 1 -20 3 -19 14 8 13 29 50 64 69 64 4 0 17 -19 27 -42 19 -41 20 -42 20 -14 0 17 -12 47 -26 67 -33 49 -27 69 40 119 29 22 67 62 85 90 49 76 91 103 166 108 l62 4 12 -32 c6 -18 11 -54 11 -80 0 -54 -23 -81 -107 -125 -70 -36 -112 -80 -119 -126 -7 -45 -11 -49 -54 -79 -73 -49 -94 -80 -104 -155 -4 -27 -9 -59 -12 -70 -4 -16 -3 -17 5 -5 6 8 11 25 11 37 0 34 31 22 53 -21 11 -20 21 -35 24 -33 6 7 -23 68 -48 98 -18 23 -19 30 -9 50 16 28 35 48 82 83 l37 27 11 -22 c7 -12 15 -58 18 -103 5 -70 7 -76 14 -46 4 19 7 71 6 115 -1 114 8 150 48 183 18 15 50 34 71 41 111 39 138 79 130 192 -6 91 0 103 70 146 27 17 87 70 135 118 48 49 91 86 94 82 18 -18 3 -100 -26 -142 -23 -33 -30 -55 -30 -91 0 -36 -6 -54 -22 -72 -19 -20 -24 -39 -28 -113 l-6 -89 -44 -39 c-32 -28 -47 -50 -54 -82 l-11 -44 -60 -6 c-91 -9 -182 -56 -157 -81 7 -7 12 -28 13 -48 l1 -35 9 38 c18 78 61 111 138 105 l42 -3 -39 -55 c-61 -86 -86 -152 -77 -203 10 -52 12 -174 4 -247 -4 -30 -4 -44 -2 -30 3 14 10 28 16 32 8 5 12 47 12 123 0 127 -1 125 65 99 50 -20 76 -65 86 -152 9 -84 28 -69 21 17 -7 95 -20 117 -92 151 -34 16 -68 37 -75 45 -18 21 -1 57 70 151 33 44 63 95 69 120 7 29 23 53 49 76 47 40 57 59 67 123 6 44 8 47 16 26 29 -76 41 -168 34 -251 -11 -116 -10 -143 4 -235 15 -101 3 -212 -32 -287 -30 -65 -50 -174 -45 -248 4 -50 4 -48 6 20 2 53 5 71 12 60 7 -12 10 -8 10 15 l1 30 11 -25 c10 -22 12 -15 18 55 4 44 12 90 18 102 11 21 31 98 37 141 4 37 12 36 25 -2 16 -50 15 -122 -4 -261 -17 -121 -14 -279 5 -291 5 -3 9 6 9 20 0 16 6 26 15 26 8 0 15 -6 15 -14 0 -8 7 -16 15 -20 11 -4 8 9 -11 47 -34 67 -41 149 -20 247 26 120 21 216 -16 339 -30 101 -31 114 -32 291 -1 102 -5 214 -10 250 -7 55 -4 82 17 170 14 58 28 121 32 141 3 21 12 42 19 48 24 20 81 -41 126 -135 22 -46 69 -121 105 -166 36 -45 65 -90 65 -99 0 -22 -24 -41 -97 -78 -34 -17 -65 -35 -68 -42 -4 -6 -11 -41 -16 -77 -21 -145 -21 -186 -6 -237 12 -40 16 -44 16 -22 1 16 -4 37 -9 48 -11 19 3 137 20 168 8 15 68 -73 86 -129 12 -34 12 -34 13 -7 1 30 -15 68 -54 132 -37 59 -33 89 14 121 22 14 57 28 79 31 38 5 41 3 58 -28 23 -44 32 -229 14 -297 -35 -134 -53 -172 -111 -239 -33 -36 -59 -73 -58 -82 0 -14 1 -14 6 -1 9 24 35 50 50 50 10 0 13 -22 15 -87 0 -49 3 -73 5 -55 2 18 10 32 17 32 20 0 112 -71 130 -100 8 -14 16 -19 16 -11 0 13 -30 44 -119 122 -47 41 -51 67 -21 119 11 19 35 64 52 100 31 64 32 64 39 35 5 -22 7 -24 8 -8 2 31 12 53 25 53 16 0 105 -89 123 -123 10 -21 14 -49 11 -92 -3 -46 0 -62 9 -62 7 0 13 6 13 14 0 7 5 13 10 13 7 0 7 6 0 19 -5 11 -10 28 -10 38 0 49 -25 96 -86 164 -37 41 -70 84 -75 97 -5 13 -6 87 -3 166 6 122 4 150 -11 196 -26 79 -58 138 -106 195 -53 63 -89 139 -89 188 0 35 2 37 20 27 11 -6 45 -47 76 -91 70 -100 102 -132 187 -186 47 -31 67 -50 67 -65 0 -17 3 -18 14 -9 11 9 20 9 35 2 56 -30 65 -100 27 -194 -22 -52 -22 -57 -6 -52 13 4 19 -2 24 -26 11 -55 7 -92 -13 -113 -10 -12 -22 -32 -26 -46 l-7 -25 21 28 c13 15 29 27 36 27 13 0 38 -69 49 -135 6 -38 -3 67 -11 118 -5 33 -3 37 18 37 12 0 31 -8 42 -17 19 -17 20 -17 8 4 -7 13 -28 27 -51 33 -43 12 -45 15 -54 111 -4 38 -1 71 9 99 8 23 15 61 15 83 0 34 -6 46 -42 79 -24 22 -78 60 -120 85 -100 60 -134 94 -185 187 -44 77 -50 96 -34 96 24 0 281 -130 290 -147 5 -11 13 -44 17 -74 7 -52 8 -53 16 -23 14 54 58 56 58 3 0 -34 22 -81 81 -171 40 -62 41 -65 36 -135 -2 -40 -1 -70 3 -68 4 3 25 -7 46 -20 l39 -25 -38 34 c-37 33 -38 36 -32 79 8 52 -6 105 -39 145 -58 71 -96 172 -64 172 13 0 190 -118 230 -154 26 -23 36 -77 46 -234 5 -84 13 -147 20 -154 9 -9 9 -4 2 23 -12 40 -14 229 -2 229 4 0 17 -15 28 -33 14 -21 42 -41 83 -59 33 -14 61 -23 61 -19 0 4 -30 26 -66 50 -72 47 -98 88 -92 145 3 30 4 31 51 30 32 0 56 -7 77 -22 21 -16 30 -19 30 -9 0 29 -40 51 -103 55 -56 4 -66 8 -99 42 -20 21 -90 70 -155 108 -65 39 -138 92 -163 117 -50 52 -84 72 -180 105 -36 12 -72 28 -80 36 -12 12 -8 14 30 14 53 0 254 -40 325 -65 28 -9 73 -19 100 -22 40 -5 55 -12 77 -38 14 -17 46 -39 70 -49 83 -34 104 -47 121 -74 13 -22 17 -23 17 -8 0 13 5 16 18 11 36 -15 106 -35 121 -34 9 0 -12 9 -47 19 -82 23 -95 35 -63 61 l24 20 -40 -7 c-26 -4 -61 0 -98 11 -58 16 -111 57 -100 75 3 6 36 10 73 10 83 0 172 13 280 42 79 20 85 20 112 5 28 -17 28 -17 26 8 -1 22 -6 25 -36 25 -19 0 -64 -9 -98 -20 -137 -43 -414 -34 -536 17 -32 13 -90 28 -130 33 -39 4 -84 13 -101 19 -16 7 -88 15 -161 18 l-132 6 -55 46 c-30 25 -62 60 -71 76 -23 45 -36 178 -36 371 l0 172 66 60 c63 58 119 90 299 172 39 18 81 42 95 55 28 26 135 54 150 39 22 -22 21 -60 -2 -94 -20 -30 -30 -35 -67 -38 -35 -3 -100 -32 -130 -59 -3 -2 5 -10 17 -19 18 -12 22 -25 22 -70 0 -37 4 -54 13 -54 20 1 54 33 72 70 19 39 52 70 75 70 8 0 22 -15 31 -33 14 -29 70 -77 90 -77 5 0 9 36 9 80 0 49 4 80 10 80 6 0 36 -16 66 -35 30 -19 57 -35 60 -35 4 0 4 23 2 50 -5 48 -3 52 23 65 43 23 56 18 80 -24 18 -32 53 -61 74 -61 3 0 5 23 5 51 0 35 -7 63 -21 85 -17 27 -18 37 -8 55 7 13 9 40 5 65 -3 24 -4 44 -2 44 1 0 18 -7 36 -16 27 -14 34 -14 41 -3 8 12 11 12 22 -1 18 -22 64 -50 71 -43 11 11 6 73 -9 108 -14 34 -13 36 16 70 17 19 37 35 45 35 7 0 22 -17 33 -38 26 -51 45 -65 77 -59 22 4 34 -3 64 -34 50 -53 60 -50 60 16 0 51 2 55 33 71 17 9 34 18 36 20 10 9 -25 35 -60 44 -36 10 -39 14 -39 45 0 45 -16 53 -34 17 -21 -41 -50 -46 -86 -16 -31 26 -58 91 -44 104 5 4 26 13 47 20 20 6 37 16 37 21 0 5 -18 18 -39 29 -49 25 -54 32 -41 65 10 27 10 27 -22 21 -31 -5 -35 -3 -65 42 -38 54 -38 59 -18 98 19 36 20 114 2 114 -7 0 -28 -12 -46 -27 -24 -21 -34 -39 -38 -71 -5 -34 -11 -46 -30 -53 -14 -5 -29 -7 -33 -4 -5 3 -7 42 -3 85 7 93 1 98 -64 51 -43 -31 -63 -79 -63 -150 0 -36 -4 -44 -32 -61 -18 -11 -37 -20 -41 -20 -16 0 -19 32 -4 63 8 17 17 56 19 85 5 54 5 54 -21 49 -45 -9 -57 5 -42 52 11 40 50 74 104 94 27 10 20 22 -23 42 -22 10 -40 22 -40 27 0 4 16 16 36 25 28 14 39 15 54 5 11 -7 33 -12 50 -12 34 0 110 28 110 40 0 5 -12 18 -26 29 -30 24 -72 27 -121 9 -28 -10 -38 -10 -61 4 -49 30 -38 68 26 95 41 17 37 37 -7 41 -33 3 -33 4 -28 42 6 49 2 53 -35 34 -20 -10 -37 -32 -50 -65 -26 -61 -48 -65 -48 -9 0 46 -13 51 -53 20 -30 -24 -47 -74 -47 -140 0 -34 -6 -52 -25 -73 -31 -33 -37 -33 -76 -5 l-30 23 -36 -43 c-42 -51 -103 -84 -146 -80 -36 3 -49 36 -22 58 8 7 15 21 15 31 0 21 -15 20 -93 -7 -45 -16 -50 -10 -45 62 2 36 7 49 18 49 9 0 16 -11 18 -27 2 -16 8 -28 14 -28 22 0 78 51 94 85 14 29 22 35 48 35 29 0 33 4 44 45 12 44 21 51 62 45 8 -1 25 -11 37 -22 29 -27 43 -16 43 33 0 36 -2 39 -27 39 -16 0 -38 3 -51 6 -21 6 -22 10 -16 51 6 43 6 45 -14 34 -31 -16 -72 -14 -79 5 -10 26 10 48 60 64 69 22 76 35 36 59 -38 24 -58 25 -112 10 -33 -9 -41 -7 -72 16 -39 30 -51 27 -60 -15 -4 -16 -11 -32 -16 -36 -12 -7 -109 15 -109 24 0 4 9 21 20 37 21 32 27 85 10 85 -6 0 -29 -9 -51 -21 -38 -19 -42 -19 -59 -4 -11 10 -20 26 -22 38 -3 17 -8 14 -40 -24z m362 -1377 l0 -48 53 1 c49 0 52 -1 52 -25 0 -19 -9 -29 -41 -45 -45 -21 -84 -53 -84 -67 0 -4 14 -8 30 -8 30 0 30 0 15 -29 -22 -43 -205 -126 -205 -93 0 23 24 62 38 62 11 0 13 14 11 63 -2 35 2 71 9 84 16 29 17 27 -25 66 -23 23 -34 40 -30 50 8 21 58 35 125 36 l52 1 0 -48z m-430 -65 c48 -24 60 -46 36 -70 -20 -20 -10 -27 37 -27 l39 0 -7 -37 c-8 -44 -28 -89 -68 -156 -25 -41 -31 -46 -45 -35 -25 21 -142 180 -142 193 0 7 9 23 19 37 11 13 22 42 26 64 13 75 13 75 105 31z m-232 -101 c3 -55 4 -58 27 -52 19 5 28 -1 46 -26 18 -25 132 -170 155 -197 7 -8 36 24 62 70 18 33 34 49 47 49 30 0 81 35 101 69 42 71 46 11 5 -70 l-29 -57 67 23 c36 12 94 35 128 50 52 23 66 25 78 15 16 -13 18 -12 97 63 27 25 37 14 28 -33 -9 -52 -21 -64 -89 -96 -248 -116 -314 -155 -370 -220 l-33 -38 4 -255 c5 -286 9 -304 74 -363 22 -21 34 -40 30 -46 -5 -9 -62 -12 -192 -12 -206 0 -213 3 -148 62 20 18 42 47 49 65 13 30 18 33 62 35 l48 2 -47 3 c-38 3 -48 8 -48 22 0 10 10 23 23 29 l22 11 -22 0 c-34 1 -29 31 5 32 l27 1 -25 7 c-22 6 -25 13 -28 65 -3 52 -1 58 19 63 l23 6 -22 8 c-19 7 -22 16 -22 68 0 58 1 61 28 67 47 10 48 12 10 13 -42 1 -56 30 -15 32 l22 2 -22 4 c-20 4 -23 10 -23 58 0 48 3 54 23 58 19 4 19 4 -5 6 -22 1 -29 9 -44 47 -15 39 -15 47 -3 55 11 7 10 9 -6 9 -21 0 -31 9 -79 75 -16 22 -49 61 -73 86 -41 43 -62 90 -63 142 0 19 57 59 80 55 11 -2 16 -19 18 -62z" fill="#0a290e"/>
<path d="M4620 4063 c-48 -8 -181 -55 -223 -79 -158 -89 -271 -238 -319 -418 -23 -89 -25 -285 -3 -371 62 -243 249 -427 500 -490 97 -24 278 -22 367 4 194 56 354 187 432 352 41 88 56 161 56 270 l0 109 -370 0 -370 0 0 -95 0 -95 229 0 c152 0 232 -4 236 -11 11 -17 -33 -121 -73 -174 -42 -56 -116 -109 -177 -128 -22 -6 -92 -12 -155 -12 -103 0 -121 3 -170 26 -172 81 -250 216 -251 431 -1 211 102 368 281 428 91 31 230 25 310 -14 56 -26 112 -72 141 -114 16 -22 20 -22 168 -20 l151 3 -35 74 c-74 153 -248 282 -428 316 -72 14 -237 18 -297 8z" fill="#0a290e"/>
<path d="M5648 4054 c-5 -4 -8 -313 -8 -686 l0 -678 135 0 135 0 0 264 c0 231 2 265 16 270 22 8 97 7 110 -2 10 -6 88 -139 172 -292 13 -25 40 -70 58 -101 19 -31 34 -62 34 -68 0 -6 3 -11 8 -11 4 0 13 -13 20 -30 l14 -30 154 0 c88 0 154 4 154 9 0 8 -20 43 -80 141 -54 88 -130 221 -130 229 0 5 -3 11 -8 13 -10 4 -78 120 -87 147 -5 15 -1 23 12 27 80 27 113 46 165 96 76 74 110 146 116 249 13 221 -107 380 -327 437 -62 15 -650 30 -663 16z m607 -238 c58 -27 88 -57 104 -105 29 -87 -1 -187 -73 -245 l-38 -31 -167 -3 -168 -4 -6 114 c-9 146 -9 283 0 291 3 4 72 7 152 7 132 0 151 -2 196 -24z" fill="#0a290e"/>
<path d="M6907 3698 c-4 -199 -7 -507 -7 -685 l0 -323 395 0 395 0 0 104 0 104 -250 3 c-209 3 -252 6 -260 19 -11 16 -14 318 -4 344 5 14 35 16 230 16 l224 0 0 105 0 105 -219 0 c-174 0 -221 3 -230 14 -8 9 -11 65 -9 177 l3 164 256 3 256 2 5 49 c3 27 3 74 0 105 l-4 56 -388 0 -387 0 -6 -362z" fill="#0a290e"/>
<path d="M7960 3375 l0 -685 390 0 390 0 0 105 0 105 -257 2 -258 3 0 185 0 185 228 3 227 2 0 105 0 105 -227 2 -228 3 -3 155 c-1 85 0 165 3 178 l5 22 255 0 255 0 0 105 0 105 -390 0 -390 0 0 -685z" fill="#0a290e"/>
<path d="M9010 3375 l0 -685 130 0 c97 0 130 3 130 13 -2 327 4 919 10 922 4 2 147 -207 320 -465 l312 -470 134 0 134 0 0 685 0 686 -132 -3 -133 -3 -3 -467 c-1 -258 -6 -468 -10 -468 -4 0 -49 65 -100 143 -51 78 -191 289 -310 469 l-217 328 -132 0 -133 0 0 -685z" fill="#0a290e"/>
<path d="M5675 2493 c-119 -36 -223 -98 -305 -183 -60 -61 -80 -91 -117 -176 -96 -217 -76 -469 52 -661 215 -321 705 -378 996 -115 58 53 159 190 159 216 0 6 9 27 19 47 31 57 46 211 32 324 -21 164 -73 268 -193 386 -80 79 -162 126 -287 163 -70 21 -285 20 -356 -1z m367 -252 c113 -61 175 -150 204 -293 16 -76 16 -97 6 -160 -28 -165 -77 -250 -180 -317 -137 -88 -347 -77 -473 26 -82 67 -125 154 -139 281 -27 238 65 413 253 483 43 16 71 19 162 15 100 -3 115 -7 167 -35z" fill="#0a290e"/>
<path d="M7145 2493 c-107 -33 -156 -58 -237 -120 -80 -61 -132 -125 -179 -221 -130 -265 -81 -561 125 -767 96 -96 179 -142 311 -175 177 -44 379 -10 532 89 67 43 160 141 199 208 97 165 117 393 49 579 -75 208 -262 367 -483 410 -95 18 -252 17 -317 -3z m290 -217 c69 -18 103 -37 163 -91 106 -95 154 -266 123 -431 -20 -103 -50 -164 -116 -229 -85 -85 -145 -109 -280 -109 -125 -1 -190 22 -271 97 -140 128 -175 386 -77 572 23 44 96 125 113 125 5 0 10 4 10 8 0 10 94 52 118 52 9 0 24 5 32 10 22 14 127 12 185 -4z" fill="#0a290e"/>
<path d="M9590 2504 c-157 -31 -277 -118 -320 -231 -18 -48 -21 -74 -18 -153 3 -82 7 -102 31 -142 59 -102 139 -148 376 -218 169 -50 230 -90 250 -163 39 -137 -110 -243 -271 -195 -44 13 -104 74 -114 115 -4 16 -10 33 -15 38 -6 9 -88 11 -237 6 l-34 -1 7 -42 c35 -205 250 -342 509 -325 196 14 317 84 387 225 30 61 33 75 33 157 -1 109 -20 160 -88 226 -59 58 -134 94 -319 154 -202 65 -257 107 -257 200 0 113 113 180 243 144 49 -13 111 -70 123 -111 l10 -33 138 -3 138 -3 -7 43 c-9 56 -44 134 -80 176 -39 47 -126 100 -193 118 -57 15 -245 27 -292 18z" fill="#0a290e"/>
<path d="M4058 1866 c-1 -344 -2 -634 -2 -643 -1 -16 12 -18 121 -21 l123 -3 2 253 3 253 68 0 67 0 143 -250 142 -250 134 -3 c74 -1 137 1 141 5 4 4 -60 120 -141 256 -82 137 -149 252 -149 256 0 4 30 21 68 39 109 51 165 112 201 220 46 136 13 290 -83 386 -47 47 -79 66 -166 99 -51 19 -80 21 -362 25 l-308 4 -2 -626z m554 414 c85 -24 132 -91 132 -190 0 -85 -31 -137 -101 -171 -40 -19 -68 -24 -170 -27 -67 -3 -134 -2 -148 2 l-25 6 0 189 c0 103 3 191 7 194 10 11 264 8 305 -3z" fill="#0a290e"/>
<path d="M8130 2395 l0 -95 168 -2 167 -3 5 -545 5 -545 123 -3 122 -3 0 539 c0 405 3 541 12 550 8 8 62 12 175 12 l163 0 0 95 0 95 -470 0 -470 0 0 -95z" fill="#0a290e"/>
<path d="M3548 2063 c6 -2 18 -2 25 0 6 3 1 5 -13 5 -14 0 -19 -2 -12 -5z" fill="#0a290e"/>
<path d="M891 2010 c24 -20 24 -20 5 -35 -11 -8 -16 -15 -10 -15 5 0 18 7 28 15 11 8 29 15 40 16 13 0 8 5 -14 11 -19 5 -39 14 -44 19 -6 5 -14 9 -19 9 -5 0 1 -9 14 -20z" fill="#0a290e"/>
<path d="M670 1980 c0 -5 5 -10 11 -10 5 0 7 5 4 10 -3 6 -8 10 -11 10 -2 0 -4 -4 -4 -10z" fill="#0a290e"/>
<path d="M1206 1833 c-6 -14 -5 -15 5 -6 7 7 10 15 7 18 -3 3 -9 -2 -12 -12z" fill="#0a290e"/>
<path d="M980 1714 c-41 -18 -65 -38 -93 -79 l-20 -30 29 28 c36 33 42 33 54 5 9 -22 9 -22 9 -2 1 31 38 72 74 83 28 8 29 9 7 10 -14 0 -41 -7 -60 -15z" fill="#0a290e"/>
<path d="M1143 1703 c9 -2 23 -2 30 0 6 3 -1 5 -18 5 -16 0 -22 -2 -12 -5z" fill="#0a290e"/>
<path d="M2542 1605 c0 -16 2 -22 5 -12 2 9 2 23 0 30 -3 6 -5 -1 -5 -18z" fill="#0a290e"/>
<path d="M1491 1249 c0 -15 -8 -46 -16 -69 -8 -23 -15 -53 -15 -67 0 -14 -17 -42 -44 -71 -40 -43 -76 -100 -76 -119 0 -4 13 12 29 37 15 25 38 54 50 64 l22 20 -5 -60 c-3 -32 -3 -51 0 -41 4 12 12 17 24 14 15 -4 16 -1 7 24 -11 29 -2 115 22 208 7 25 10 54 8 65 -3 17 -5 16 -6 -5z" fill="#0a290e"/>
<path d="M2291 745 c0 -11 6 -38 14 -60 8 -22 15 -51 15 -65 0 -18 3 -21 9 -11 5 8 14 10 22 6 7 -5 2 8 -10 29 -13 21 -29 56 -37 79 -7 23 -13 33 -13 22z" fill="#0a290e"/>
</g>
</svg>