<svg xmlns="http://www.w3.org/2000/svg" xmlns:xlink="http://www.w3.org/1999/xlink" width="1080" zoomAndPan="magnify" viewBox="0 0 810 809.999993" height="1080" preserveAspectRatio="xMidYMid meet" version="1.0"><path fill="#0a290e" d="M 407.394531 168.523438 L 405.105469 171.847656 L 403.683594 169.808594 C 402.386719 167.996094 400.160156 166.183594 399.109375 166.183594 C 398.925781 166.183594 398.863281 168.070312 398.984375 170.335938 C 399.171875 173.359375 399.046875 174.792969 398.429688 175.398438 C 397.441406 176.378906 396.390625 175.171875 396.390625 173.054688 C 396.390625 172.226562 396.203125 172.226562 395.460938 172.980469 C 394.96875 173.507812 394.535156 174.339844 394.535156 174.867188 C 394.535156 175.472656 393.546875 176.304688 392.308594 176.757812 L 390.082031 177.664062 L 393.667969 179.476562 C 398.304688 181.742188 401.582031 185.066406 401.828125 187.632812 C 401.953125 188.992188 401.765625 189.597656 401.085938 189.597656 C 400.59375 189.597656 400.097656 189.21875 399.976562 188.765625 C 399.851562 188.3125 398.675781 187.859375 397.378906 187.710938 C 396.082031 187.558594 394.226562 187.105469 393.359375 186.652344 C 392.496094 186.273438 390.269531 185.746094 388.539062 185.519531 C 385.570312 185.140625 385.261719 185.292969 385.261719 186.652344 C 385.261719 187.484375 386.683594 189.898438 388.414062 192.015625 L 391.628906 195.941406 L 390.269531 197.226562 C 388.785156 198.660156 383.035156 199.871094 380.75 199.113281 C 379.945312 198.886719 378.523438 197.980469 377.660156 197.074219 C 376.238281 195.792969 375.988281 194.960938 375.988281 191.789062 C 375.988281 187.179688 374.691406 183.933594 372.28125 182.421875 C 371.292969 181.816406 370.363281 181.289062 370.117188 181.289062 C 369.4375 181.289062 369.871094 188.238281 370.734375 190.730469 C 371.167969 192.164062 372.527344 194.054688 373.640625 194.886719 C 376.050781 196.621094 377.597656 200.097656 378.03125 204.628906 C 378.339844 207.5 378.152344 208.40625 376.855469 210.21875 C 375.617188 211.957031 375.496094 212.636719 376.113281 213.089844 C 377.410156 214.144531 383.347656 213.84375 385.261719 212.636719 C 386.992188 211.578125 386.992188 211.578125 387.980469 214.523438 C 389.589844 219.433594 389.402344 219.8125 385.507812 219.8125 C 382.109375 219.8125 382.046875 219.886719 382.355469 221.773438 C 382.542969 222.984375 382.355469 223.890625 381.800781 224.117188 C 380.253906 224.796875 376.855469 222.832031 375.804688 220.566406 C 375.1875 219.359375 374.195312 218 373.578125 217.542969 C 372.835938 217.089844 372.28125 215.582031 371.972656 213.316406 C 371.664062 210.371094 371.785156 209.386719 372.835938 207.648438 C 373.578125 206.441406 374.136719 205.234375 374.136719 204.855469 C 374.136719 204.554688 373.023438 202.890625 371.664062 201.304688 C 369.558594 198.8125 369.1875 197.90625 369.1875 195.1875 C 369.1875 192.46875 368.878906 191.789062 367.085938 190.050781 C 365.542969 188.617188 365.046875 187.710938 365.234375 186.425781 L 365.542969 184.6875 L 364.800781 186.351562 C 364.242188 187.710938 363.441406 188.085938 361.523438 188.238281 L 358.988281 188.3125 L 361.460938 188.617188 C 362.820312 188.84375 364.863281 189.824219 365.976562 190.882812 C 367.644531 192.390625 368.015625 193.222656 367.828125 195.113281 C 367.644531 197.152344 367.398438 197.527344 366.097656 197.378906 C 363.933594 197.226562 358.371094 199.191406 357.503906 200.472656 C 355.527344 203.34375 364.800781 205.382812 367.890625 202.742188 C 369.003906 201.757812 369.621094 201.683594 370.796875 202.363281 C 372.589844 203.34375 372.714844 205.535156 371.042969 207.347656 C 370.242188 208.253906 369.808594 209.6875 369.808594 211.503906 C 369.808594 214.222656 369.746094 214.371094 367.273438 214.75 C 365.914062 214.976562 364.613281 215.355469 364.429688 215.503906 C 363.441406 216.714844 365.726562 220.265625 370.671875 225.25 C 372.21875 226.835938 372.34375 227.289062 371.722656 228.722656 C 370.921875 230.613281 368.015625 232.652344 366.160156 232.652344 C 365.109375 232.652344 364.613281 231.367188 363.007812 225.171875 C 362.019531 221.09375 361.152344 217.167969 361.152344 216.488281 C 361.152344 215.730469 360.90625 215.429688 360.535156 215.65625 C 360.164062 215.882812 359.917969 215.355469 359.917969 214.449219 C 359.917969 213.542969 359.730469 213.011719 359.546875 213.238281 C 359.296875 213.542969 359.484375 215.808594 359.855469 218.375 C 360.289062 220.867188 360.472656 223.132812 360.289062 223.359375 C 360.164062 223.585938 358.433594 222.152344 356.515625 220.265625 C 351.632812 215.429688 351.015625 215.882812 355.15625 221.246094 C 357.074219 223.664062 358.804688 226.609375 359.050781 227.742188 C 359.730469 231.066406 357.320312 232.878906 353.550781 231.667969 C 351.757812 231.066406 350.027344 227.515625 350.027344 224.34375 C 350.027344 221.773438 348.234375 218.375 346.132812 216.789062 C 343.164062 214.523438 342.609375 214.824219 342.609375 218.527344 L 342.609375 221.699219 L 339.085938 221.773438 C 335.683594 221.773438 331.480469 223.585938 331.480469 224.945312 C 331.480469 225.25 332.285156 226.082031 333.273438 226.835938 C 335.3125 228.269531 338.589844 228.496094 341.125 227.363281 C 343.101562 226.382812 343.164062 226.457031 343.660156 229.855469 C 343.96875 232.425781 343.84375 232.574219 341.308594 234.164062 C 339.824219 235.144531 338.464844 235.976562 338.34375 236.125 C 338.21875 236.203125 338.714844 237.257812 339.453125 238.390625 C 341.679688 241.792969 341 246.324219 337.785156 249.796875 C 336.613281 251.082031 335.5 251.535156 333.210938 251.535156 C 329.007812 251.535156 327.769531 250.554688 327.769531 247.378906 C 327.769531 246.019531 327.523438 243.980469 327.152344 242.925781 C 326.597656 241.035156 323.136719 237.863281 320.539062 236.882812 C 319.300781 236.429688 319.117188 236.578125 319.117188 238.316406 C 319.117188 240.960938 320.105469 243.226562 322.085938 245.265625 C 324 247.230469 323.691406 247.757812 319.613281 249.648438 C 317.941406 250.402344 316.644531 251.308594 316.644531 251.6875 C 316.644531 251.988281 317.199219 254.253906 317.878906 256.59375 C 319.613281 262.714844 319.550781 263.621094 317.078125 263.621094 C 315.097656 263.621094 312.316406 265.359375 312.316406 266.566406 C 312.316406 267.09375 315.347656 268.90625 318.066406 269.964844 C 318.871094 270.265625 319.117188 271.171875 319.117188 273.816406 C 319.117188 276.914062 319.242188 277.214844 320.601562 277.214844 C 322.824219 277.214844 325.792969 278.726562 326.164062 280.011719 C 326.71875 281.75 324.867188 283.863281 321.960938 284.921875 C 318.621094 286.054688 318.066406 286.734375 319.980469 287.335938 C 321.714844 287.867188 322.144531 289.605469 320.664062 290.359375 C 319.425781 290.886719 319.488281 293.910156 320.785156 297.234375 C 321.835938 299.953125 321.835938 300.027344 320.539062 301.234375 C 318.871094 302.820312 317.878906 305.917969 317.878906 309.621094 C 317.878906 313.246094 318.25 313.625 320.351562 312.339844 C 322.207031 311.207031 324.0625 307.128906 324.0625 304.257812 C 324.0625 301.839844 324.679688 300.933594 326.71875 300.328125 C 328.699219 299.726562 328.824219 299.046875 327.152344 297.234375 C 325.730469 295.644531 325.484375 292.472656 326.84375 291.871094 C 327.339844 291.644531 329.6875 292.171875 332.097656 293.078125 C 334.507812 293.984375 336.671875 294.589844 336.859375 294.363281 C 337.414062 293.605469 336.363281 292.324219 333.890625 290.738281 C 330.738281 288.773438 330.925781 287.5625 334.820312 284.089844 C 337.292969 281.976562 337.972656 281.671875 338.835938 282.351562 C 339.394531 282.882812 340.691406 283.9375 341.679688 284.769531 L 343.535156 286.28125 L 343.71875 282.429688 C 343.96875 278.046875 344.769531 277.292969 347.925781 278.652344 C 349.40625 279.332031 350.335938 279.332031 351.261719 278.726562 C 352.3125 278.046875 352.871094 278.273438 354.601562 279.859375 C 357.382812 282.429688 358.0625 282.277344 358.0625 278.878906 C 358.0625 277.292969 358.246094 275.707031 358.433594 275.480469 C 359.113281 274.648438 361.152344 276.460938 362.390625 278.953125 C 364.613281 283.410156 363.6875 288.320312 360.039062 291.339844 C 358.433594 292.625 357.628906 292.851562 356.453125 292.246094 C 355.589844 291.871094 353.609375 291.566406 352.003906 291.566406 C 349.71875 291.566406 348.726562 292.019531 347.367188 293.53125 C 346.441406 294.589844 345.699219 295.722656 345.824219 295.949219 C 345.945312 296.25 346.441406 297.382812 346.875 298.515625 C 347.984375 301.085938 347.304688 304.179688 345.511719 304.785156 C 344.769531 305.089844 343.472656 306.144531 342.609375 307.050781 C 341.742188 308.035156 340.382812 309.015625 339.515625 309.316406 C 338.652344 309.542969 337.292969 310.375 336.488281 311.128906 L 335.003906 312.566406 L 336.921875 313.773438 C 340.753906 316.191406 347.429688 314.152344 347.121094 310.675781 C 346.996094 309.242188 347.367188 308.941406 349.777344 308.488281 C 353.300781 307.882812 354.722656 309.167969 353.796875 312.035156 C 353.488281 313.09375 353.179688 315.285156 353.117188 316.871094 C 352.746094 324.121094 353.300781 324.726562 356.949219 321.027344 C 359.296875 318.609375 360.535156 315.132812 360.535156 310.753906 C 360.535156 309.394531 361.089844 307.582031 361.710938 306.597656 L 362.945312 304.785156 L 365.171875 307.957031 C 367.519531 311.355469 369.683594 312.71875 370.425781 311.207031 C 371.230469 309.621094 370.425781 301.914062 369.128906 299.421875 C 368.324219 297.761719 368.015625 296.324219 368.324219 295.042969 C 368.757812 292.699219 368.632812 292.699219 371.351562 294.589844 C 376.546875 298.140625 376.855469 294.890625 372.15625 286.882812 C 371.230469 285.375 371.414062 285.070312 373.640625 284.390625 C 374.875 284.015625 375.433594 284.164062 375.617188 284.84375 C 375.742188 285.449219 376.175781 287.414062 376.609375 289.226562 C 376.976562 291.039062 378.277344 293.683594 379.390625 295.117188 C 381.183594 297.382812 381.367188 298.0625 380.871094 299.648438 C 380.007812 302.367188 380.191406 303.5 381.554688 304.9375 C 382.355469 305.769531 382.789062 307.203125 382.789062 308.789062 C 382.789062 312.339844 384.457031 316.34375 386.558594 317.625 C 387.488281 318.230469 388.414062 318.757812 388.660156 318.757812 C 389.589844 318.757812 388.847656 311.507812 387.609375 308.863281 C 386.558594 306.597656 386.4375 305.691406 386.992188 305.011719 C 387.425781 304.484375 387.734375 303.5 387.734375 302.746094 C 387.734375 301.992188 387.980469 301.386719 388.292969 301.386719 C 389.28125 301.386719 392.496094 306.449219 394.289062 310.902344 L 396.082031 315.359375 L 396.082031 337.339844 C 396.082031 354.183594 395.894531 359.773438 395.277344 361.132812 C 394.78125 362.117188 392.925781 364.457031 391.074219 366.269531 C 388.230469 369.214844 386.992188 369.820312 382.355469 371.027344 C 379.328125 371.785156 372.898438 372.765625 367.953125 373.144531 C 355.960938 374.050781 351.878906 375.03125 346.007812 378.507812 C 340.628906 381.679688 340.9375 382.359375 346.5625 379.941406 C 350.890625 378.128906 356.765625 377.222656 371.042969 376.164062 C 376.976562 375.710938 382.914062 375.105469 384.210938 374.878906 C 386.929688 374.351562 387.117188 375.257812 385.015625 379.1875 L 383.59375 381.828125 L 370.671875 381.828125 C 358.617188 381.828125 357.566406 381.90625 355.28125 383.492188 C 353.921875 384.324219 352.128906 386.058594 351.261719 387.191406 L 349.71875 389.308594 L 351.757812 387.269531 C 354.539062 384.550781 355.589844 384.625 355.652344 387.644531 C 355.773438 390.136719 355.773438 390.136719 356.023438 387.949219 C 356.640625 382.8125 358.804688 382.207031 372.15625 383.191406 C 378.460938 383.71875 380.316406 384.097656 380.316406 384.925781 C 380.316406 386.664062 377.660156 388.175781 372.527344 389.308594 C 365.914062 390.667969 364.121094 391.953125 361.214844 397.238281 C 358.679688 401.769531 357.753906 402.601562 355.28125 402.601562 C 354.476562 402.601562 353.609375 402.980469 353.363281 403.507812 C 353.117188 404.035156 353.179688 404.113281 353.609375 403.808594 C 354.042969 403.507812 354.351562 403.734375 354.351562 404.339844 C 354.351562 404.941406 352.746094 406.453125 350.828125 407.738281 C 348.851562 409.023438 346.5625 410.835938 345.761719 411.742188 C 344.152344 413.554688 342.609375 417.632812 342.667969 419.746094 C 342.667969 420.578125 342.980469 420.199219 343.347656 418.839844 C 344.277344 415.667969 347.367188 411.816406 350.828125 409.703125 C 353.980469 407.664062 354.230469 407.8125 352.746094 410.53125 C 352.128906 411.664062 351.878906 413.25 352.066406 414.460938 C 352.3125 416.046875 351.941406 417.027344 350.273438 418.992188 C 349.035156 420.425781 348.171875 422.164062 348.171875 423.148438 C 348.234375 424.65625 348.355469 424.582031 349.035156 422.542969 C 349.839844 420.351562 352.128906 417.707031 353.300781 417.707031 C 353.550781 417.707031 354.351562 419.144531 354.972656 420.878906 C 356.144531 423.976562 356.207031 424.054688 356.207031 421.9375 C 356.207031 420.652344 355.464844 418.386719 354.601562 416.878906 C 352.558594 413.175781 352.929688 411.664062 357.074219 407.890625 C 358.867188 406.226562 361.214844 403.207031 362.328125 401.089844 C 365.355469 395.351562 367.953125 393.3125 372.589844 392.933594 L 376.421875 392.632812 L 377.164062 395.046875 C 377.535156 396.40625 377.84375 399.128906 377.84375 401.089844 C 377.84375 405.167969 376.421875 407.210938 371.230469 410.53125 C 366.902344 413.25 364.304688 416.574219 363.875 420.050781 C 363.441406 423.449219 363.191406 423.75 360.535156 426.015625 C 356.023438 429.71875 354.722656 432.058594 354.105469 437.722656 C 353.859375 439.765625 353.550781 442.179688 353.363281 443.011719 C 353.117188 444.21875 353.179688 444.296875 353.671875 443.390625 C 354.042969 442.785156 354.351562 441.5 354.351562 440.59375 C 354.351562 438.027344 356.269531 438.933594 357.628906 442.179688 C 358.308594 443.691406 358.925781 444.824219 359.113281 444.671875 C 359.484375 444.144531 357.691406 439.539062 356.144531 437.269531 C 355.03125 435.535156 354.972656 435.003906 355.589844 433.496094 C 356.578125 431.378906 357.753906 429.867188 360.660156 427.226562 L 362.945312 425.1875 L 363.625 426.847656 C 364.058594 427.753906 364.554688 431.230469 364.738281 434.628906 C 365.046875 439.914062 365.171875 440.367188 365.605469 438.101562 C 365.851562 436.667969 366.035156 432.738281 365.976562 429.414062 C 365.914062 420.804688 366.46875 418.085938 368.941406 415.59375 C 370.054688 414.460938 372.03125 413.023438 373.332031 412.496094 C 380.191406 409.550781 381.863281 406.527344 381.367188 397.992188 C 380.996094 391.121094 381.367188 390.214844 385.695312 386.964844 C 387.363281 385.683594 391.074219 381.679688 394.039062 378.054688 C 397.007812 374.351562 399.664062 371.558594 399.851562 371.859375 C 400.964844 373.21875 400.035156 379.414062 398.242188 382.585938 C 396.820312 385.078125 396.390625 386.738281 396.390625 389.457031 C 396.390625 392.179688 396.019531 393.539062 395.03125 394.898438 C 393.855469 396.40625 393.546875 397.84375 393.296875 403.433594 L 392.925781 410.15625 L 390.207031 413.101562 C 388.230469 415.214844 387.300781 416.878906 386.871094 419.292969 L 386.1875 422.617188 L 382.480469 423.070312 C 376.855469 423.75 371.230469 427.300781 372.773438 429.1875 C 373.207031 429.71875 373.515625 431.304688 373.578125 432.816406 L 373.640625 435.457031 L 374.195312 432.589844 C 375.308594 426.695312 377.96875 424.203125 382.726562 424.65625 L 385.324219 424.882812 L 382.914062 429.039062 C 379.140625 435.535156 377.597656 440.519531 378.152344 444.371094 C 378.769531 448.300781 378.894531 457.515625 378.398438 463.027344 C 378.152344 465.292969 378.152344 466.351562 378.277344 465.292969 C 378.460938 464.238281 378.894531 463.179688 379.265625 462.878906 C 379.761719 462.5 380.007812 459.328125 380.007812 453.585938 C 380.007812 443.992188 379.945312 444.144531 384.027344 446.109375 C 387.117188 447.621094 388.722656 451.019531 389.34375 457.589844 C 389.898438 463.933594 391.074219 462.800781 390.640625 456.304688 C 390.207031 449.128906 389.402344 447.46875 384.953125 444.898438 C 382.851562 443.691406 380.75 442.105469 380.316406 441.5 C 379.203125 439.914062 380.253906 437.195312 384.644531 430.09375 C 386.683594 426.773438 388.539062 422.921875 388.910156 421.03125 C 389.34375 418.839844 390.332031 417.027344 391.9375 415.292969 C 394.84375 412.269531 395.460938 410.835938 396.082031 406 C 396.449219 402.675781 396.574219 402.449219 397.070312 404.035156 C 398.863281 409.777344 399.605469 416.726562 399.171875 422.996094 C 398.492188 431.757812 398.554688 433.796875 399.417969 440.746094 C 400.34375 448.375 399.605469 456.757812 397.441406 462.425781 C 395.585938 467.332031 394.347656 475.566406 394.660156 481.15625 C 394.90625 484.933594 394.90625 484.78125 395.03125 479.644531 C 395.152344 475.640625 395.339844 474.28125 395.769531 475.113281 C 396.203125 476.019531 396.390625 475.71875 396.390625 473.980469 L 396.449219 471.714844 L 397.132812 473.601562 C 397.75 475.265625 397.871094 474.734375 398.242188 469.449219 C 398.492188 466.125 398.984375 462.652344 399.355469 461.746094 C 400.035156 460.15625 401.273438 454.34375 401.644531 451.09375 C 401.890625 448.300781 402.386719 448.375 403.1875 451.246094 C 404.179688 455.023438 404.117188 460.460938 402.941406 470.960938 C 401.890625 480.097656 402.078125 492.03125 403.25 492.9375 C 403.558594 493.164062 403.808594 492.484375 403.808594 491.429688 C 403.808594 490.21875 404.179688 489.464844 404.734375 489.464844 C 405.230469 489.464844 405.660156 489.917969 405.660156 490.523438 C 405.660156 491.125 406.09375 491.730469 406.589844 492.03125 C 407.269531 492.335938 407.082031 491.351562 405.910156 488.484375 C 403.808594 483.421875 403.375 477.226562 404.671875 469.828125 C 406.28125 460.761719 405.972656 453.511719 403.683594 444.21875 C 401.828125 436.589844 401.765625 435.609375 401.707031 422.238281 C 401.644531 414.535156 401.398438 406.074219 401.085938 403.355469 C 400.65625 399.203125 400.839844 397.164062 402.136719 390.515625 C 403.003906 386.136719 403.871094 381.375 404.117188 379.867188 C 404.300781 378.28125 404.859375 376.695312 405.292969 376.242188 C 406.773438 374.730469 410.296875 379.335938 413.082031 386.4375 C 414.441406 389.910156 417.34375 395.578125 419.570312 398.976562 C 421.796875 402.375 423.589844 405.773438 423.589844 406.453125 C 423.589844 408.117188 422.105469 409.550781 417.59375 412.34375 C 415.492188 413.628906 413.574219 414.988281 413.390625 415.519531 C 413.140625 415.972656 412.710938 418.613281 412.398438 421.332031 C 411.101562 432.285156 411.101562 435.382812 412.027344 439.234375 C 412.769531 442.257812 413.019531 442.558594 413.019531 440.898438 C 413.082031 439.6875 412.769531 438.101562 412.460938 437.269531 C 411.78125 435.835938 412.648438 426.921875 413.699219 424.582031 C 414.191406 423.449219 417.902344 430.09375 419.015625 434.324219 C 419.757812 436.894531 419.757812 436.894531 419.816406 434.855469 C 419.878906 432.589844 418.890625 429.71875 416.480469 424.882812 C 414.191406 420.425781 414.441406 418.160156 417.34375 415.746094 C 418.707031 414.6875 420.871094 413.628906 422.230469 413.402344 C 424.578125 413.023438 424.765625 413.175781 425.816406 415.519531 C 427.238281 418.839844 427.792969 432.816406 426.679688 437.949219 C 424.515625 448.074219 423.402344 450.941406 419.816406 456.003906 C 417.777344 458.722656 416.171875 461.515625 416.234375 462.199219 C 416.234375 463.253906 416.292969 463.253906 416.605469 462.273438 C 417.160156 460.460938 418.765625 458.496094 419.695312 458.496094 C 420.3125 458.496094 420.5 460.15625 420.621094 465.066406 C 420.621094 468.769531 420.808594 470.582031 420.929688 469.222656 C 421.054688 467.863281 421.550781 466.804688 421.980469 466.804688 C 423.21875 466.804688 428.90625 472.167969 430.019531 474.359375 C 430.511719 475.414062 431.007812 475.792969 431.007812 475.1875 C 431.007812 474.207031 429.152344 471.867188 423.652344 465.972656 C 420.746094 462.878906 420.5 460.914062 422.351562 456.984375 C 423.03125 455.550781 424.515625 452.152344 425.566406 449.433594 C 427.484375 444.597656 427.546875 444.597656 427.976562 446.789062 C 428.289062 448.449219 428.410156 448.601562 428.472656 447.394531 C 428.597656 445.050781 429.214844 443.390625 430.019531 443.390625 C 431.007812 443.390625 436.507812 450.113281 437.621094 452.679688 C 438.238281 454.265625 438.488281 456.382812 438.300781 459.628906 C 438.117188 463.105469 438.300781 464.3125 438.859375 464.3125 C 439.289062 464.3125 439.660156 463.859375 439.660156 463.253906 C 439.660156 462.726562 439.972656 462.273438 440.28125 462.273438 C 440.710938 462.273438 440.710938 461.820312 440.28125 460.835938 C 439.972656 460.007812 439.660156 458.722656 439.660156 457.96875 C 439.660156 454.265625 438.117188 450.714844 434.34375 445.578125 C 432.058594 442.484375 430.019531 439.234375 429.710938 438.253906 C 429.398438 437.269531 429.339844 431.683594 429.523438 425.714844 C 429.894531 416.5 429.769531 414.382812 428.84375 410.910156 C 427.238281 404.941406 425.257812 400.488281 422.289062 396.179688 C 419.015625 391.421875 416.789062 385.683594 416.789062 381.980469 C 416.789062 379.335938 416.914062 379.1875 418.027344 379.941406 C 418.707031 380.394531 420.808594 383.492188 422.722656 386.816406 C 427.050781 394.367188 429.027344 396.785156 434.285156 400.863281 C 437.1875 403.207031 438.425781 404.640625 438.425781 405.773438 C 438.425781 407.058594 438.609375 407.132812 439.289062 406.453125 C 439.972656 405.773438 440.527344 405.773438 441.453125 406.300781 C 444.917969 408.570312 445.472656 413.855469 443.125 420.957031 C 441.761719 424.882812 441.761719 425.261719 442.753906 424.882812 C 443.554688 424.582031 443.925781 425.035156 444.238281 426.847656 C 444.917969 431.003906 444.667969 433.796875 443.433594 435.382812 C 442.816406 436.289062 442.074219 437.800781 441.824219 438.859375 L 441.394531 440.746094 L 442.691406 438.632812 C 443.496094 437.496094 444.484375 436.589844 444.917969 436.589844 C 445.71875 436.589844 447.265625 441.804688 447.945312 446.789062 C 448.316406 449.660156 447.761719 441.726562 447.265625 437.875 C 446.957031 435.382812 447.078125 435.082031 448.378906 435.082031 C 449.121094 435.082031 450.292969 435.683594 450.972656 436.363281 C 452.148438 437.648438 452.210938 437.648438 451.46875 436.0625 C 451.035156 435.082031 449.738281 434.023438 448.316406 433.570312 C 445.65625 432.664062 445.535156 432.4375 444.976562 425.1875 C 444.730469 422.316406 444.917969 419.824219 445.535156 417.707031 C 446.027344 415.972656 446.460938 413.101562 446.460938 411.4375 C 446.460938 408.871094 446.089844 407.964844 443.867188 405.472656 C 442.382812 403.808594 439.042969 400.941406 436.449219 399.050781 C 430.265625 394.519531 428.164062 391.953125 425.011719 384.925781 C 422.289062 379.109375 421.921875 377.675781 422.910156 377.675781 C 424.394531 377.675781 440.28125 387.496094 440.835938 388.777344 C 441.144531 389.609375 441.640625 392.101562 441.886719 394.367188 C 442.320312 398.296875 442.382812 398.371094 442.875 396.105469 C 443.742188 392.027344 446.460938 391.875 446.460938 395.878906 C 446.460938 398.445312 447.820312 401.996094 451.46875 408.796875 C 453.941406 413.476562 454.003906 413.703125 453.695312 418.992188 C 453.570312 422.011719 453.632812 424.28125 453.878906 424.128906 C 454.128906 423.902344 455.425781 424.65625 456.722656 425.640625 L 459.132812 427.527344 L 456.785156 424.960938 C 454.5 422.46875 454.4375 422.238281 454.808594 418.992188 C 455.300781 415.066406 454.4375 411.0625 452.394531 408.039062 C 448.8125 402.675781 446.460938 395.046875 448.441406 395.046875 C 449.242188 395.046875 460.183594 403.960938 462.65625 406.679688 C 464.265625 408.417969 464.882812 412.496094 465.5 424.355469 C 465.8125 430.699219 466.304688 435.457031 466.738281 435.988281 C 467.292969 436.667969 467.292969 436.289062 466.863281 434.25 C 466.121094 431.230469 465.996094 416.953125 466.738281 416.953125 C 466.984375 416.953125 467.789062 418.085938 468.46875 419.445312 C 469.335938 421.03125 471.066406 422.542969 473.601562 423.902344 C 475.640625 424.960938 477.371094 425.640625 477.371094 425.335938 C 477.371094 425.035156 475.515625 423.375 473.289062 421.558594 C 468.839844 418.011719 467.234375 414.914062 467.601562 410.609375 C 467.789062 408.34375 467.851562 408.265625 470.757812 408.34375 C 472.734375 408.34375 474.21875 408.871094 475.515625 410.003906 C 476.8125 411.210938 477.371094 411.4375 477.371094 410.683594 C 477.371094 408.492188 474.898438 406.832031 471.003906 406.527344 C 467.542969 406.226562 466.921875 405.925781 464.882812 403.355469 C 463.648438 401.769531 459.320312 398.070312 455.300781 395.199219 C 451.285156 392.253906 446.769531 388.25 445.226562 386.363281 C 442.132812 382.433594 440.03125 380.921875 434.097656 378.429688 C 431.871094 377.523438 429.648438 376.316406 429.152344 375.710938 C 428.410156 374.804688 428.660156 374.652344 431.007812 374.652344 C 434.285156 374.652344 446.710938 377.675781 451.097656 379.5625 C 452.828125 380.242188 455.609375 381 457.28125 381.226562 C 459.753906 381.601562 460.679688 382.132812 462.039062 384.097656 C 462.90625 385.378906 464.882812 387.042969 466.367188 387.796875 C 471.496094 390.363281 472.796875 391.347656 473.847656 393.386719 C 474.652344 395.046875 474.898438 395.125 474.898438 393.992188 C 474.898438 393.007812 475.207031 392.78125 476.011719 393.160156 C 478.234375 394.292969 482.5625 395.804688 483.492188 395.726562 C 484.046875 395.726562 482.75 395.046875 480.585938 394.292969 C 475.515625 392.554688 474.710938 391.648438 476.691406 389.683594 L 478.175781 388.175781 L 475.703125 388.703125 C 474.09375 389.003906 471.929688 388.703125 469.644531 387.871094 C 466.058594 386.664062 462.78125 383.566406 463.460938 382.207031 C 463.648438 381.753906 465.6875 381.453125 467.972656 381.453125 C 473.105469 381.453125 478.605469 380.46875 485.285156 378.28125 C 490.167969 376.769531 490.539062 376.769531 492.207031 377.902344 C 493.9375 379.1875 493.9375 379.1875 493.8125 377.296875 C 493.753906 375.636719 493.445312 375.410156 491.589844 375.410156 C 490.414062 375.410156 487.632812 376.089844 485.53125 376.921875 C 477.0625 380.167969 459.9375 379.488281 452.394531 375.636719 C 450.417969 374.652344 446.832031 373.519531 444.359375 373.144531 C 441.949219 372.839844 439.167969 372.160156 438.117188 371.707031 C 437.128906 371.179688 432.675781 370.574219 428.164062 370.347656 L 420.003906 369.894531 L 416.605469 366.421875 C 414.75 364.53125 412.769531 361.890625 412.214844 360.679688 C 410.792969 357.28125 409.988281 347.234375 409.988281 332.65625 L 409.988281 319.664062 L 414.070312 315.132812 C 417.964844 310.753906 421.425781 308.335938 432.554688 302.140625 C 434.964844 300.78125 437.558594 298.96875 438.425781 297.988281 C 440.15625 296.023438 446.769531 293.910156 447.699219 295.042969 C 449.058594 296.703125 448.996094 299.574219 447.574219 302.140625 C 446.339844 304.410156 445.71875 304.785156 443.433594 305.011719 C 441.269531 305.238281 437.25 307.429688 435.394531 309.46875 C 435.210938 309.621094 435.707031 310.222656 436.449219 310.902344 C 437.558594 311.808594 437.808594 312.792969 437.808594 316.191406 C 437.808594 318.984375 438.054688 320.269531 438.609375 320.269531 C 439.847656 320.195312 441.949219 317.777344 443.0625 314.984375 C 444.238281 312.035156 446.277344 309.695312 447.699219 309.695312 C 448.191406 309.695312 449.058594 310.828125 449.613281 312.1875 C 450.480469 314.378906 453.941406 318.003906 455.179688 318.003906 C 455.488281 318.003906 455.734375 315.285156 455.734375 311.960938 C 455.734375 308.261719 455.980469 305.917969 456.351562 305.917969 C 456.722656 305.917969 458.578125 307.128906 460.433594 308.5625 C 462.289062 309.996094 463.957031 311.207031 464.140625 311.207031 C 464.390625 311.207031 464.390625 309.46875 464.265625 307.429688 C 463.957031 303.804688 464.078125 303.5 465.6875 302.519531 C 468.34375 300.78125 469.148438 301.160156 470.632812 304.332031 C 471.746094 306.75 473.910156 308.941406 475.207031 308.941406 C 475.390625 308.941406 475.515625 307.203125 475.515625 305.089844 C 475.515625 302.445312 475.082031 300.328125 474.21875 298.667969 C 473.167969 296.628906 473.105469 295.871094 473.722656 294.511719 C 474.15625 293.53125 474.28125 291.492188 474.03125 289.605469 C 473.847656 287.789062 473.785156 286.28125 473.910156 286.28125 C 473.972656 286.28125 475.023438 286.808594 476.132812 287.488281 C 477.804688 288.546875 478.234375 288.546875 478.667969 287.714844 C 479.164062 286.808594 479.347656 286.808594 480.027344 287.789062 C 481.140625 289.453125 483.984375 291.566406 484.417969 291.039062 C 485.097656 290.207031 484.789062 285.523438 483.863281 282.882812 C 482.996094 280.3125 483.058594 280.160156 484.851562 277.59375 C 485.902344 276.160156 487.136719 274.949219 487.632812 274.949219 C 488.066406 274.949219 488.992188 276.234375 489.671875 277.820312 C 491.28125 281.671875 492.453125 282.730469 494.433594 282.277344 C 495.792969 281.976562 496.535156 282.503906 498.390625 284.84375 C 501.480469 288.847656 502.097656 288.621094 502.097656 283.636719 C 502.097656 279.785156 502.222656 279.480469 504.136719 278.273438 C 505.1875 277.59375 506.238281 276.914062 506.363281 276.761719 C 506.980469 276.082031 504.816406 274.121094 502.652344 273.441406 C 500.429688 272.683594 500.242188 272.382812 500.242188 270.039062 C 500.242188 266.640625 499.253906 266.039062 498.140625 268.757812 C 496.84375 271.851562 495.050781 272.230469 492.824219 269.964844 C 490.910156 268 489.238281 263.089844 490.105469 262.109375 C 490.414062 261.808594 491.710938 261.128906 493.011719 260.597656 C 494.246094 260.144531 495.296875 259.390625 495.296875 259.011719 C 495.296875 258.636719 494.183594 257.652344 492.886719 256.820312 C 489.859375 254.933594 489.550781 254.40625 490.351562 251.914062 C 490.96875 249.875 490.96875 249.875 488.992188 250.328125 C 487.074219 250.703125 486.828125 250.554688 484.972656 247.152344 C 482.625 243.074219 482.625 242.699219 483.863281 239.75 C 485.035156 237.03125 485.097656 231.140625 483.984375 231.140625 C 483.550781 231.140625 482.253906 232.046875 481.140625 233.179688 C 479.65625 234.765625 479.039062 236.125 478.792969 238.542969 C 478.484375 241.109375 478.113281 242.019531 476.9375 242.546875 C 476.074219 242.925781 475.144531 243.074219 474.898438 242.847656 C 474.589844 242.621094 474.464844 239.675781 474.710938 236.429688 C 475.144531 229.402344 474.773438 229.027344 470.757812 232.574219 C 468.097656 234.917969 466.863281 238.542969 466.863281 243.90625 C 466.863281 246.625 466.613281 247.230469 464.882812 248.511719 C 463.769531 249.34375 462.597656 250.023438 462.347656 250.023438 C 461.359375 250.023438 461.175781 247.605469 462.101562 245.265625 C 462.597656 243.980469 463.152344 241.035156 463.277344 238.84375 C 463.585938 234.765625 463.585938 234.765625 461.976562 235.144531 C 459.195312 235.824219 458.453125 234.765625 459.382812 231.214844 C 460.0625 228.195312 462.472656 225.628906 465.8125 224.117188 C 467.480469 223.359375 467.046875 222.453125 464.390625 220.945312 C 463.027344 220.1875 461.917969 219.28125 461.917969 218.90625 C 461.917969 218.601562 462.90625 217.695312 464.140625 217.015625 C 465.871094 215.957031 466.550781 215.882812 467.480469 216.636719 C 468.160156 217.167969 469.519531 217.542969 470.570312 217.542969 C 472.671875 217.542969 477.371094 215.429688 477.371094 214.523438 C 477.371094 214.144531 476.628906 213.164062 475.761719 212.332031 C 473.910156 210.519531 471.3125 210.292969 468.285156 211.652344 C 466.550781 212.410156 465.933594 212.410156 464.511719 211.351562 C 461.484375 209.085938 462.164062 206.214844 466.121094 204.175781 C 468.65625 202.890625 468.40625 201.378906 465.6875 201.078125 C 463.648438 200.851562 463.648438 200.777344 463.957031 197.90625 C 464.328125 194.207031 464.078125 193.902344 461.792969 195.339844 C 460.554688 196.09375 459.503906 197.753906 458.703125 200.246094 C 457.09375 204.855469 455.734375 205.15625 455.734375 200.925781 C 455.734375 197.453125 454.929688 197.074219 452.457031 199.417969 C 450.605469 201.230469 449.550781 205.007812 449.550781 209.992188 C 449.550781 212.558594 449.183594 213.917969 448.007812 215.503906 C 446.089844 218 445.71875 218 443.308594 215.882812 L 441.453125 214.144531 L 439.230469 217.394531 C 436.632812 221.246094 432.863281 223.738281 430.203125 223.4375 C 427.976562 223.210938 427.175781 220.71875 428.84375 219.054688 C 429.339844 218.527344 429.769531 217.46875 429.769531 216.714844 C 429.769531 215.128906 428.84375 215.203125 424.023438 217.242188 C 421.238281 218.453125 420.929688 218 421.238281 212.558594 C 421.363281 209.839844 421.671875 208.859375 422.351562 208.859375 C 422.910156 208.859375 423.34375 209.6875 423.464844 210.898438 C 423.589844 212.105469 423.960938 213.011719 424.332031 213.011719 C 425.691406 213.011719 429.152344 209.160156 430.140625 206.59375 C 431.007812 204.402344 431.5 203.949219 433.109375 203.949219 C 434.902344 203.949219 435.148438 203.648438 435.828125 200.550781 C 436.570312 197.226562 437.128906 196.699219 439.660156 197.152344 C 440.15625 197.226562 441.207031 197.980469 441.949219 198.8125 C 443.742188 200.851562 444.605469 200.019531 444.605469 196.320312 C 444.605469 193.601562 444.484375 193.375 442.9375 193.375 C 441.949219 193.375 440.589844 193.148438 439.785156 192.921875 C 438.488281 192.46875 438.425781 192.164062 438.796875 189.070312 C 439.167969 185.820312 439.167969 185.667969 437.929688 186.5 C 436.015625 187.710938 433.480469 187.558594 433.046875 186.121094 C 432.429688 184.160156 433.664062 182.496094 436.757812 181.289062 C 441.023438 179.628906 441.453125 178.644531 438.980469 176.832031 C 436.632812 175.019531 435.394531 174.945312 432.058594 176.078125 C 430.019531 176.757812 429.523438 176.605469 427.605469 174.867188 C 425.195312 172.601562 424.453125 172.828125 423.898438 176 C 423.652344 177.210938 423.21875 178.417969 422.910156 178.722656 C 422.167969 179.25 416.171875 177.585938 416.171875 176.90625 C 416.171875 176.605469 416.726562 175.320312 417.40625 174.113281 C 418.707031 171.695312 419.078125 167.691406 418.027344 167.691406 C 417.65625 167.691406 416.234375 168.371094 414.871094 169.277344 C 412.523438 170.714844 412.277344 170.714844 411.226562 169.582031 C 410.546875 168.824219 409.988281 167.617188 409.867188 166.710938 C 409.679688 165.425781 409.371094 165.652344 407.394531 168.523438 Z M 429.769531 272.53125 L 429.769531 276.160156 L 433.046875 276.082031 C 436.078125 276.082031 436.261719 276.160156 436.261719 277.972656 C 436.261719 279.40625 435.707031 280.160156 433.726562 281.371094 C 430.945312 282.957031 428.535156 285.375 428.535156 286.429688 C 428.535156 286.734375 429.398438 287.035156 430.390625 287.035156 C 432.242188 287.035156 432.242188 287.035156 431.316406 289.226562 C 429.957031 292.472656 418.644531 298.742188 418.644531 296.25 C 418.644531 294.511719 420.128906 291.566406 420.992188 291.566406 C 421.671875 291.566406 421.796875 290.511719 421.671875 286.808594 C 421.550781 284.164062 421.796875 281.445312 422.230469 280.464844 C 423.21875 278.273438 423.28125 278.425781 420.683594 275.480469 C 419.261719 273.742188 418.582031 272.457031 418.828125 271.703125 C 419.324219 270.117188 422.414062 269.058594 426.554688 268.984375 L 429.769531 268.90625 Z M 403.1875 277.441406 C 406.15625 279.253906 406.898438 280.917969 405.414062 282.730469 C 404.179688 284.242188 404.796875 284.769531 407.703125 284.769531 L 410.113281 284.769531 L 409.679688 287.5625 C 409.1875 290.886719 407.949219 294.285156 405.476562 299.347656 C 403.929688 302.445312 403.558594 302.820312 402.695312 301.992188 C 401.148438 300.40625 393.917969 288.394531 393.917969 287.414062 C 393.917969 286.882812 394.472656 285.675781 395.089844 284.617188 C 395.769531 283.636719 396.449219 281.445312 396.699219 279.785156 C 397.503906 274.121094 397.503906 274.121094 403.1875 277.441406 Z M 388.847656 285.070312 C 389.03125 289.226562 389.09375 289.453125 390.515625 289 C 391.691406 288.621094 392.246094 289.074219 393.359375 290.964844 C 394.472656 292.851562 401.519531 303.804688 402.941406 305.84375 C 403.375 306.449219 405.167969 304.03125 406.773438 300.554688 C 407.886719 298.0625 408.875 296.855469 409.679688 296.855469 C 411.535156 296.855469 414.6875 294.210938 415.921875 291.644531 C 418.519531 286.28125 418.765625 290.8125 416.234375 296.929688 L 414.441406 301.234375 L 418.582031 299.5 C 420.808594 298.59375 424.394531 296.855469 426.496094 295.722656 C 429.710938 293.984375 430.574219 293.832031 431.316406 294.589844 C 432.304688 295.570312 432.429688 295.496094 437.3125 289.832031 C 438.980469 287.941406 439.601562 288.773438 439.042969 292.324219 C 438.488281 296.25 437.746094 297.15625 433.542969 299.574219 C 418.210938 308.335938 414.132812 311.28125 410.667969 316.191406 L 408.628906 319.0625 L 408.875 338.324219 C 409.1875 359.925781 409.433594 361.285156 413.449219 365.742188 C 414.8125 367.328125 415.554688 368.761719 415.304688 369.214844 C 414.996094 369.894531 411.472656 370.121094 403.4375 370.121094 C 390.703125 370.121094 390.269531 369.894531 394.289062 365.4375 C 395.523438 364.078125 396.882812 361.890625 397.316406 360.53125 C 398.121094 358.261719 398.429688 358.035156 401.148438 357.886719 L 404.117188 357.734375 L 401.210938 357.507812 C 398.863281 357.28125 398.242188 356.902344 398.242188 355.847656 C 398.242188 355.089844 398.863281 354.109375 399.664062 353.65625 L 401.027344 352.824219 L 399.664062 352.824219 C 397.5625 352.75 397.871094 350.484375 399.976562 350.40625 L 401.644531 350.332031 L 400.097656 349.804688 C 398.738281 349.351562 398.554688 348.820312 398.367188 344.894531 C 398.183594 340.964844 398.304688 340.511719 399.542969 340.136719 L 400.964844 339.683594 L 399.605469 339.078125 C 398.429688 338.550781 398.242188 337.871094 398.242188 333.941406 C 398.242188 329.5625 398.304688 329.335938 399.976562 328.882812 C 402.878906 328.125 402.941406 327.976562 400.59375 327.898438 C 397.996094 327.824219 397.132812 325.632812 399.664062 325.480469 L 401.027344 325.332031 L 399.664062 325.027344 C 398.429688 324.726562 398.242188 324.273438 398.242188 320.648438 C 398.242188 317.023438 398.429688 316.570312 399.664062 316.265625 C 400.839844 315.964844 400.839844 315.964844 399.355469 315.8125 C 397.996094 315.738281 397.5625 315.132812 396.636719 312.265625 C 395.710938 309.316406 395.710938 308.714844 396.449219 308.109375 C 397.132812 307.582031 397.070312 307.429688 396.082031 307.429688 C 394.78125 307.429688 394.164062 306.75 391.195312 301.765625 C 390.207031 300.101562 388.167969 297.15625 386.683594 295.269531 C 384.148438 292.019531 382.851562 288.46875 382.789062 284.542969 C 382.789062 283.109375 386.3125 280.085938 387.734375 280.386719 C 388.414062 280.539062 388.722656 281.824219 388.847656 285.070312 Z M 388.847656 285.070312 " fill-opacity="1" fill-rule="nonzero"/><path fill="#0a290e" d="M 39.933594 513.992188 C 36.96875 514.597656 28.746094 518.148438 26.148438 519.960938 C 16.382812 526.683594 9.398438 537.9375 6.429688 551.535156 C 5.007812 558.257812 4.882812 573.0625 6.246094 579.558594 C 10.078125 597.910156 21.636719 611.808594 37.152344 616.566406 C 43.148438 618.382812 54.339844 618.230469 59.839844 616.265625 C 71.832031 612.035156 81.722656 602.140625 86.546875 589.679688 C 89.082031 583.03125 90.007812 577.515625 90.007812 569.285156 L 90.007812 561.050781 L 44.261719 561.050781 L 44.261719 575.402344 L 58.417969 575.402344 C 67.816406 575.402344 72.761719 575.703125 73.007812 576.234375 C 73.6875 577.515625 70.96875 585.371094 68.496094 589.375 C 65.898438 593.605469 61.324219 597.609375 57.554688 599.042969 C 56.191406 599.496094 51.867188 599.949219 47.972656 599.949219 C 41.605469 599.949219 40.492188 599.722656 37.460938 597.988281 C 26.828125 591.867188 22.007812 581.671875 21.945312 565.433594 C 21.882812 549.496094 28.25 537.636719 39.316406 533.105469 C 44.941406 530.761719 53.535156 531.214844 58.480469 534.160156 C 61.941406 536.125 65.402344 539.601562 67.195312 542.773438 C 68.1875 544.433594 68.433594 544.433594 77.582031 544.28125 L 86.917969 544.054688 L 84.753906 538.46875 C 80.179688 526.910156 69.421875 517.167969 58.296875 514.597656 C 53.84375 513.539062 43.644531 513.238281 39.933594 513.992188 Z M 39.933594 513.992188 " fill-opacity="1" fill-rule="nonzero"/><path fill="#0a290e" d="M 105.773438 514.683594 C 105.460938 514.988281 105.277344 538.328125 105.277344 566.5 L 105.277344 617.710938 L 121.96875 617.710938 L 121.96875 597.773438 C 121.96875 580.324219 122.089844 577.753906 122.957031 577.378906 C 124.316406 576.773438 128.953125 576.847656 129.757812 577.527344 C 130.375 577.980469 135.195312 588.027344 140.390625 599.585938 C 141.195312 601.472656 142.863281 604.871094 143.976562 607.214844 C 145.148438 609.554688 146.078125 611.898438 146.078125 612.351562 C 146.078125 612.804688 146.261719 613.179688 146.570312 613.179688 C 146.820312 613.179688 147.375 614.164062 147.808594 615.445312 L 148.671875 617.710938 L 158.195312 617.710938 C 163.632812 617.710938 167.714844 617.410156 167.714844 617.03125 C 167.714844 616.429688 166.476562 613.785156 162.769531 606.382812 C 159.429688 599.734375 154.730469 589.691406 154.730469 589.085938 C 154.730469 588.707031 154.546875 588.253906 154.238281 588.105469 C 153.617188 587.800781 149.414062 579.039062 148.859375 577 C 148.550781 575.867188 148.796875 575.261719 149.601562 574.960938 C 154.546875 572.921875 156.585938 571.488281 159.800781 567.710938 C 164.5 562.121094 166.601562 556.683594 166.972656 548.902344 C 167.773438 532.210938 160.355469 520.199219 146.757812 515.894531 C 142.925781 514.761719 106.574219 513.628906 105.773438 514.683594 Z M 143.296875 532.664062 C 146.878906 534.703125 148.734375 536.96875 149.722656 540.59375 C 151.515625 547.164062 149.664062 554.71875 145.210938 559.097656 L 142.863281 561.441406 L 132.539062 561.667969 L 122.152344 561.96875 L 121.78125 553.359375 C 121.226562 542.332031 121.226562 531.984375 121.78125 531.378906 C 121.96875 531.074219 126.234375 530.847656 131.179688 530.847656 C 139.339844 530.847656 140.511719 531 143.296875 532.664062 Z M 143.296875 532.664062 " fill-opacity="1" fill-rule="nonzero"/><path fill="#0a290e" d="M 185.417969 541.578125 C 185.171875 556.609375 184.988281 579.871094 184.988281 593.316406 L 184.988281 617.714844 L 233.824219 617.714844 L 233.824219 602.003906 L 218.367188 601.777344 C 205.449219 601.550781 202.789062 601.324219 202.296875 600.34375 C 201.617188 599.132812 201.429688 576.324219 202.046875 574.359375 C 202.359375 573.300781 204.210938 573.148438 216.265625 573.148438 L 230.113281 573.148438 L 230.113281 557.289062 L 216.574219 557.289062 C 205.820312 557.289062 202.914062 557.0625 202.359375 556.230469 C 201.863281 555.550781 201.675781 551.320312 201.800781 542.863281 L 201.988281 530.472656 L 217.8125 530.246094 L 233.636719 530.097656 L 233.945312 526.394531 C 234.132812 524.355469 234.132812 520.804688 233.945312 518.464844 L 233.699219 514.234375 L 185.789062 514.234375 Z M 185.417969 541.578125 " fill-opacity="1" fill-rule="nonzero"/><path fill="#0a290e" d="M 252.027344 565.976562 L 252.027344 617.714844 L 300.242188 617.714844 L 300.242188 601.851562 L 284.355469 601.703125 L 268.40625 601.476562 L 268.40625 573.527344 L 282.503906 573.300781 L 296.535156 573.148438 L 296.535156 557.289062 L 282.503906 557.136719 L 268.40625 556.910156 L 268.222656 545.203125 C 268.160156 538.78125 268.222656 532.738281 268.40625 531.757812 L 268.71875 530.097656 L 300.242188 530.097656 L 300.242188 514.234375 L 252.027344 514.234375 Z M 252.027344 565.976562 " fill-opacity="1" fill-rule="nonzero"/><path fill="#0a290e" d="M 318.40625 565.972656 L 318.40625 617.710938 L 326.441406 617.710938 C 332.4375 617.710938 334.476562 617.484375 334.476562 616.730469 C 334.355469 592.03125 334.726562 547.316406 335.09375 547.089844 C 335.34375 546.9375 344.183594 562.722656 354.878906 582.210938 L 374.164062 617.710938 L 390.730469 617.710938 L 390.730469 514.15625 L 382.570312 514.382812 L 374.351562 514.609375 L 374.164062 549.882812 C 374.101562 569.371094 373.792969 585.230469 373.546875 585.230469 C 373.300781 585.230469 370.515625 580.324219 367.363281 574.429688 C 364.210938 568.539062 355.558594 552.601562 348.199219 539.007812 L 334.785156 514.230469 L 318.40625 514.230469 Z M 318.40625 565.972656 " fill-opacity="1" fill-rule="nonzero"/><path fill="#0a290e" d="M 519.875 514.769531 C 512.519531 517.738281 506.089844 522.847656 501.023438 529.851562 C 497.3125 534.875 496.078125 537.347656 493.789062 544.351562 C 487.855469 562.234375 489.089844 583 497.003906 598.820312 C 510.292969 625.269531 540.585938 629.964844 558.574219 608.296875 C 562.160156 603.929688 568.402344 592.640625 568.402344 590.496094 C 568.402344 590.003906 568.960938 588.273438 569.578125 586.625 C 571.492188 581.925781 572.421875 569.238281 571.554688 559.925781 C 570.257812 546.414062 567.042969 537.84375 559.625 528.121094 C 554.679688 521.609375 549.609375 517.738281 541.882812 514.6875 C 537.554688 512.957031 524.265625 513.039062 519.875 514.769531 Z M 542.5625 535.535156 C 549.546875 540.5625 553.382812 547.894531 555.175781 559.679688 C 556.164062 565.941406 556.164062 567.671875 555.546875 572.863281 C 553.8125 586.460938 550.785156 593.464844 544.417969 598.984375 C 535.949219 606.234375 522.96875 605.328125 515.179688 596.839844 C 510.109375 591.320312 507.449219 584.152344 506.585938 573.6875 C 504.917969 554.074219 510.601562 539.65625 522.226562 533.886719 C 524.882812 532.570312 526.613281 532.324219 532.238281 532.652344 C 538.421875 532.898438 539.347656 533.230469 542.5625 535.535156 Z M 542.5625 535.535156 " fill-opacity="1" fill-rule="nonzero"/><path fill="#0a290e" d="M 612.839844 513.785156 C 606.222656 516.503906 603.195312 518.5625 598.1875 523.671875 C 593.242188 528.699219 590.027344 533.972656 587.121094 541.882812 C 579.085938 563.71875 582.113281 588.109375 594.847656 605.082031 C 600.785156 612.992188 605.914062 616.785156 614.074219 619.503906 C 625.015625 623.128906 637.503906 620.328125 646.960938 612.167969 C 651.105469 608.625 656.851562 600.550781 659.265625 595.03125 C 665.261719 581.433594 666.496094 562.644531 662.292969 547.320312 C 657.65625 530.179688 646.097656 517.078125 632.433594 513.535156 C 626.5625 512.054688 616.855469 512.136719 612.839844 513.785156 Z M 630.765625 531.664062 C 635.03125 533.148438 637.132812 534.710938 640.84375 539.164062 C 647.394531 546.992188 650.363281 561.082031 648.445312 574.675781 C 647.210938 583.164062 645.355469 588.191406 641.273438 593.546875 C 636.019531 600.550781 632.3125 602.527344 623.964844 602.527344 C 616.238281 602.609375 612.21875 600.714844 607.214844 594.535156 C 598.558594 583.988281 596.394531 562.730469 602.453125 547.402344 C 603.875 543.777344 608.386719 537.101562 609.4375 537.101562 C 609.746094 537.101562 610.058594 536.773438 610.058594 536.441406 C 610.058594 535.621094 615.867188 532.160156 617.351562 532.160156 C 617.90625 532.160156 618.835938 531.746094 619.328125 531.335938 C 620.6875 530.179688 627.179688 530.34375 630.765625 531.664062 Z M 630.765625 531.664062 " fill-opacity="1" fill-rule="nonzero"/><path fill="#0a290e" d="M 767.703125 509.734375 C 758 512.5 750.582031 520.265625 747.921875 530.351562 C 746.808594 534.636719 746.625 536.957031 746.808594 544.011719 C 746.996094 551.332031 747.242188 553.117188 748.726562 556.6875 C 752.375 565.792969 757.320312 569.898438 771.96875 576.148438 C 782.417969 580.609375 786.1875 584.179688 787.421875 590.699219 C 789.835938 602.925781 780.625 612.390625 770.671875 608.105469 C 767.953125 606.945312 764.242188 601.5 763.625 597.839844 C 763.375 596.410156 763.003906 594.894531 762.695312 594.445312 C 762.324219 593.644531 757.257812 593.464844 748.046875 593.910156 L 745.945312 594 L 746.375 597.75 C 748.539062 616.050781 761.832031 628.277344 777.84375 626.761719 C 789.957031 625.511719 797.4375 619.261719 801.765625 606.675781 C 803.621094 601.230469 803.804688 599.980469 803.804688 592.660156 C 803.742188 582.929688 802.570312 578.378906 798.367188 572.488281 C 794.71875 567.308594 790.082031 564.097656 778.644531 558.738281 C 766.160156 552.9375 762.757812 549.1875 762.757812 540.886719 C 762.757812 530.800781 769.742188 524.820312 777.78125 528.03125 C 780.808594 529.191406 784.640625 534.28125 785.382812 537.941406 L 786.003906 540.886719 L 794.53125 541.15625 L 803.0625 541.421875 L 802.632812 537.582031 C 802.074219 532.585938 799.910156 525.621094 797.6875 521.871094 C 795.273438 517.675781 789.898438 512.945312 785.753906 511.339844 C 782.230469 510 770.609375 508.929688 767.703125 509.734375 Z M 767.703125 509.734375 " fill-opacity="1" fill-rule="nonzero"/><path fill="#0a290e" d="M 418.328125 564.621094 C 418.265625 592.96875 418.203125 616.863281 418.203125 617.605469 C 418.140625 618.921875 418.945312 619.089844 425.683594 619.335938 L 433.285156 619.582031 L 433.410156 598.734375 L 433.59375 577.886719 L 441.941406 577.886719 L 450.78125 598.488281 L 459.558594 619.089844 L 467.84375 619.335938 C 472.417969 619.417969 476.3125 619.253906 476.558594 618.921875 C 476.804688 618.59375 472.851562 609.035156 467.84375 597.828125 C 462.773438 586.539062 458.632812 577.0625 458.632812 576.734375 C 458.632812 576.40625 460.484375 575.003906 462.835938 573.519531 C 469.574219 569.320312 473.035156 564.292969 475.261719 555.394531 C 478.105469 544.1875 476.0625 531.496094 470.128906 523.585938 C 467.222656 519.714844 465.246094 518.148438 459.867188 515.429688 C 456.714844 513.863281 454.921875 513.699219 437.488281 513.367188 L 418.449219 513.039062 Z M 452.574219 530.507812 C 457.828125 532.484375 460.734375 538.007812 460.734375 546.164062 C 460.734375 553.167969 458.816406 557.453125 454.488281 560.253906 C 452.015625 561.820312 450.285156 562.230469 443.980469 562.480469 C 439.839844 562.726562 435.699219 562.644531 434.832031 562.316406 L 433.285156 561.820312 L 433.285156 546.246094 C 433.285156 537.757812 433.472656 530.507812 433.71875 530.261719 C 434.335938 529.355469 450.039062 529.601562 452.574219 530.507812 Z M 452.574219 530.507812 " fill-opacity="1" fill-rule="nonzero"/><path fill="#0a290e" d="M 675.871094 521.410156 L 675.871094 529.238281 L 686.253906 529.402344 L 696.578125 529.648438 L 696.886719 574.558594 L 697.195312 619.464844 L 704.800781 619.714844 L 712.34375 619.960938 L 712.34375 575.546875 C 712.34375 542.175781 712.527344 530.96875 713.085938 530.226562 C 713.578125 529.566406 716.917969 529.238281 723.902344 529.238281 L 733.980469 529.238281 L 733.980469 513.582031 L 675.871094 513.582031 Z M 675.871094 521.410156 " fill-opacity="1" fill-rule="nonzero"/></svg>