<svg width="60" height="91" viewBox="0 0 60 91" fill="none" xmlns="http://www.w3.org/2000/svg">
<path d="M31.1243 0.473045L30.59 1.08709L30.2579 0.710289C29.9546 0.375359 29.4348 0.0404243 29.1893 0.0404243C29.146 0.0404243 29.1316 0.389313 29.1604 0.80798C29.2038 1.3662 29.1749 1.63136 29.0305 1.743C28.7994 1.92442 28.554 1.70113 28.554 1.31038C28.554 1.15687 28.5106 1.15687 28.3374 1.29642C28.2218 1.39411 28.1208 1.54762 28.1208 1.64531C28.1208 1.75695 27.8897 1.91047 27.6009 1.9942L27.0811 2.16166L27.9186 2.4966C29.0016 2.91526 29.7669 3.52931 29.8247 4.0038C29.8536 4.25499 29.8102 4.36664 29.6514 4.36664C29.5359 4.36664 29.4204 4.29686 29.3915 4.21313C29.3626 4.12939 29.0882 4.04566 28.785 4.01775C28.4818 3.98984 28.0486 3.90611 27.8464 3.82237C27.6442 3.75259 27.1244 3.65491 26.7201 3.61304C26.027 3.54326 25.9548 3.57117 25.9548 3.82237C25.9548 3.97588 26.2869 4.42246 26.6912 4.81321L27.4421 5.5389L27.1244 5.77614C26.7779 6.0413 25.4349 6.26459 24.9007 6.12503C24.713 6.08316 24.3808 5.9157 24.1787 5.74823C23.8466 5.51099 23.7888 5.35748 23.7888 4.77135C23.7888 3.92006 23.4856 3.31997 22.9224 3.04086C22.6914 2.92921 22.4748 2.83153 22.417 2.83153C22.2582 2.83153 22.3592 4.11544 22.5614 4.57597C22.6625 4.84113 22.9802 5.19001 23.2401 5.34352C23.8032 5.6645 24.1642 6.30645 24.2653 7.14378C24.3375 7.67409 24.2942 7.84156 23.991 8.17649C23.7022 8.49747 23.6733 8.62307 23.8177 8.7068C24.1209 8.90218 25.5071 8.84636 25.9548 8.62307C26.3591 8.42769 26.3591 8.42769 26.5901 8.97195C26.9656 9.87906 26.9223 9.94884 26.0125 9.94884C25.2183 9.94884 25.2039 9.9628 25.2761 10.3117C25.3194 10.535 25.2761 10.7024 25.1461 10.7443C24.7851 10.8699 23.991 10.5071 23.7455 10.0884C23.6011 9.86511 23.37 9.61391 23.2256 9.53017C23.0524 9.44644 22.9224 9.16733 22.8502 8.74867C22.778 8.2044 22.8069 8.02298 23.0524 7.702C23.2256 7.47871 23.3556 7.25543 23.3556 7.18565C23.3556 7.12983 23.0957 6.82281 22.778 6.52974C22.287 6.06921 22.2004 5.90174 22.2004 5.39935C22.2004 4.89695 22.1282 4.77135 21.7095 4.45037C21.3485 4.18521 21.2329 4.01775 21.2763 3.78051L21.3485 3.45953L21.1752 3.76655C21.0452 4.01775 20.8575 4.08753 20.4099 4.11544L19.8178 4.12939L20.3954 4.18521C20.7131 4.22708 21.1896 4.4085 21.4495 4.60388C21.8394 4.88299 21.9261 5.0365 21.8827 5.38539C21.8394 5.76219 21.7817 5.83197 21.4784 5.80405C20.973 5.77614 19.6734 6.13899 19.4713 6.37623C19.0092 6.90654 21.1752 7.28334 21.8972 6.7949C22.1571 6.61348 22.3015 6.59952 22.5758 6.72512C22.9946 6.90654 23.0235 7.31125 22.6336 7.64618C22.4459 7.81365 22.3448 8.0788 22.3448 8.41373C22.3448 8.91613 22.3304 8.94405 21.7528 9.01382C21.4351 9.05569 21.1319 9.12547 21.0885 9.15338C20.8575 9.37666 21.3918 10.0326 22.547 10.9536C22.908 11.2467 22.9368 11.3304 22.7924 11.5956C22.6047 11.9445 21.9261 12.3213 21.4929 12.3213C21.2474 12.3213 21.1319 12.084 20.7564 10.9397C20.5254 10.1861 20.3232 9.4604 20.3232 9.3348C20.3232 9.19524 20.2655 9.13942 20.1788 9.18129C20.0922 9.22316 20.0344 9.12547 20.0344 8.958C20.0344 8.79053 19.9911 8.69284 19.9478 8.73471C19.89 8.79053 19.9333 9.2092 20.02 9.68369C20.1211 10.1442 20.1644 10.5629 20.1211 10.6048C20.0922 10.6466 19.6879 10.3815 19.2402 10.0326C18.0995 9.13942 17.9551 9.22316 18.9226 10.214C19.3702 10.6606 19.7745 11.2048 19.8323 11.4142C19.9911 12.0282 19.428 12.3631 18.5471 12.1399C18.1284 12.0282 17.724 11.3723 17.724 10.7862C17.724 10.3117 17.3053 9.68369 16.8143 9.39062C16.1212 8.97195 15.9913 9.02778 15.9913 9.7116V10.2977L15.1682 10.3117C14.374 10.3117 13.3921 10.6466 13.3921 10.8978C13.3921 10.9536 13.5798 11.1071 13.8108 11.2467C14.2873 11.5119 15.0527 11.5537 15.6447 11.3444C16.1068 11.163 16.1212 11.1769 16.2367 11.8049C16.3089 12.2794 16.2801 12.3073 15.688 12.6004C15.3415 12.7818 15.0238 12.9353 14.9949 12.9632C14.966 12.9772 15.0815 13.1726 15.2548 13.3819C15.7747 14.0099 15.6158 14.8472 14.8649 15.4892C14.5906 15.7264 14.3307 15.8102 13.7964 15.8102C12.8145 15.8102 12.5257 15.6287 12.5257 15.0426C12.5257 14.7914 12.4679 14.4146 12.3813 14.2192C12.2513 13.8703 11.4427 13.2842 10.8362 13.1028C10.5474 13.0191 10.5041 13.047 10.5041 13.3679C10.5041 13.8564 10.7351 14.275 11.1972 14.6518C11.6448 15.0147 11.5727 15.1124 10.6196 15.4613C10.2297 15.6008 9.9265 15.7683 9.9265 15.8381C9.9265 15.8939 10.0565 16.3126 10.2153 16.7452C10.6196 17.8756 10.6052 18.043 10.0276 18.043C9.56551 18.043 8.91571 18.364 8.91571 18.5873C8.91571 18.685 9.62327 19.0199 10.2586 19.2153C10.4463 19.2711 10.5041 19.4386 10.5041 19.927C10.5041 20.4992 10.533 20.555 10.8507 20.555C11.3705 20.555 12.0636 20.8341 12.1502 21.0714C12.2802 21.3924 11.847 21.7831 11.1683 21.9785C10.3886 22.1878 10.2586 22.3134 10.7063 22.4251C11.1106 22.5228 11.2117 22.8437 10.8651 22.9833C10.5763 23.081 10.5907 23.6392 10.894 24.2532C11.1395 24.7556 11.1395 24.7696 10.8362 24.9929C10.4463 25.2859 10.2153 25.8581 10.2153 26.5419C10.2153 27.2118 10.3019 27.2816 10.7929 27.0443C11.2261 26.835 11.6593 26.0814 11.6593 25.5511C11.6593 25.1045 11.8037 24.9371 12.2802 24.8254C12.7423 24.7138 12.7712 24.5882 12.3813 24.2532C12.0492 23.9602 11.9914 23.374 12.3091 23.2624C12.4246 23.2205 12.9733 23.3182 13.5365 23.4857C14.0996 23.6532 14.605 23.7648 14.6483 23.7229C14.7783 23.5834 14.5328 23.3461 13.9552 23.0531C13.2188 22.6902 13.2621 22.4669 14.1718 21.825C14.7494 21.4342 14.9083 21.3784 15.1104 21.504C15.2404 21.6017 15.5436 21.7971 15.7747 21.9506L16.2079 22.2297L16.2512 21.518C16.3089 20.7085 16.4967 20.569 17.2331 20.8202C17.5796 20.9458 17.7962 20.9458 18.0128 20.8341C18.2583 20.7085 18.3883 20.7504 18.7926 21.0435C19.4424 21.518 19.6012 21.49 19.6012 20.862C19.6012 20.569 19.6445 20.2759 19.6879 20.2341C19.8467 20.0805 20.3232 20.4155 20.612 20.876C21.1319 21.6994 20.9153 22.6065 20.0633 23.1647C19.6879 23.402 19.5001 23.4438 19.2258 23.3322C19.0236 23.2624 18.5616 23.2066 18.1861 23.2066C17.6518 23.2066 17.4208 23.2903 17.1031 23.5694C16.8865 23.7648 16.7133 23.9741 16.7421 24.016C16.771 24.0718 16.8865 24.2811 16.9876 24.4905C17.2475 24.965 17.0887 25.5371 16.6699 25.6488C16.4967 25.7046 16.1934 25.9 15.9913 26.0675C15.7891 26.2489 15.4714 26.4303 15.2693 26.4861C15.0671 26.528 14.7494 26.6815 14.5617 26.8211L14.2152 27.0862L14.6628 27.3095C15.5581 27.7561 17.1176 27.3793 17.0454 26.7373C17.0165 26.4722 17.1031 26.4163 17.6663 26.3326C18.4894 26.221 18.8215 26.4582 18.6049 26.9885C18.5327 27.1839 18.4605 27.5886 18.446 27.8817C18.3594 29.2214 18.4894 29.333 19.3413 28.6492C19.89 28.2026 20.1788 27.5607 20.1788 26.7513C20.1788 26.5001 20.3088 26.1651 20.4532 25.9837L20.742 25.6488L21.2618 26.2349C21.8105 26.8629 22.3159 27.1141 22.4892 26.835C22.6769 26.5419 22.4892 25.1185 22.186 24.6579C21.9983 24.3509 21.9261 24.0858 21.9983 23.8485C22.0993 23.4159 22.0705 23.4159 22.7058 23.7648C23.9188 24.4207 23.991 23.8206 22.8935 22.3413C22.6769 22.0622 22.7202 22.0064 23.2401 21.8808C23.5289 21.811 23.6588 21.8389 23.7022 21.9645C23.731 22.0762 23.8321 22.439 23.9332 22.774C24.0198 23.1089 24.3231 23.5973 24.583 23.8625C25.0017 24.2811 25.0451 24.4067 24.9295 24.6998C24.7274 25.2022 24.7707 25.4115 25.0884 25.6767C25.2761 25.8302 25.3772 26.0954 25.3772 26.3884C25.3772 27.0443 25.7671 27.784 26.258 28.0212C26.4746 28.1329 26.6912 28.2306 26.749 28.2306C26.9656 28.2306 26.7923 26.8908 26.5035 26.4024C26.258 25.9837 26.2291 25.8163 26.3591 25.6907C26.4602 25.593 26.5324 25.4115 26.5324 25.272C26.5324 25.1324 26.5901 25.0208 26.6623 25.0208C26.8934 25.0208 27.6442 25.9558 28.063 26.7792L28.4818 27.6026V31.6636C28.4818 34.7757 28.4384 35.8084 28.294 36.0596C28.1785 36.241 27.7453 36.6736 27.3121 37.0086C26.6479 37.5528 26.3591 37.6645 25.2761 37.8878C24.5686 38.0273 23.0668 38.2087 21.9116 38.2785C19.1103 38.446 18.1572 38.6274 16.7855 39.2694C15.5292 39.8555 15.6014 39.9811 16.9154 39.5345C17.9262 39.1996 19.298 39.0321 22.6336 38.8367C24.0198 38.753 25.4061 38.6414 25.7093 38.5995C26.3447 38.5018 26.388 38.6693 25.897 39.395L25.5649 39.8834H22.547C19.7312 39.8834 19.4857 39.8974 18.9514 40.1904C18.6338 40.3439 18.215 40.6649 18.0128 40.8742L17.6518 41.265L18.1284 40.8882C18.7782 40.3858 19.0236 40.3998 19.0381 40.958C19.067 41.4185 19.067 41.4185 19.1247 41.0138C19.2691 40.0648 19.7745 39.9532 22.8935 40.1346C24.3664 40.2323 24.7996 40.3021 24.7996 40.4556C24.7996 40.7766 24.1787 41.0557 22.9802 41.265C21.4351 41.5162 21.0163 41.7534 20.3377 42.7303C19.7456 43.5677 19.529 43.7212 18.9514 43.7212C18.7637 43.7212 18.5616 43.7909 18.5038 43.8886C18.446 43.9863 18.4605 44.0003 18.5616 43.9445C18.6626 43.8886 18.7348 43.9305 18.7348 44.0421C18.7348 44.1538 18.3594 44.4329 17.9118 44.6701C17.4497 44.9074 16.9154 45.2423 16.7277 45.4098C16.3523 45.7447 15.9913 46.4983 16.0057 46.8891C16.0057 47.0426 16.0779 46.9728 16.1645 46.7216C16.3811 46.1355 17.1031 45.4237 17.9118 45.033C18.6482 44.6562 18.706 44.6841 18.3594 45.1865C18.215 45.3958 18.1572 45.6889 18.2006 45.9122C18.2583 46.2053 18.1717 46.3867 17.7818 46.7495C17.493 47.0147 17.2908 47.3356 17.2908 47.5171C17.3053 47.7962 17.3342 47.7822 17.493 47.4054C17.6807 47.0007 18.215 46.5123 18.4894 46.5123C18.5471 46.5123 18.7348 46.7774 18.8792 47.0984C19.1536 47.6706 19.168 47.6845 19.168 47.2938C19.168 47.0565 18.9948 46.6379 18.7926 46.3588C18.3161 45.6749 18.4027 45.3958 19.3702 44.6981C19.7889 44.391 20.3377 43.8328 20.5976 43.4421C21.3051 42.3814 21.9116 42.0046 22.9946 41.9349L23.8899 41.879L24.0632 42.3256C24.1498 42.5768 24.222 43.0792 24.222 43.4421C24.222 44.1957 23.8899 44.5725 22.6769 45.1865C21.6661 45.6889 21.0597 46.3029 20.9586 46.9449C20.8575 47.5729 20.7997 47.6287 20.1788 48.0474C19.1247 48.7312 18.8215 49.1638 18.6771 50.2105C18.6193 50.5873 18.5471 51.0339 18.5038 51.1874C18.446 51.4107 18.4605 51.4246 18.576 51.2571C18.6626 51.1455 18.7348 50.9083 18.7348 50.7408C18.7348 50.2663 19.1825 50.4338 19.5001 51.0339C19.659 51.313 19.8034 51.5223 19.8467 51.4944C19.9333 51.3967 19.5146 50.5454 19.1536 50.1268C18.8937 49.8058 18.8792 49.7081 19.0236 49.429C19.2547 49.0382 19.529 48.7591 20.2077 48.2707L20.742 47.8939L20.9008 48.2009C21.0019 48.3684 21.1174 49.0103 21.1607 49.6383C21.2329 50.6152 21.2618 50.6989 21.3629 50.2803C21.4207 50.0151 21.464 49.2894 21.4495 48.6754C21.4351 47.0844 21.5651 46.5821 22.1426 46.1215C22.4026 45.9122 22.8646 45.647 23.1679 45.5493C24.7707 45.0051 25.1606 44.4469 25.0451 42.8699C24.9584 41.5999 25.0451 41.4325 26.0559 40.8324C26.4457 40.5951 27.3121 39.8555 28.0052 39.1856C28.6984 38.5018 29.3193 37.9855 29.3626 38.0413C29.6225 38.2925 29.4059 39.4368 28.9872 40.023C28.655 40.4835 28.554 40.7905 28.554 41.2929C28.554 41.7953 28.4673 42.0465 28.2363 42.2977C27.9619 42.5768 27.8897 42.842 27.832 43.8747L27.7453 45.1167L27.11 45.661C26.6479 46.0517 26.4313 46.3588 26.3302 46.8053L26.1714 47.4194L25.305 47.5031C23.991 47.6287 22.6769 48.2846 23.0379 48.6335C23.139 48.7312 23.2112 49.0243 23.2256 49.3034L23.2401 49.7918L23.37 49.2615C23.63 48.173 24.2509 47.7124 25.3627 47.7962L25.9692 47.838L25.4061 48.6056C24.5252 49.8058 24.1642 50.7268 24.2942 51.4386C24.4386 52.1643 24.4675 53.8668 24.352 54.8856C24.2942 55.3042 24.2942 55.4996 24.3231 55.3042C24.3664 55.1089 24.4675 54.9135 24.5541 54.8577C24.6696 54.7879 24.7274 54.2018 24.7274 53.1411C24.7274 51.3688 24.713 51.3967 25.666 51.7595C26.388 52.0387 26.7634 52.6667 26.9078 53.8808C27.0378 55.053 27.3121 54.8437 27.2111 53.6435C27.11 52.3178 26.9223 52.0107 25.8826 51.5363C25.3916 51.313 24.9007 51.0199 24.7996 50.9083C24.5397 50.6152 24.7851 50.1128 25.8104 48.801C26.2869 48.1869 26.7201 47.4752 26.8067 47.1263C26.9078 46.7216 27.1389 46.3867 27.5143 46.0657C28.193 45.5075 28.3374 45.2423 28.4818 44.3492C28.5684 43.7351 28.5973 43.6933 28.7128 43.9863C29.1316 45.0469 29.3048 46.3309 29.2038 47.4892C29.0449 49.108 29.0594 49.4848 29.2615 50.7687C29.4781 52.1782 29.3048 53.7273 28.7994 54.7739C28.3662 55.681 28.0774 57.2022 28.1496 58.2349C28.2074 58.9327 28.2074 58.9048 28.2363 57.9558C28.2652 57.2161 28.3085 56.965 28.4096 57.1185C28.5106 57.2859 28.554 57.2301 28.554 56.9091L28.5684 56.4905L28.7272 56.8394C28.8716 57.1464 28.9005 57.0487 28.9872 56.0718C29.0449 55.4578 29.1604 54.8158 29.2471 54.6483C29.4059 54.3553 29.6947 53.2807 29.7814 52.6806C29.8391 52.1643 29.9546 52.1782 30.1423 52.7085C30.3734 53.4063 30.3589 54.4111 30.0846 56.3509C29.8391 58.0395 29.8824 60.2445 30.1568 60.412C30.229 60.4538 30.2867 60.3282 30.2867 60.1329C30.2867 59.9096 30.3734 59.77 30.5033 59.77C30.6189 59.77 30.7199 59.8537 30.7199 59.9654C30.7199 60.077 30.821 60.1887 30.9365 60.2445C31.0954 60.3003 31.0521 60.1189 30.7777 59.5886C30.2867 58.6536 30.1857 57.5092 30.4889 56.1416C30.8643 54.4669 30.7921 53.1272 30.2579 51.4107C29.8247 50.0012 29.8102 49.8197 29.7958 47.3496C29.7814 45.9261 29.7236 44.3631 29.6514 43.8607C29.5503 43.0932 29.5936 42.7164 29.8969 41.4883C30.099 40.6789 30.3012 39.7997 30.3589 39.5206C30.4023 39.2275 30.5322 38.9344 30.6333 38.8507C30.9799 38.5716 31.8029 39.4229 32.4527 40.7347C32.7704 41.3766 33.4491 42.4233 33.9689 43.0513C34.4888 43.6793 34.9075 44.3073 34.9075 44.4329C34.9075 44.7399 34.561 45.0051 33.5068 45.5214C33.0159 45.7587 32.5683 46.0099 32.5249 46.1076C32.4672 46.1913 32.3661 46.6797 32.2939 47.1821C31.9907 49.2057 31.9907 49.7779 32.2073 50.4896C32.3805 51.0478 32.4383 51.1036 32.4383 50.7966C32.4527 50.5733 32.3805 50.2803 32.3083 50.1268C32.1495 49.8616 32.3517 48.2148 32.5971 47.7822C32.7127 47.5729 33.579 48.801 33.839 49.5825C34.0122 50.057 34.0122 50.057 34.0267 49.6802C34.0411 49.2615 33.8101 48.7312 33.2469 47.838C32.7127 47.0147 32.7704 46.596 33.4491 46.1494C33.7668 45.9541 34.2722 45.7587 34.5898 45.7168C35.1386 45.647 35.1819 45.6749 35.4273 46.1076C35.7595 46.7216 35.8894 49.3034 35.6295 50.2524C35.1241 52.1224 34.8642 52.6527 34.0267 53.5877C33.5502 54.0901 33.1747 54.6065 33.1892 54.7321C33.1892 54.9274 33.2036 54.9274 33.2758 54.746C33.4058 54.4111 33.7812 54.0482 33.9978 54.0482C34.1422 54.0482 34.1855 54.3553 34.2144 55.2624C34.2144 55.9462 34.2577 56.2811 34.2866 56.0299C34.3155 55.7787 34.431 55.5834 34.5321 55.5834C34.8209 55.5834 36.1493 56.5742 36.4093 56.9789C36.5248 57.1743 36.6403 57.2441 36.6403 57.1324C36.6403 56.951 36.2071 56.5184 34.922 55.4298C34.2433 54.8577 34.1855 54.4948 34.6187 53.7691C34.7776 53.504 35.1241 52.876 35.3696 52.3736C35.8172 51.4804 35.8317 51.4804 35.9327 51.8851C36.0049 52.1922 36.0338 52.2201 36.0483 51.9968C36.0771 51.5642 36.2215 51.2571 36.4093 51.2571C36.6403 51.2571 37.9254 52.4992 38.1854 52.9737C38.3298 53.2667 38.3875 53.6575 38.3442 54.2576C38.3009 54.8995 38.3442 55.1228 38.4742 55.1228C38.5752 55.1228 38.6619 55.0391 38.6619 54.9274C38.6619 54.8298 38.7341 54.746 38.8063 54.746C38.9074 54.746 38.9074 54.6623 38.8063 54.4809C38.7341 54.3274 38.6619 54.0901 38.6619 53.9506C38.6619 53.2667 38.3009 52.6108 37.4201 51.6619C36.8858 51.0897 36.4093 50.4896 36.3371 50.3082C36.2649 50.1268 36.2504 49.094 36.2937 47.9916C36.3804 46.289 36.3515 45.8982 36.1349 45.2563C35.7595 44.1538 35.2974 43.3304 34.6043 42.535C33.839 41.6558 33.3191 40.5951 33.3191 39.9113C33.3191 39.4229 33.348 39.395 33.6079 39.5345C33.7668 39.6183 34.2577 40.1904 34.7054 40.8045C35.7161 42.2 36.1782 42.6466 37.4056 43.4002C38.0843 43.8328 38.3731 44.098 38.3731 44.3073C38.3731 44.5445 38.4164 44.5585 38.5752 44.4329C38.7341 44.3073 38.864 44.3073 39.0806 44.405C39.8893 44.8237 40.0192 45.8005 39.4705 47.1124C39.1528 47.838 39.1528 47.9078 39.3839 47.838C39.5716 47.7822 39.6582 47.866 39.7304 48.2009C39.8893 48.9684 39.8315 49.4848 39.5427 49.7779C39.3983 49.9453 39.225 50.2244 39.1673 50.4198L39.0662 50.7687L39.3694 50.378C39.5572 50.1686 39.7882 50.0012 39.8893 50.0012C40.077 50.0012 40.438 50.9641 40.5968 51.8851C40.6835 52.4155 40.5535 50.9501 40.438 50.2384C40.3658 49.7779 40.3947 49.722 40.6979 49.722C40.8712 49.722 41.1455 49.8337 41.3044 49.9593C41.5787 50.1965 41.5932 50.1965 41.4199 49.9035C41.3188 49.722 41.0156 49.5267 40.6835 49.4429C40.0626 49.2755 40.0337 49.2336 39.9037 47.8939C39.846 47.3636 39.8893 46.903 40.0337 46.5123C40.1492 46.1913 40.2503 45.661 40.2503 45.354C40.2503 44.8795 40.1636 44.712 39.6438 44.2515C39.2972 43.9445 38.5175 43.4142 37.911 43.0653C36.467 42.2279 35.9761 41.7534 35.2396 40.4556C34.6043 39.381 34.5176 39.1159 34.7487 39.1159C35.0952 39.1159 38.8063 40.9301 38.9362 41.1673C39.0084 41.3208 39.124 41.7814 39.1817 42.2C39.2828 42.9257 39.2972 42.9397 39.4128 42.521C39.6149 41.7674 40.2503 41.7395 40.2503 42.4791C40.2503 42.9536 40.5679 43.6095 41.4199 44.8655C41.9975 45.7308 42.0119 45.7726 41.9397 46.7495C41.9109 47.3077 41.9253 47.7264 41.9831 47.6985C42.0408 47.6566 42.3441 47.7962 42.6473 47.9776L43.2104 48.3265L42.6617 47.852C42.1275 47.3915 42.113 47.3496 42.1997 46.7495C42.3152 46.0238 42.113 45.2842 41.6365 44.726C40.799 43.7351 40.2503 42.3256 40.7123 42.3256C40.9001 42.3256 43.4559 43.9724 44.0335 44.4748C44.409 44.7957 44.5534 45.5493 44.6978 47.7404C44.77 48.9126 44.8855 49.7918 44.9866 49.8895C45.1165 50.0151 45.1165 49.9453 45.0154 49.5685C44.8422 49.0103 44.8133 46.3727 44.9866 46.3727C45.0443 46.3727 45.232 46.5821 45.3909 46.8333C45.593 47.1263 45.9973 47.4054 46.5894 47.6566C47.0659 47.852 47.4702 47.9776 47.4702 47.9218C47.4702 47.866 47.037 47.5589 46.5172 47.224C45.4775 46.5681 45.1021 45.9959 45.1887 45.2005C45.232 44.7818 45.2465 44.7678 45.9251 44.7818C46.3872 44.7818 46.7338 44.8795 47.037 45.0888C47.3403 45.3121 47.4702 45.354 47.4702 45.2144C47.4702 44.8097 46.8926 44.5027 45.9829 44.4469C45.1743 44.391 45.0299 44.3352 44.5534 43.8607C44.2646 43.5677 43.2538 42.8838 42.3152 42.3535C41.3766 41.8093 40.3225 41.0696 39.9615 40.7207C39.2395 39.9951 38.7485 39.7159 37.3623 39.2554C36.8425 39.0879 36.3226 38.8647 36.2071 38.753C36.0338 38.5855 36.0916 38.5576 36.6403 38.5576C37.4056 38.5576 40.308 39.1159 41.3333 39.4647C41.7376 39.5903 42.3874 39.7299 42.7773 39.7718C43.3548 39.8415 43.5714 39.9392 43.8891 40.3021C44.0913 40.5393 44.5534 40.8463 44.8999 40.9859C46.0984 41.4604 46.4017 41.6418 46.6471 42.0186C46.8349 42.3256 46.8926 42.3396 46.8926 42.1302C46.8926 41.9488 46.9648 41.907 47.1525 41.9767C47.6724 42.1861 48.6832 42.4652 48.8998 42.4512C49.0297 42.4512 48.7265 42.3256 48.2211 42.1861C47.037 41.8651 46.8493 41.6976 47.3114 41.3348L47.6579 41.0557L47.0803 41.1534C46.7049 41.2092 46.1995 41.1534 45.6652 40.9998C44.8277 40.7766 44.0624 40.2044 44.2212 39.9532C44.2646 39.8695 44.7411 39.8136 45.2754 39.8136C46.4739 39.8136 47.759 39.6322 49.3185 39.2275C50.4593 38.9484 50.5459 38.9484 50.9358 39.1577C51.3401 39.395 51.3401 39.395 51.3112 39.0461C51.2968 38.7391 51.2246 38.6972 50.7914 38.6972C50.517 38.6972 49.8672 38.8228 49.3763 38.9763C47.398 39.5764 43.3982 39.4508 41.6365 38.7391C41.1744 38.5576 40.3369 38.3483 39.7593 38.2785C39.1962 38.2227 38.5464 38.0971 38.3009 38.0134C38.0698 37.9157 37.0302 37.804 35.9761 37.7622L34.07 37.6784L33.2758 37.0365C32.8426 36.6876 32.3805 36.1992 32.2506 35.9759C31.9185 35.3479 31.7307 33.4918 31.7307 30.7984V28.398L32.6838 27.5607C33.5935 26.7513 34.4021 26.3047 37.0013 25.1603C37.5645 24.9091 38.1709 24.5742 38.3731 24.3928C38.7774 24.0299 40.3225 23.6392 40.5391 23.8485C40.8567 24.1555 40.8423 24.6859 40.5102 25.1603C40.2214 25.579 40.077 25.6488 39.5427 25.6907C39.0373 25.7325 38.0987 26.1372 37.6655 26.514C37.6222 26.5419 37.7377 26.6536 37.911 26.7792C38.1709 26.9467 38.2287 27.1281 38.2287 27.7561C38.2287 28.2724 38.2864 28.5097 38.4164 28.5097C38.7052 28.4957 39.1962 28.0491 39.4561 27.5328C39.7304 26.9885 40.207 26.5559 40.5391 26.5559C40.6546 26.5559 40.8567 26.7652 40.9867 27.0164C41.1889 27.4211 41.9975 28.091 42.2863 28.091C42.3585 28.091 42.4163 27.5886 42.4163 26.9746C42.4163 26.2907 42.474 25.8581 42.5607 25.8581C42.6473 25.8581 43.0805 26.0814 43.5137 26.3466C43.9469 26.6117 44.3368 26.835 44.3801 26.835C44.4378 26.835 44.4378 26.514 44.409 26.1372C44.3368 25.4674 44.3656 25.4115 44.7411 25.2301C45.362 24.9091 45.5497 24.9789 45.8963 25.5651C46.1562 26.0116 46.6616 26.4163 46.9648 26.4163C47.0081 26.4163 47.037 26.0954 47.037 25.7046C47.037 25.2162 46.9359 24.8254 46.7338 24.5184C46.4883 24.1416 46.4739 24.002 46.6183 23.7508C46.7193 23.5694 46.7482 23.1926 46.6905 22.8437C46.6471 22.5088 46.6327 22.2297 46.6616 22.2297C46.676 22.2297 46.9215 22.3274 47.1814 22.453C47.5713 22.6484 47.6724 22.6484 47.7735 22.4948C47.889 22.3274 47.9323 22.3274 48.0911 22.5088C48.3511 22.8158 49.0153 23.2066 49.1164 23.1089C49.2752 22.9554 49.203 22.0901 48.9864 21.6017C48.7842 21.1272 48.7987 21.0993 49.2174 20.6248C49.4629 20.3596 49.7517 20.1364 49.8672 20.1364C49.9683 20.1364 50.1849 20.3736 50.3438 20.6667C50.7192 21.3784 50.9935 21.5738 51.4556 21.49C51.7733 21.4342 51.9466 21.5319 52.3798 21.9645C53.1018 22.7042 53.2462 22.6623 53.2462 21.7412C53.2462 21.0295 53.2751 20.9737 53.7227 20.7504C53.9682 20.6248 54.2136 20.4992 54.2425 20.4713C54.3869 20.3457 53.8815 19.9829 53.3761 19.8573C52.8563 19.7177 52.813 19.6619 52.813 19.2293C52.813 18.6013 52.5819 18.4896 52.322 18.992C52.0188 19.5642 51.6 19.634 51.0802 19.2153C50.6326 18.8525 50.2427 17.9453 50.4448 17.7639C50.517 17.7081 50.8203 17.5825 51.1235 17.4848C51.4123 17.4011 51.6578 17.2615 51.6578 17.1917C51.6578 17.122 51.3979 16.9406 51.0946 16.787C50.3871 16.4382 50.3149 16.3405 50.5026 15.8799C50.647 15.5031 50.647 15.5031 50.1849 15.5869C49.7373 15.6566 49.6795 15.6287 49.2463 15.0007C48.6976 14.2471 48.6976 14.1774 48.9864 13.6331C49.2608 13.1307 49.2752 12.0422 49.0153 12.0422C48.9142 12.0422 48.611 12.2096 48.3511 12.419C48.0045 12.712 47.8601 12.9632 47.8023 13.4098C47.7301 13.8843 47.6435 14.0518 47.3691 14.1494C47.167 14.2192 46.9504 14.2471 46.8926 14.2053C46.8204 14.1634 46.7915 13.6191 46.8493 13.0191C46.9504 11.7212 46.8637 11.6514 45.9251 12.3073C45.3042 12.7399 45.0154 13.4098 45.0154 14.4007C45.0154 14.903 44.9577 15.0147 44.5534 15.2519C44.2934 15.4054 44.0191 15.531 43.9613 15.531C43.7303 15.531 43.687 15.0845 43.9036 14.6518C44.0191 14.4146 44.149 13.8703 44.1779 13.4656C44.2501 12.712 44.2501 12.712 43.8747 12.7818C43.2249 12.9074 43.0516 12.712 43.2682 12.0561C43.427 11.4979 43.9902 11.0234 44.77 10.7443C45.1598 10.6048 45.0588 10.4373 44.4378 10.1582C44.1202 10.0186 43.8602 9.85115 43.8602 9.78138C43.8602 9.72555 44.0913 9.55809 44.3801 9.43249C44.7844 9.23711 44.9432 9.22316 45.1598 9.36271C45.3187 9.4604 45.6364 9.53017 45.8818 9.53017C46.3728 9.53017 47.4702 9.13942 47.4702 8.97195C47.4702 8.90218 47.2969 8.72076 47.0948 8.56725C46.6616 8.23232 46.0551 8.19044 45.3476 8.44165C44.9432 8.5812 44.7988 8.5812 44.4667 8.38582C43.7592 7.96716 43.918 7.43685 44.8422 7.06005C45.4342 6.82281 45.3764 6.5437 44.7411 6.48787C44.2646 6.44601 44.2646 6.43205 44.3368 5.90174C44.4234 5.21792 44.3656 5.1621 43.8314 5.42726C43.5426 5.56681 43.2971 5.87383 43.1094 6.33436C42.7339 7.18565 42.4163 7.24147 42.4163 6.45996C42.4163 5.81801 42.2285 5.74823 41.6509 6.18085C41.2177 6.51579 40.9723 7.21356 40.9723 8.13462C40.9723 8.60911 40.8856 8.86031 40.6113 9.15338C40.1636 9.61391 40.077 9.61391 39.5138 9.22316L39.0806 8.90218L38.5608 9.50227C37.9543 10.214 37.0735 10.6745 36.4526 10.6187C35.9327 10.5768 35.745 10.1163 36.1349 9.80928C36.2504 9.7116 36.3515 9.51622 36.3515 9.37666C36.3515 9.0836 36.1349 9.09755 35.0086 9.47435C34.3588 9.69764 34.2866 9.61391 34.3588 8.60911C34.3877 8.10671 34.4599 7.92529 34.6187 7.92529C34.7487 7.92529 34.8498 8.0788 34.8786 8.30209C34.9075 8.52538 34.9942 8.69284 35.0808 8.69284C35.3985 8.69284 36.2071 7.98111 36.4381 7.50663C36.6403 7.10192 36.7558 7.01818 37.1313 7.01818C37.55 7.01818 37.6078 6.96236 37.7666 6.39019C37.9399 5.77614 38.0698 5.67846 38.6619 5.76219C38.7774 5.77614 39.0229 5.9157 39.1962 6.06921C39.6149 6.44601 39.8171 6.2925 39.8171 5.60868C39.8171 5.10628 39.7882 5.06441 39.4272 5.06441C39.1962 5.06441 38.8785 5.02254 38.6908 4.98068C38.3875 4.89695 38.3731 4.84113 38.4597 4.26895C38.5464 3.66886 38.5464 3.64095 38.2576 3.79446C37.8099 4.01775 37.2179 3.98984 37.1168 3.72468C36.9724 3.36184 37.2612 3.05482 37.9832 2.83153C38.9796 2.52451 39.0806 2.34309 38.503 2.00815C37.9543 1.67322 37.6655 1.65926 36.8858 1.8686C36.4093 1.9942 36.2937 1.96629 35.8461 1.64531C35.2829 1.22664 35.1097 1.26851 34.9797 1.85464C34.922 2.07793 34.8209 2.30122 34.7487 2.35704C34.5754 2.45473 33.1747 2.14771 33.1747 2.02211C33.1747 1.96629 33.3047 1.72904 33.4635 1.50575C33.7668 1.05918 33.8534 0.319534 33.6079 0.319534C33.5213 0.319534 33.1892 0.445137 32.8715 0.612602C32.3228 0.877758 32.265 0.877758 32.0195 0.668423C31.8607 0.52887 31.7307 0.30558 31.7019 0.138115C31.6585 -0.0991287 31.5863 -0.0572624 31.1243 0.473045ZM36.3515 19.6898V20.3596L37.1168 20.3457C37.8244 20.3457 37.8677 20.3596 37.8677 20.6946C37.8677 20.9597 37.7377 21.0993 37.2757 21.3226C36.6259 21.6156 36.0627 22.0622 36.0627 22.2576C36.0627 22.3134 36.2649 22.3692 36.4959 22.3692C36.9291 22.3692 36.9291 22.3692 36.7125 22.774C36.3948 23.374 33.7523 24.5323 33.7523 24.0718C33.7523 23.7508 34.0989 23.2066 34.301 23.2066C34.4599 23.2066 34.4888 23.0112 34.4599 22.3274C34.431 21.8389 34.4888 21.3365 34.5898 21.1551C34.8209 20.7504 34.8353 20.7783 34.2288 20.2341C33.8967 19.9131 33.7379 19.6758 33.7956 19.5363C33.9112 19.2432 34.6332 19.0478 35.6006 19.0339L36.3515 19.0199V19.6898ZM30.1423 20.5969C30.8355 20.9318 31.0087 21.2388 30.6622 21.5738C30.3734 21.8529 30.5178 21.9506 31.1965 21.9506H31.7596L31.6585 22.4669C31.543 23.081 31.2542 23.709 30.6766 24.644C30.3156 25.2162 30.229 25.2859 30.0268 25.1324C29.6658 24.8394 27.9764 22.6204 27.9764 22.439C27.9764 22.3413 28.1063 22.118 28.2507 21.9227C28.4096 21.7412 28.5684 21.3365 28.6262 21.0295C28.8139 19.9829 28.8139 19.9829 30.1423 20.5969ZM26.7923 22.0064C26.8356 22.774 26.8501 22.8158 27.1822 22.7321C27.4565 22.6623 27.5865 22.746 27.8464 23.0949C28.1063 23.4438 29.7525 25.4674 30.0846 25.8442C30.1857 25.9558 30.6044 25.5092 30.9799 24.8673C31.2398 24.4067 31.4708 24.1835 31.6585 24.1835C32.0917 24.1835 32.8282 23.695 33.117 23.2205C33.7234 22.2297 33.7812 23.067 33.1892 24.1974L32.7704 24.9929L33.7379 24.6719C34.2577 24.5044 35.0952 24.1835 35.5862 23.9741C36.3371 23.6532 36.5392 23.6252 36.7125 23.7648C36.9435 23.9462 36.9724 23.9323 38.1132 22.8856C38.503 22.5367 38.6474 22.6902 38.5175 23.3461C38.3875 24.0718 38.2142 24.2393 37.2323 24.6859C33.6512 26.3047 32.6982 26.849 31.8896 27.7561L31.4131 28.2864L31.4708 31.845C31.543 35.8363 31.6008 36.0875 32.5394 36.9109C32.857 37.2039 33.0303 37.4691 32.9726 37.5528C32.9004 37.6784 32.0773 37.7203 30.2001 37.7203C27.2255 37.7203 27.1244 37.6784 28.063 36.8551C28.3518 36.6039 28.6695 36.1992 28.7706 35.948C28.9583 35.5293 29.0305 35.4874 29.6658 35.4595L30.3589 35.4316L29.6803 35.3897C29.1316 35.3479 28.9872 35.2781 28.9872 35.0827C28.9872 34.9432 29.1316 34.7617 29.3193 34.678L29.637 34.5245H29.3193C28.8283 34.5105 28.9005 34.0919 29.3915 34.0779L29.7814 34.064L29.4204 33.9663C29.1027 33.8825 29.0594 33.7848 29.016 33.0592C28.9727 32.3335 29.0016 32.2497 29.2904 32.18L29.6225 32.0962L29.3048 31.9846C29.0305 31.8869 28.9872 31.7613 28.9872 31.0356C28.9872 30.2262 29.0016 30.1843 29.3915 30.1006C30.0702 29.961 30.0846 29.9331 29.5359 29.9192C28.9294 29.9052 28.7272 29.5005 29.3193 29.4726L29.637 29.4447L29.3193 29.3889C29.0305 29.333 28.9872 29.2493 28.9872 28.5794C28.9872 27.9096 29.0305 27.8258 29.3193 27.77C29.5936 27.7142 29.5936 27.7142 29.2471 27.6863C28.9294 27.6723 28.8283 27.5607 28.6117 27.0304C28.3951 26.4861 28.3951 26.3745 28.5684 26.2628C28.7272 26.1651 28.7128 26.1372 28.4818 26.1372C28.1785 26.1372 28.0341 26.0116 27.341 25.0906C27.11 24.7835 26.6335 24.2393 26.2869 23.8904C25.6949 23.2903 25.3916 22.6344 25.3772 21.9087C25.3772 21.6436 26.2003 21.0853 26.5324 21.1412C26.6912 21.1691 26.7634 21.4063 26.7923 22.0064Z" fill="#0A290E"/>
<path d="M52.6396 38.6555C52.7263 38.6833 52.8997 38.6833 53.0009 38.6555C53.0876 38.6137 53.0153 38.5859 52.813 38.5859C52.6107 38.5859 52.5385 38.6137 52.6396 38.6555Z" fill="#0A290E"/>
<path d="M14.2731 39.395C14.6199 39.6741 14.6199 39.6741 14.3453 39.8834C14.1864 39.9951 14.1141 40.0927 14.2008 40.0927C14.2731 40.0927 14.4609 39.9951 14.6054 39.8834C14.7644 39.7718 15.0245 39.6741 15.1834 39.6601C15.3713 39.6601 15.299 39.5903 14.9811 39.5066C14.7066 39.4368 14.4176 39.3112 14.3453 39.2415C14.2586 39.1717 14.143 39.1159 14.0708 39.1159C13.9985 39.1159 14.0852 39.2415 14.2731 39.395Z" fill="#0A290E"/>
<path d="M11.0817 39.8139C11.0817 39.8835 11.154 39.953 11.2407 39.953C11.3129 39.953 11.3418 39.8835 11.2985 39.8139C11.2551 39.7305 11.1829 39.6748 11.1395 39.6748C11.1106 39.6748 11.0817 39.7305 11.0817 39.8139Z" fill="#0A290E"/>
<path d="M18.8217 41.8651C18.735 42.0604 18.7495 42.0744 18.894 41.9488C18.9951 41.8511 19.0385 41.7395 18.9951 41.6976C18.9518 41.6557 18.8651 41.7255 18.8217 41.8651Z" fill="#0A290E"/>
<path d="M15.558 43.5258C14.9659 43.777 14.6194 44.0561 14.2151 44.6283L13.9263 45.047L14.345 44.6562C14.8649 44.1957 14.9515 44.1957 15.1248 44.5865C15.2547 44.8935 15.2547 44.8935 15.2547 44.6144C15.2692 44.1817 15.8035 43.6096 16.3233 43.4561C16.7276 43.3444 16.742 43.3305 16.4244 43.3165C16.2222 43.3165 15.8323 43.4142 15.558 43.5258Z" fill="#0A290E"/>
<path d="M17.9121 43.6794C18.0421 43.7072 18.2444 43.7072 18.3456 43.6794C18.4323 43.6377 18.3311 43.6098 18.0855 43.6098C17.8543 43.6098 17.7676 43.6377 17.9121 43.6794Z" fill="#0A290E"/>
<path d="M38.113 45.0471C38.113 45.2704 38.1419 45.3542 38.1852 45.2146C38.2141 45.089 38.2141 44.8936 38.1852 44.7959C38.1419 44.7122 38.113 44.8099 38.113 45.0471Z" fill="#0A290E"/>
<path d="M22.9368 50.0152C22.9368 50.2245 22.8213 50.6572 22.7058 50.9781C22.5903 51.2991 22.4892 51.7178 22.4892 51.9132C22.4892 52.1085 22.2437 52.4993 21.8538 52.904C21.2762 53.5041 20.7564 54.2996 20.7564 54.5647C20.7564 54.6205 20.9441 54.3972 21.1752 54.0484C21.3918 53.6995 21.7239 53.2948 21.8972 53.1552L22.2148 52.8761L22.1426 53.7134C22.0993 54.16 22.0993 54.4252 22.1426 54.2856C22.2004 54.1181 22.3159 54.0484 22.4892 54.0902C22.7058 54.146 22.7202 54.1042 22.5903 53.7553C22.4314 53.3506 22.5614 52.1504 22.908 50.8525C23.009 50.5037 23.0524 50.0989 23.0235 49.9454C22.9802 49.7082 22.9513 49.7221 22.9368 50.0152Z" fill="#0A290E"/>
<path d="M34.4887 57.0488C34.4887 57.2023 34.5754 57.5791 34.691 57.8861C34.8066 58.1931 34.9078 58.5978 34.9078 58.7932C34.9078 59.0444 34.9511 59.0863 35.0378 58.9467C35.1101 58.8351 35.2401 58.8072 35.3557 58.863C35.4569 58.9328 35.3846 58.7513 35.2112 58.4583C35.0234 58.1652 34.7922 57.6768 34.6766 57.3558C34.5754 57.0348 34.4887 56.8953 34.4887 57.0488Z" fill="#0A290E"/>
<path d="M16.861 79.0274C15.7395 79.3567 14.7595 79.9238 13.9867 80.7013C13.4213 81.2592 13.2328 81.5336 12.8841 82.3111C11.9794 84.296 12.1679 86.601 13.3742 88.3572C15.4003 91.2934 20.0179 91.8147 22.7603 89.4091C23.3068 88.9243 24.2586 87.6712 24.2586 87.4334C24.2586 87.3785 24.3435 87.1864 24.4377 87.0035C24.7298 86.4821 24.8712 85.0735 24.7393 84.0399C24.5414 82.5398 24.0513 81.5885 22.9205 80.5092C22.1666 79.7866 21.3938 79.3567 20.2158 79.0182C19.5562 78.8261 17.5301 78.8353 16.861 79.0274ZM20.3195 81.3324C21.3844 81.8903 21.9687 82.7044 22.2419 84.0124C22.3927 84.7076 22.3927 84.8997 22.2985 85.4759C22.0346 86.9852 21.5729 87.7627 20.6022 88.3755C19.3111 89.1804 17.3322 89.0798 16.1448 88.1377C15.372 87.5248 14.9668 86.7291 14.8348 85.5674C14.5804 83.3904 15.4474 81.7897 17.2191 81.1494C17.6243 81.0031 17.8882 80.9757 18.7457 81.0122C19.6881 81.0397 19.8295 81.0763 20.3195 81.3324Z" fill="#0A290E"/>
<path d="M31.6386 79.0231C30.6337 79.3248 30.1735 79.5535 29.4128 80.1205C28.6615 80.6784 28.1731 81.2637 27.7317 82.1416C26.5108 84.5651 26.971 87.2722 28.9057 89.1561C29.8073 90.0341 30.5868 90.4548 31.8265 90.7566C33.4888 91.159 35.3859 90.848 36.8228 89.9426C37.452 89.5494 38.3255 88.6531 38.6917 88.0404C39.6027 86.5314 39.7905 84.4463 39.1519 82.7452C38.4475 80.843 36.6913 79.3889 34.6158 78.9956C33.7236 78.831 32.2491 78.8401 31.6386 79.0231ZM34.3622 81.0076C35.0102 81.1722 35.3295 81.346 35.893 81.8398C36.8885 82.7086 37.3393 84.2725 37.0482 85.7815C36.8604 86.7234 36.5786 87.2813 35.9588 87.8758C35.1605 88.6531 34.597 88.8726 33.3291 88.8726C32.1552 88.8818 31.5447 88.6714 30.784 87.9855C29.4692 86.8149 29.1405 84.4554 30.0608 82.7544C30.2768 82.352 30.9624 81.6112 31.1221 81.6112C31.169 81.6112 31.216 81.5746 31.216 81.538C31.216 81.4466 32.0988 81.0625 32.3242 81.0625C32.4087 81.0625 32.5496 81.0167 32.6247 80.971C32.8314 80.843 33.8175 80.8613 34.3622 81.0076Z" fill="#0A290E"/>
<path d="M54.2775 78.907C52.7561 79.191 51.5932 79.988 51.1766 81.0231C51.0021 81.4628 50.9731 81.701 51.0021 82.4247C51.0312 83.1759 51.07 83.3591 51.3025 83.7255C51.8743 84.6599 52.6495 85.0813 54.9462 85.7225C56.5839 86.1805 57.175 86.547 57.3688 87.2157C57.7468 88.4707 56.3029 89.4417 54.7427 89.002C54.3163 88.8829 53.7349 88.3241 53.638 87.9485C53.5992 87.8019 53.5411 87.6462 53.4926 87.6004C53.4345 87.518 52.6398 87.4996 51.1959 87.5455L50.8665 87.5546L50.9343 87.9394C51.2735 89.8173 53.3569 91.0723 55.8668 90.9165C57.7661 90.7883 58.9387 90.147 59.617 88.8554C59.9078 88.2966 59.9368 88.1684 59.9368 87.4172C59.9271 86.4187 59.743 85.9515 59.0841 85.3469C58.5123 84.8156 57.7855 84.4858 55.9928 83.9362C54.0353 83.3408 53.5023 82.956 53.5023 82.1041C53.5023 81.0689 54.5973 80.4552 55.8571 80.785C56.3319 80.904 56.9327 81.4262 57.049 81.8018L57.1459 82.1041L58.4832 82.1316L59.8205 82.159L59.7527 81.7651C59.6655 81.2521 59.3263 80.5376 58.9775 80.1529C58.5995 79.7223 57.7564 79.2368 57.1072 79.0719C56.5548 78.9345 54.733 78.8246 54.2775 78.907Z" fill="#0A290E"/>
<path d="M2.13255 84.713C2.12294 87.9192 2.11334 90.622 2.11334 90.7059C2.10373 90.855 2.22861 90.8736 3.27568 90.9016L4.45723 90.9296L4.47644 88.5716L4.50526 86.2136H5.15848H5.80209L7.17576 88.5436L8.53983 90.8736L9.82705 90.9016C10.5379 90.9109 11.1431 90.8923 11.1815 90.855C11.2199 90.8177 10.6051 89.7366 9.82705 88.4691C9.03935 87.1922 8.39574 86.1204 8.39574 86.0831C8.39574 86.0458 8.68392 85.8874 9.04896 85.7196C10.096 85.2443 10.634 84.6758 10.9798 83.6692C11.4217 82.4017 11.1047 80.9664 10.1825 80.0716C9.73099 79.6336 9.4236 79.4565 8.58786 79.1489C8.09795 78.9719 7.81937 78.9532 5.11045 78.9159L2.15176 78.8786L2.13255 84.713ZM7.45434 80.8545C8.27086 81.0782 8.72235 81.7026 8.72235 82.6253C8.72235 83.4175 8.42456 83.9022 7.75213 84.2191C7.36789 84.3962 7.09891 84.4428 6.11909 84.4707C5.47548 84.4987 4.83187 84.4894 4.69738 84.4521L4.45723 84.3962V82.6347C4.45723 81.6747 4.48605 80.8545 4.52447 80.8266C4.62054 80.724 7.06049 80.752 7.45434 80.8545Z" fill="#0A290E"/>
<path d="M40.6622 79.7654V80.6522L42.2833 80.6709L43.8947 80.6989L43.9429 85.7862L43.9912 90.8736L45.1781 90.9016L46.3553 90.9296V85.8982C46.3553 82.1177 46.3842 80.8482 46.4711 80.7642C46.5483 80.6896 47.0693 80.6522 48.1597 80.6522H49.7325V79.7654V78.8787H45.1974H40.6622V79.7654Z" fill="#0A290E"/>
<path d="M6.07943 63.5898C5.6426 63.6596 4.43222 64.0699 4.04999 64.2795C2.61209 65.0565 1.58372 66.3573 1.14688 67.9287C0.93757 68.7057 0.919369 70.4168 1.11958 71.1676C1.68382 73.289 3.38564 74.8954 5.6699 75.4454C6.55266 75.6549 8.19988 75.6375 9.00984 75.4105C10.7754 74.9216 12.2315 73.7779 12.9413 72.3374C13.3144 71.5692 13.4509 70.9319 13.4509 69.9803V69.0287H10.0837H6.71648V69.8581V70.6874H8.80052C10.1838 70.6874 10.9119 70.7224 10.9483 70.7835C11.0484 70.9319 10.648 71.8398 10.2839 72.3025C9.9017 72.7914 9.22825 73.2541 8.67311 73.42C8.4729 73.4724 7.83585 73.5247 7.26251 73.5247C6.32515 73.5247 6.16134 73.4986 5.7154 73.2978C4.1501 72.5906 3.44025 71.412 3.43114 69.535C3.42204 67.693 4.35941 66.3223 5.98842 65.7985C6.81658 65.5279 8.08157 65.5803 8.80962 65.9207C9.31926 66.1477 9.82889 66.5493 10.0928 66.916C10.2384 67.1081 10.2748 67.1081 11.6217 67.0906L12.9959 67.0644L12.6774 66.4184C12.0039 65.0827 10.4204 63.9565 8.78232 63.6596C8.12707 63.5374 6.62547 63.5025 6.07943 63.5898Z" fill="#0A290E"/>
<path d="M15.7994 63.5904C15.7489 63.6256 15.7186 66.3444 15.7186 69.6265V75.5922H17.0825H18.4464V73.2693C18.4464 71.2367 18.4666 70.9375 18.6081 70.8935C18.8303 70.8231 19.5881 70.8319 19.7194 70.9111C19.8204 70.9639 20.6085 72.1342 21.4571 73.4804C21.5885 73.7004 21.8613 74.0964 22.0431 74.3691C22.2351 74.6419 22.3866 74.9147 22.3866 74.9675C22.3866 75.0203 22.4169 75.0643 22.4675 75.0643C22.5079 75.0643 22.5988 75.1787 22.6695 75.3282L22.811 75.5922H24.3669C25.2559 75.5922 25.9227 75.557 25.9227 75.513C25.9227 75.4426 25.7207 75.1347 25.1145 74.2724C24.5689 73.498 23.8011 72.3278 23.8011 72.2574C23.8011 72.2134 23.7708 72.1606 23.7203 72.143C23.6192 72.1078 22.9322 71.0871 22.8413 70.8495C22.7908 70.7176 22.8312 70.6472 22.9625 70.612C23.7708 70.3744 24.1042 70.2072 24.6295 69.7673C25.3974 69.1161 25.7409 68.4826 25.8015 67.5763C25.9328 65.6317 24.7205 64.2327 22.4978 63.7311C21.8714 63.5992 15.9307 63.4672 15.7994 63.5904ZM21.932 65.6845C22.518 65.9221 22.8211 66.1861 22.9827 66.6084C23.2757 67.3739 22.9726 68.2538 22.2452 68.7642L21.8613 69.0369L20.1741 69.0633L18.4767 69.0985L18.4161 68.0954C18.3252 66.8108 18.3252 65.6053 18.4161 65.5349C18.4464 65.4997 19.1435 65.4733 19.9518 65.4733C21.2854 65.4733 21.4774 65.4909 21.932 65.6845Z" fill="#0A290E"/>
<path d="M28.2501 66.7255C28.2158 68.476 28.1901 71.1853 28.1901 72.751V75.5922H31.5733H34.9565V74.6774V73.7626L32.8152 73.7362C31.0252 73.7098 30.6569 73.6834 30.5883 73.5691C30.4941 73.4283 30.4684 70.7718 30.5541 70.5431C30.5969 70.42 30.8539 70.4024 32.524 70.4024H34.4426V69.4788V68.5552H32.5669C31.0765 68.5552 30.674 68.5288 30.5969 68.432C30.5284 68.3529 30.5027 67.8603 30.5198 66.8751L30.5455 65.4325L32.7382 65.4061L34.9308 65.3885L34.9736 64.9575C34.9993 64.72 34.9993 64.3066 34.9736 64.0339L34.9394 63.5413H31.6161H28.3015L28.2501 66.7255Z" fill="#0A290E"/>
<path d="M38.3944 69.5668V75.5922H41.7958H45.1972V74.6686V73.745L42.9558 73.7274L40.7056 73.701V72.0737V70.4464L42.6941 70.42L44.6739 70.4024V69.4788V68.5552L42.6941 68.5376L40.7056 68.5112L40.6794 67.1478C40.6707 66.4001 40.6794 65.6964 40.7056 65.582L40.7492 65.3885H42.9732H45.1972V64.4649V63.5413H41.7958H38.3944V69.5668Z" fill="#0A290E"/>
<path d="M47.465 69.5711V75.5922H48.7248C49.6648 75.5922 49.9846 75.5658 49.9846 75.4779C49.9652 72.6037 50.0233 67.4 50.0815 67.3737C50.1202 67.3561 51.506 69.1932 53.1825 71.461L56.2059 75.5922H57.5045H58.803V69.5711V63.5413L57.5238 63.5677L56.235 63.594L56.2059 67.6989C56.1962 69.9667 56.1478 71.8126 56.109 71.8126C56.0703 71.8126 55.6342 71.2412 55.14 70.5556C54.6457 69.87 53.2891 68.0153 52.1359 66.4332L50.033 63.5501H48.7539H47.465V69.5711Z" fill="#0A290E"/>
</svg>
