<svg xmlns="http://www.w3.org/2000/svg" xmlns:xlink="http://www.w3.org/1999/xlink" width="1080" zoomAndPan="magnify" viewBox="0 0 810 809.999993" height="1080" preserveAspectRatio="xMidYMid meet" version="1.0"><path fill="#0a290e" d="M 385.507812 260.972656 C 348.300781 268.058594 322.355469 300.460938 324.191406 337.605469 C 326.152344 377.347656 358.550781 408.164062 398.355469 408.164062 C 415 408.164062 429.679688 403.226562 443.09375 393.101562 C 463.28125 377.914062 474.734375 351.96875 472.078125 327.480469 C 468.660156 295.269531 447.335938 270.273438 416.453125 262.175781 C 408.859375 260.210938 392.976562 259.578125 385.507812 260.972656 Z M 409.304688 281.347656 C 424.933594 284.574219 438.917969 295.269531 446.070312 309.507812 C 450.625 318.683594 451.953125 324.253906 451.953125 334.125 C 451.953125 343.996094 450.625 349.566406 446.070312 358.742188 C 438.855469 373.105469 424.808594 383.738281 408.859375 386.964844 C 401.773438 388.421875 390.253906 387.976562 383.484375 386.015625 C 369.5625 382.027344 357.476562 372.21875 350.640625 359.375 C 333.808594 327.671875 351.90625 289.132812 387.28125 281.222656 C 392.34375 280.082031 403.542969 280.144531 409.304688 281.347656 Z M 409.304688 281.347656 " fill-opacity="1" fill-rule="nonzero"/><path fill="#0a290e" d="M 476.253906 408.796875 C 473.660156 409.621094 470.304688 413.101562 469.546875 415.757812 C 469.230469 416.960938 468.914062 421.136719 468.914062 425.058594 L 468.914062 432.085938 L 464.675781 433.476562 C 462.269531 434.300781 458.726562 435.753906 456.699219 436.832031 L 453.03125 438.730469 L 447.523438 433.351562 C 441.195312 427.085938 440.058594 426.390625 436.324219 426.390625 C 430.566406 426.390625 426.390625 430.566406 426.390625 436.324219 C 426.390625 440.058594 427.085938 441.195312 433.351562 447.523438 L 438.730469 453.03125 L 436.832031 456.699219 C 435.753906 458.726562 434.300781 462.269531 433.476562 464.609375 L 432.085938 468.914062 L 425.058594 468.914062 C 421.136719 468.914062 416.960938 469.230469 415.632812 469.546875 C 412.53125 470.433594 409.050781 474.355469 408.480469 477.710938 C 407.910156 481.0625 410.0625 485.683594 413.164062 487.707031 C 415.125 489.039062 416.074219 489.164062 423.730469 489.164062 L 432.148438 489.164062 L 433.160156 492.835938 C 433.730469 494.796875 435.25 498.53125 436.449219 501.0625 L 438.730469 505.679688 L 432.96875 511.503906 C 426.769531 517.765625 425.628906 520.109375 426.578125 524.539062 C 427.84375 530.613281 434.933594 533.96875 440.691406 531.246094 C 441.765625 530.738281 445.058594 527.890625 447.90625 525.042969 L 453.15625 519.792969 L 457.777344 522.132812 C 460.308594 523.398438 463.851562 524.792969 465.625 525.296875 L 468.914062 526.121094 L 468.914062 533.777344 C 468.914062 540.421875 469.105469 541.75 470.371094 544.21875 C 472.964844 549.472656 478.597656 551.371094 483.847656 548.902344 C 488.089844 546.875 488.785156 544.976562 489.164062 535.167969 L 489.480469 526.375 L 494.035156 524.917969 C 496.566406 524.160156 500.113281 522.640625 502.011719 521.5625 L 505.425781 519.664062 L 510.742188 525.042969 C 513.652344 528.019531 516.945312 530.804688 518.082031 531.308594 C 526.5 534.917969 534.917969 526.5 531.308594 518.082031 C 530.804688 516.945312 528.019531 513.652344 525.042969 510.742188 L 519.664062 505.425781 L 521.5625 502.011719 C 522.640625 500.113281 524.160156 496.566406 524.917969 494.035156 L 526.375 489.480469 L 535.167969 489.164062 C 544.976562 488.785156 546.875 488.089844 548.902344 483.847656 C 551.371094 478.597656 549.472656 472.964844 544.21875 470.304688 C 541.75 469.105469 540.421875 468.914062 533.777344 468.914062 L 526.121094 468.914062 L 525.296875 465.625 C 524.792969 463.851562 523.398438 460.308594 522.132812 457.777344 L 519.792969 453.15625 L 525.042969 447.90625 C 527.890625 445.058594 530.738281 441.765625 531.246094 440.691406 C 533.96875 434.933594 530.613281 427.84375 524.539062 426.578125 C 520.109375 425.628906 517.765625 426.769531 511.503906 432.96875 L 505.679688 438.730469 L 501.0625 436.449219 C 498.53125 435.25 494.796875 433.730469 492.835938 433.160156 L 489.164062 432.148438 L 489.164062 423.730469 C 489.164062 416.074219 489.039062 415.125 487.707031 413.164062 C 486.253906 410.886719 481.570312 408.101562 479.355469 408.226562 C 478.660156 408.226562 477.265625 408.542969 476.253906 408.796875 Z M 490.621094 453.851562 C 494.734375 455.816406 501.0625 461.511719 503.339844 465.371094 C 507.578125 472.648438 508.085938 482.960938 504.542969 490.621094 C 501.757812 496.503906 497.074219 501.3125 491.1875 504.160156 C 487.140625 506.1875 485.808594 506.503906 481 506.757812 C 471.699219 507.199219 465.625 504.792969 459.296875 498.148438 C 453.601562 492.203125 451.703125 487.265625 451.703125 478.914062 C 451.765625 467.269531 458.09375 458.09375 469.355469 453.347656 C 472.648438 451.953125 473.785156 451.828125 479.988281 451.953125 C 485.9375 452.144531 487.457031 452.398438 490.621094 453.851562 Z M 490.621094 453.851562 " fill-opacity="1" fill-rule="nonzero"/><path fill="#0a290e" d="M 379.6875 420.628906 C 364.816406 421.769531 347.476562 424.679688 333.808594 428.476562 C 292.675781 439.742188 265.65625 461.195312 260.71875 486.378906 C 260.277344 488.722656 260.085938 495.554688 260.210938 504.984375 C 260.402344 519.601562 260.402344 519.917969 262.109375 523.460938 C 264.261719 528.082031 268.628906 532.449219 273.25 534.601562 L 276.855469 536.308594 L 338.746094 536.5 C 395.066406 536.625 400.824219 536.5625 402.847656 535.613281 C 406.011719 534.09375 407.722656 531.308594 408.039062 527.195312 C 408.355469 522.765625 406.644531 519.917969 402.46875 517.765625 L 399.683594 516.375 L 340.769531 516.375 C 295.777344 516.375 281.664062 516.183594 281.09375 515.617188 C 280.527344 515.046875 280.335938 511.25 280.335938 502.453125 C 280.335938 491.757812 280.527344 489.480469 281.539062 486.441406 C 286.789062 471.191406 308.6875 456.449219 338.363281 448.09375 C 354.058594 443.664062 370.511719 441.261719 388.484375 440.628906 C 401.582031 440.183594 404.050781 439.488281 406.773438 435.375 C 408.671875 432.527344 408.542969 427.148438 406.390625 424.175781 C 403.988281 420.757812 401.773438 420.1875 391.585938 420.3125 C 386.648438 420.378906 381.269531 420.503906 379.6875 420.628906 Z M 379.6875 420.628906 " fill-opacity="1" fill-rule="nonzero"/></svg>