<svg xmlns="http://www.w3.org/2000/svg" xmlns:xlink="http://www.w3.org/1999/xlink" width="1080" zoomAndPan="magnify" viewBox="0 0 810 809.999993" height="1080" preserveAspectRatio="xMidYMid meet" version="1.0"><path fill="#0a290e" d="M 277.171875 312.101562 C 267.238281 317.101562 268.503906 333.683594 279.007812 336.65625 C 280.589844 337.164062 320.835938 337.289062 406.328125 337.164062 L 531.308594 336.972656 L 533.96875 335.199219 C 542.003906 329.949219 541.308594 316.40625 532.828125 312.101562 L 530.042969 310.710938 L 279.957031 310.710938 Z M 277.171875 312.101562 " fill-opacity="1" fill-rule="nonzero"/><path fill="#0a290e" d="M 277.171875 393.101562 C 267.238281 398.101562 268.503906 414.683594 279.007812 417.65625 C 280.589844 418.164062 320.835938 418.289062 406.328125 418.164062 L 531.308594 417.972656 L 533.96875 416.199219 C 542.003906 410.949219 541.308594 397.40625 532.828125 393.101562 L 530.042969 391.710938 L 279.957031 391.710938 Z M 277.171875 393.101562 " fill-opacity="1" fill-rule="nonzero"/><path fill="#0a290e" d="M 277.171875 474.101562 C 267.238281 479.101562 268.503906 495.683594 279.007812 498.65625 C 280.589844 499.164062 320.835938 499.289062 406.328125 499.164062 L 531.308594 498.972656 L 533.96875 497.199219 C 542.003906 491.949219 541.308594 478.40625 532.828125 474.101562 L 530.042969 472.710938 L 279.957031 472.710938 Z M 277.171875 474.101562 " fill-opacity="1" fill-rule="nonzero"/></svg>