<svg xmlns="http://www.w3.org/2000/svg" xmlns:xlink="http://www.w3.org/1999/xlink" width="1080" zoomAndPan="magnify" viewBox="0 0 810 809.999993" height="1080" preserveAspectRatio="xMidYMid meet" version="1.0"><path fill="#0a290e" d="M 390.445312 243.632812 C 359.183594 246.671875 330.328125 258.1875 305.015625 277.679688 C 292.675781 287.171875 276.664062 305.015625 267.425781 319.570312 C 263.441406 325.835938 255.65625 341.78125 252.871094 349.375 C 249.769531 357.855469 246.417969 370.890625 244.773438 380.953125 C 242.808594 393.292969 242.808594 416.707031 244.773438 429.046875 C 247.621094 446.511719 252.113281 460.5625 259.769531 476.191406 C 268.121094 493.214844 276.792969 505.300781 290.714844 519.285156 C 304.699219 533.207031 316.785156 541.878906 333.808594 550.230469 C 349.4375 557.886719 363.488281 562.378906 380.953125 565.226562 C 393.292969 567.191406 416.707031 567.191406 429.046875 565.226562 C 446.511719 562.378906 460.5625 557.886719 476.191406 550.230469 C 493.214844 541.878906 505.300781 533.207031 519.285156 519.285156 C 533.207031 505.300781 541.878906 493.214844 550.230469 476.191406 C 555.800781 464.863281 558.582031 457.460938 561.621094 446.070312 C 565.609375 430.882812 566.558594 422.59375 566.558594 405 C 566.558594 387.40625 565.609375 379.117188 561.621094 363.929688 C 558.582031 352.539062 555.800781 345.136719 550.230469 333.808594 C 541.878906 316.785156 533.207031 304.699219 519.285156 290.714844 C 505.300781 276.792969 493.214844 268.121094 476.191406 259.769531 C 460.625 252.113281 446.195312 247.554688 429.363281 244.898438 C 420.0625 243.441406 399.304688 242.746094 390.445312 243.632812 Z M 424.554688 267.363281 C 470.242188 274.070312 509.097656 302.292969 529.601562 343.679688 C 539.410156 363.359375 543.777344 382.535156 543.777344 405 C 543.710938 427.90625 539.21875 447.207031 529.410156 466.699219 C 519.664062 486 507.390625 501.1875 491.0625 514.097656 L 485.683594 518.273438 L 485.304688 492.203125 C 484.925781 464.992188 484.925781 465.179688 481.949219 456.890625 C 477.203125 443.917969 464.738281 431.769531 451.449219 427.085938 C 446.449219 425.375 439.234375 423.984375 434.867188 423.984375 L 431.261719 423.984375 L 433.476562 422.59375 C 445.183594 415.503906 452.144531 408.542969 457.964844 398.039062 C 466.382812 382.914062 467.332031 363.109375 460.5625 346.339844 C 454.929688 332.542969 441.894531 319.570312 427.90625 313.875 C 419.871094 310.648438 415 309.761719 405 309.761719 C 395 309.761719 390.128906 310.648438 382.09375 313.875 C 368.105469 319.570312 355.070312 332.542969 349.4375 346.339844 C 345.136719 356.90625 343.742188 370.132812 345.832031 380.320312 C 349.691406 399.179688 358.996094 412.023438 376.523438 422.59375 L 378.738281 423.984375 L 375.132812 423.984375 C 370.765625 423.984375 363.550781 425.375 358.550781 427.085938 C 345.261719 431.769531 332.796875 443.917969 328.050781 456.890625 C 325.074219 465.179688 325.074219 464.992188 324.695312 492.203125 L 324.316406 518.273438 L 318.9375 514.097656 C 290.902344 491.886719 272.933594 460.625 267.300781 424.300781 C 265.085938 409.683594 266.035156 388.800781 269.640625 373.359375 C 282.171875 319.886719 326.214844 277.929688 380.003906 268.3125 C 394.75 265.65625 410.378906 265.339844 424.554688 267.363281 Z M 412.910156 333.175781 C 426.832031 336.085938 438.476562 347.730469 441.386719 361.652344 C 444.042969 374.371094 440.375 386.710938 431.261719 395.824219 C 416.582031 410.503906 393.417969 410.503906 378.738281 395.824219 C 364.058594 381.144531 364.058594 357.980469 378.738281 343.300781 C 387.851562 334.1875 400.191406 330.519531 412.910156 333.175781 Z M 442.589844 448.285156 C 451.703125 451.765625 458.15625 458.21875 461.128906 466.890625 C 462.015625 469.421875 462.207031 474.292969 462.394531 500.746094 L 462.648438 531.5625 L 459.613281 532.890625 C 449.675781 537.132812 438.476562 540.296875 426.136719 542.382812 C 414.492188 544.34375 395.507812 544.34375 383.863281 542.382812 C 371.523438 540.296875 360.324219 537.132812 350.386719 532.890625 L 347.351562 531.5625 L 347.605469 500.746094 C 347.855469 467.269531 347.792969 467.394531 351.527344 461.128906 C 353.550781 457.648438 358.363281 452.839844 361.777344 450.941406 C 364.625 449.296875 369.4375 447.589844 372.410156 447.207031 C 373.484375 447.019531 388.988281 446.957031 406.898438 447.019531 C 436.957031 447.144531 439.742188 447.207031 442.589844 448.285156 Z M 442.589844 448.285156 " fill-opacity="1" fill-rule="nonzero"/></svg>