<svg xmlns="http://www.w3.org/2000/svg" xmlns:xlink="http://www.w3.org/1999/xlink" width="1080" zoomAndPan="magnify" viewBox="0 0 810 809.999993" height="1080" preserveAspectRatio="xMidYMid meet" version="1.0"><defs><clipPath id="709639c82f"><path d="M 259 243 L 454 243 L 454 567 L 259 567 Z M 259 243 " clip-rule="nonzero"/></clipPath></defs><g clip-path="url(#709639c82f)"><path fill="#0a290e" d="M 287.234375 244.519531 C 276.855469 248.1875 268.691406 255.214844 264.007812 264.515625 C 259.136719 274.199219 259.453125 264.199219 259.453125 404.367188 C 259.453125 544.472656 259.136719 534.535156 264.007812 544.21875 C 269.261719 554.722656 279.957031 563.011719 291.472656 565.417969 C 297.992188 566.808594 415.1875 566.808594 421.769531 565.417969 C 435.4375 562.570312 446.640625 552.445312 451.953125 538.082031 C 453.285156 534.664062 453.347656 533.019531 453.601562 513.085938 C 453.851562 489.480469 453.789062 489.101562 449.738281 486.632812 C 446.324219 484.542969 442.460938 485.242188 439.488281 488.53125 C 438.285156 489.859375 438.222656 491.0625 437.84375 510.300781 C 437.527344 529.472656 437.464844 530.804688 436.070312 534.285156 C 434.234375 538.902344 430.628906 543.460938 426.769531 546.054688 C 420.628906 550.105469 423.542969 549.976562 355.261719 549.789062 L 293.308594 549.597656 L 289.511719 547.761719 C 284.703125 545.359375 280.460938 541.117188 278.058594 536.308594 L 276.222656 532.511719 L 276.222656 276.222656 L 278.058594 272.425781 C 280.460938 267.617188 284.703125 263.375 289.511719 260.972656 L 293.308594 259.136719 L 355.261719 258.945312 C 423.542969 258.757812 420.628906 258.628906 426.769531 262.679688 C 430.628906 265.273438 434.234375 269.832031 436.070312 274.449219 C 437.464844 277.929688 437.527344 279.261719 437.84375 298.433594 C 438.222656 317.671875 438.285156 318.875 439.488281 320.203125 C 442.460938 323.492188 446.324219 324.191406 449.738281 322.101562 C 453.789062 319.632812 453.851562 319.253906 453.601562 295.648438 C 453.347656 272.046875 453.347656 272.234375 448.539062 263.058594 C 445.691406 257.617188 438.160156 250.214844 432.527344 247.304688 C 423.667969 242.746094 428.414062 243 356.335938 243 L 291.410156 243 Z M 287.234375 244.519531 " fill-opacity="1" fill-rule="nonzero"/></g><path fill="#0a290e" d="M 490.304688 349.058594 C 486.316406 351.210938 485.429688 357.03125 488.46875 361.082031 C 489.480469 362.410156 497.582031 370.828125 506.503906 379.6875 L 522.703125 395.824219 L 434.300781 396.140625 L 345.832031 396.457031 L 343.808594 397.914062 C 339.566406 400.949219 339.566406 407.785156 343.808594 410.820312 L 345.832031 412.277344 L 434.363281 412.46875 L 522.957031 412.59375 L 504.859375 430.820312 C 489.859375 445.878906 486.695312 449.359375 486.316406 451.195312 C 485.558594 455.246094 488.152344 459.421875 492.074219 460.6875 C 496.566406 462.207031 497.199219 461.636719 523.273438 435.753906 C 536.625 422.527344 548.332031 410.378906 549.34375 408.859375 C 551.433594 405.632812 551.621094 403.925781 550.167969 401.011719 C 549.027344 398.796875 503.65625 352.855469 499.667969 349.882812 C 496.882812 347.792969 493.152344 347.476562 490.304688 349.058594 Z M 490.304688 349.058594 " fill-opacity="1" fill-rule="nonzero"/></svg>