<svg xmlns="http://www.w3.org/2000/svg" xmlns:xlink="http://www.w3.org/1999/xlink" width="1080" zoomAndPan="magnify" viewBox="0 0 810 809.999993" height="1080" preserveAspectRatio="xMidYMid meet" version="1.0"><path fill="#0a290e" d="M 399.304688 250.972656 C 394.050781 252.871094 389.6875 256.730469 386.207031 262.617188 C 385.507812 263.820312 376.585938 281.792969 366.398438 302.484375 C 356.210938 323.175781 347.792969 340.199219 347.730469 340.328125 C 347.667969 340.390625 328.175781 343.300781 304.382812 346.78125 C 280.652344 350.199219 260.210938 353.363281 258.882812 353.804688 C 248.441406 357.160156 242.242188 365.324219 243.191406 374.433594 C 243.378906 376.332031 244.457031 379.75 245.53125 382.09375 C 247.304688 386.015625 249.203125 387.976562 268.503906 406.898438 C 280.082031 418.164062 294.574219 432.464844 300.839844 438.601562 L 312.167969 449.738281 L 304.699219 493.023438 C 296.28125 542.066406 296.28125 542.257812 299.953125 549.660156 C 304.128906 558.203125 312.863281 561.683594 323.050781 559.089844 C 325.457031 558.457031 340.960938 550.671875 365.957031 537.574219 L 405.0625 517.007812 L 444.109375 537.574219 C 469.105469 550.738281 484.480469 558.457031 486.949219 559.089844 C 497.136719 561.683594 505.871094 558.203125 510.046875 549.660156 C 513.71875 542.257812 513.71875 542.066406 505.300781 493.023438 L 497.832031 449.738281 L 508.84375 438.917969 C 514.917969 432.90625 529.472656 418.667969 541.179688 407.214844 C 560.796875 387.976562 562.695312 386.015625 564.46875 382.09375 C 567 376.714844 567.507812 372.21875 566.113281 367.539062 C 564.214844 360.828125 556.8125 354.882812 548.457031 353.171875 C 546.625 352.792969 526.5625 349.753906 503.78125 346.464844 C 481 343.109375 462.332031 340.390625 462.269531 340.261719 C 462.207031 340.199219 453.664062 322.925781 443.285156 301.851562 C 432.90625 280.84375 423.730469 262.492188 422.910156 261.097656 C 420.566406 257.492188 416.199219 253.503906 412.785156 251.859375 C 408.796875 249.960938 403.039062 249.644531 399.304688 250.972656 Z M 406.773438 271.285156 C 407.40625 272.300781 416.898438 291.15625 427.78125 313.242188 C 438.664062 335.328125 448.09375 354.183594 448.726562 355.132812 C 449.421875 356.019531 451.132812 357.222656 452.652344 357.792969 C 454.105469 358.296875 475.367188 361.652344 499.921875 365.132812 C 524.476562 368.675781 545.292969 371.902344 546.308594 372.285156 L 548.078125 373.042969 L 546.625 375.003906 C 545.800781 376.082031 530.804688 390.886719 513.210938 408.039062 C 495.617188 425.125 480.621094 439.996094 479.863281 441.132812 C 478.847656 442.527344 478.40625 444.042969 478.40625 446.007812 C 478.40625 447.589844 481.824219 468.722656 486 493.023438 C 490.175781 517.324219 493.59375 538.082031 493.59375 539.21875 C 493.59375 541.054688 493.46875 541.179688 491.886719 540.738281 C 490.9375 540.546875 473.46875 531.5625 453.09375 520.867188 C 405 495.554688 407.152344 496.566406 404.429688 496.882812 C 402.976562 497.011719 387.722656 504.667969 361.019531 518.714844 C 338.429688 530.613281 319.128906 540.546875 318.179688 540.738281 C 316.53125 541.179688 316.40625 541.054688 316.40625 539.21875 C 316.40625 538.082031 319.824219 517.324219 324 493.023438 C 328.175781 468.722656 331.59375 447.714844 331.59375 446.257812 C 331.59375 444.804688 331.277344 442.96875 330.898438 442.144531 C 330.519531 441.261719 315.773438 426.578125 298.117188 409.429688 C 280.527344 392.28125 265.148438 377.09375 264.007812 375.636719 L 261.859375 373.042969 L 263.691406 372.285156 C 264.707031 371.902344 267.617188 371.269531 270.210938 370.890625 C 275.714844 370.132812 336.148438 361.335938 348.425781 359.5 C 352.984375 358.867188 357.601562 357.855469 358.679688 357.285156 C 359.753906 356.714844 361.335938 355.070312 362.222656 353.550781 C 363.042969 352.097656 372.347656 333.367188 382.914062 311.976562 C 401.519531 274.070312 403.859375 269.578125 405 269.578125 C 405.316406 269.578125 406.074219 270.335938 406.773438 271.285156 Z M 406.773438 271.285156 " fill-opacity="1" fill-rule="nonzero"/></svg>