<?xml version="1.0" standalone="no"?>
<!DOCTYPE svg PUBLIC "-//W3C//DTD SVG 20010904//EN"
 "http://www.w3.org/TR/2001/REC-SVG-20010904/DTD/svg10.dtd">
<svg xmlns="http://www.w3.org/2000/svg" width="1080" height="1080" viewBox="0 0 810 810" preserveAspectRatio="xMidYMid meet" version="1.0">
  <path fill="#0a290e" d="M216.1 84.9l-42.5 84.5c-1.7 3.4-5 5.7-8.7 6.1l-95 13.8c-9.5 1.4-13.3 13.1-6.4 19.8l68.7 67c2.7 2.6 3.9 6.4 3.3 10.1l-16.2 94.5c-1.6 9.5 8.3 16.7 16.8 12.2l85-44.7c3.3-1.7 7.3-1.7 10.6 0l85 44.7c8.5 4.5 18.4-2.7 16.8-12.2l-16.2-94.5c-0.6-3.7 0.6-7.5 3.3-10.1l68.7-67c6.9-6.7 3.1-18.4-6.4-19.8l-95-13.8c-3.7-0.5-7-2.8-8.7-6.1l-42.5-84.5c-4.3-8.5-16.7-8.5-21 0z"/>
</svg>
