<svg xmlns="http://www.w3.org/2000/svg" xmlns:xlink="http://www.w3.org/1999/xlink" width="1080" zoomAndPan="magnify" viewBox="0 0 810 809.999993" height="1080" preserveAspectRatio="xMidYMid meet" version="1.0"><defs><clipPath id="f0fcb5a69d"><path d="M 243 243 L 567 243 L 567 567 L 243 567 Z M 243 243 " clip-rule="nonzero"/></clipPath></defs><g clip-path="url(#f0fcb5a69d)"><path fill="#0a290e" d="M 265.84375 243.695312 C 254.960938 245.847656 245.722656 255.214844 243.632812 266.351562 C 242.746094 271.035156 242.746094 538.964844 243.632812 543.648438 C 245.785156 555.039062 254.960938 564.214844 266.351562 566.367188 C 271.035156 567.253906 461.761719 567.253906 466.445312 566.367188 C 477.835938 564.214844 487.011719 555.039062 489.164062 543.648438 C 489.542969 541.5625 489.796875 523.84375 489.796875 497.136719 L 489.796875 454.105469 L 526.058594 417.65625 C 559.597656 383.992188 562.445312 380.953125 564.089844 377.28125 C 567.757812 368.867188 567.695312 360.894531 563.898438 352.730469 C 558.835938 341.972656 545.992188 335.136719 534.410156 337.097656 C 525.550781 338.617188 523.398438 340.199219 505.808594 357.730469 L 489.796875 373.613281 L 489.796875 334.949219 C 489.796875 311.785156 489.542969 294.953125 489.164062 292.929688 C 487.707031 285.019531 485.875 282.613281 468.027344 264.769531 C 450.183594 246.921875 447.777344 245.089844 439.867188 243.632812 C 435.628906 242.875 269.894531 242.875 265.84375 243.695312 Z M 413.859375 286.726562 C 413.859375 311.21875 413.859375 311.535156 415.25 314 C 418.035156 318.9375 418.097656 318.9375 446.132812 318.9375 L 470.8125 318.9375 L 470.8125 392.660156 L 427.78125 435.691406 L 420.503906 457.585938 C 416.515625 469.609375 413.226562 480.304688 413.226562 481.316406 C 413.289062 485.683594 418.035156 490.429688 422.402344 490.429688 C 425.441406 490.429688 467.585938 476.128906 469.355469 474.546875 L 470.8125 473.152344 L 470.8125 506.820312 C 470.8125 539.28125 470.75 540.546875 469.546875 542.953125 C 468.722656 544.597656 467.394531 545.925781 465.75 546.75 C 463.28125 548.015625 462.207031 548.015625 366.398438 548.015625 C 272.550781 548.015625 269.453125 547.953125 267.171875 546.8125 C 265.78125 546.117188 264.261719 544.597656 263.375 543.078125 L 261.984375 540.546875 L 261.984375 269.261719 L 263.503906 266.792969 C 266.605469 261.667969 260.277344 262.046875 341.59375 261.984375 L 413.859375 261.984375 Z M 437.714844 262.617188 C 440.058594 263.503906 468.789062 292.105469 469.925781 294.699219 C 470.433594 295.839844 470.8125 297.484375 470.8125 298.371094 L 470.8125 299.953125 L 432.84375 299.953125 L 432.84375 261.984375 L 434.363281 261.984375 C 435.25 261.984375 436.703125 262.300781 437.714844 262.617188 Z M 542.953125 356.90625 C 545.675781 358.296875 548.015625 361.96875 548.015625 364.878906 C 548.015625 367.917969 545.675781 371.652344 540.613281 376.648438 L 535.675781 381.585938 L 522.070312 367.980469 L 527.257812 362.792969 C 530.171875 359.945312 533.398438 357.160156 534.410156 356.652344 C 537.003906 355.261719 539.980469 355.386719 542.953125 356.90625 Z M 499.289062 417.972656 L 476.507812 440.753906 L 469.738281 433.917969 L 462.902344 427.148438 L 508.464844 381.585938 L 522.070312 395.191406 Z M 456.257812 447.714844 L 462.902344 454.359375 L 460.371094 456.828125 C 458.21875 458.914062 456.449219 459.738281 448.09375 462.523438 C 442.714844 464.292969 438.222656 465.625 438.097656 465.558594 C 438.03125 465.433594 439.363281 460.941406 441.132812 455.5625 C 443.792969 447.589844 444.804688 445.375 446.640625 443.410156 C 447.90625 442.144531 449.105469 441.070312 449.296875 441.070312 C 449.488281 441.070312 452.585938 444.042969 456.257812 447.714844 Z M 456.257812 447.714844 " fill-opacity="1" fill-rule="nonzero"/></g><path fill="#0a290e" d="M 286.09375 339.125 C 283.4375 340.515625 280.96875 344.503906 280.96875 347.351562 C 280.96875 350.386719 283.375 354.3125 286.15625 355.703125 C 288.4375 356.84375 291.03125 356.90625 356.90625 356.90625 C 424.175781 356.90625 425.3125 356.90625 427.78125 355.640625 C 430.628906 354.183594 432.84375 350.578125 432.84375 347.414062 C 432.84375 344.25 430.628906 340.644531 427.78125 339.1875 C 425.3125 337.921875 424.238281 337.921875 356.78125 337.921875 C 292.042969 337.984375 288.121094 338.046875 286.09375 339.125 Z M 286.09375 339.125 " fill-opacity="1" fill-rule="nonzero"/><path fill="#0a290e" d="M 286.09375 377.09375 C 283.4375 378.484375 280.96875 382.472656 280.96875 385.320312 C 280.96875 388.355469 283.375 392.28125 286.15625 393.671875 C 288.4375 394.8125 290.652344 394.875 337.921875 394.875 C 386.207031 394.875 387.40625 394.875 389.8125 393.609375 C 392.660156 392.152344 394.875 388.546875 394.875 385.382812 C 394.875 382.21875 392.660156 378.613281 389.8125 377.15625 C 387.40625 375.890625 386.207031 375.890625 337.796875 375.890625 C 291.285156 375.953125 288.121094 376.015625 286.09375 377.09375 Z M 286.09375 377.09375 " fill-opacity="1" fill-rule="nonzero"/><path fill="#0a290e" d="M 286.09375 415.0625 C 283.4375 416.453125 280.96875 420.441406 280.96875 423.289062 C 280.96875 426.324219 283.375 430.25 286.15625 431.640625 C 288.4375 432.78125 290.652344 432.84375 337.921875 432.84375 C 386.207031 432.84375 387.40625 432.84375 389.8125 431.578125 C 392.660156 430.121094 394.875 426.515625 394.875 423.351562 C 394.875 420.1875 392.660156 416.582031 389.8125 415.125 C 387.40625 413.859375 386.207031 413.859375 337.796875 413.859375 C 291.285156 413.921875 288.121094 413.984375 286.09375 415.0625 Z M 286.09375 415.0625 " fill-opacity="1" fill-rule="nonzero"/><path fill="#0a290e" d="M 286.09375 453.03125 C 283.4375 454.421875 280.96875 458.410156 280.96875 461.257812 C 280.96875 464.292969 283.375 468.21875 286.15625 469.609375 C 288.4375 470.75 290.652344 470.8125 337.921875 470.8125 C 386.207031 470.8125 387.40625 470.8125 389.8125 469.546875 C 392.660156 468.089844 394.875 464.484375 394.875 461.320312 C 394.875 458.15625 392.660156 454.550781 389.8125 453.09375 C 387.40625 451.828125 386.207031 451.828125 337.796875 451.828125 C 291.285156 451.890625 288.121094 451.953125 286.09375 453.03125 Z M 286.09375 453.03125 " fill-opacity="1" fill-rule="nonzero"/><path fill="#0a290e" d="M 362.03125 511.25 C 359.375 512.640625 356.90625 516.628906 356.90625 519.476562 C 356.90625 522.511719 359.3125 526.4375 362.09375 527.828125 C 364.308594 528.96875 366.273438 529.03125 394.875 529.03125 C 424.109375 529.03125 425.375 528.96875 427.78125 527.765625 C 430.628906 526.308594 432.84375 522.703125 432.84375 519.539062 C 432.84375 516.375 430.628906 512.769531 427.78125 511.3125 C 425.375 510.109375 424.175781 510.046875 394.75 510.046875 C 366.523438 510.109375 363.992188 510.171875 362.03125 511.25 Z M 362.03125 511.25 " fill-opacity="1" fill-rule="nonzero"/></svg>