<svg xmlns="http://www.w3.org/2000/svg" xmlns:xlink="http://www.w3.org/1999/xlink" width="1080" zoomAndPan="magnify" viewBox="0 0 810 809.999993" height="1080" preserveAspectRatio="xMidYMid meet" version="1.0"><path fill="#0a290e" d="M 561.074219 532.511719 L 498.363281 469.773438 C 545.285156 407.070312 532.492188 318.199219 469.789062 271.277344 C 407.082031 224.355469 318.214844 237.148438 271.289062 299.855469 C 224.367188 362.558594 237.164062 451.429688 299.867188 498.351562 C 350.238281 536.042969 419.417969 536.042969 469.789062 498.351562 L 532.523438 561.085938 C 540.40625 568.972656 553.191406 568.972656 561.074219 561.085938 C 568.957031 553.203125 568.957031 540.421875 561.074219 532.539062 Z M 385.351562 486.242188 C 329.621094 486.242188 284.445312 441.066406 284.445312 385.335938 C 284.445312 329.609375 329.621094 284.433594 385.351562 284.433594 C 441.078125 284.433594 486.253906 329.609375 486.253906 385.335938 C 486.195312 441.039062 441.054688 486.183594 385.351562 486.242188 Z M 385.351562 486.242188 " fill-opacity="1" fill-rule="nonzero"/></svg>