<svg xmlns="http://www.w3.org/2000/svg" xmlns:xlink="http://www.w3.org/1999/xlink" width="1080" zoomAndPan="magnify" viewBox="0 0 810 809.999993" height="1080" preserveAspectRatio="xMidYMid meet" version="1.0"><defs><clipPath id="99d655d938"><path d="M 243 243 L 567 243 L 567 567 L 243 567 Z M 243 243 " clip-rule="nonzero"/></clipPath></defs><g clip-path="url(#99d655d938)"><path fill="#0a290e" d="M 525.703125 351 C 518.96875 290.34375 467.4375 243 405 243 C 342.5625 243 291.03125 290.34375 284.296875 351 L 242.714844 351 L 268.609375 532.238281 C 271.445312 552.054688 288.671875 567 308.703125 567 L 501.296875 567 C 521.316406 567 538.554688 552.054688 541.390625 532.238281 L 567.285156 351 Z M 405 270 C 452.507812 270 491.832031 305.289062 498.421875 351 L 311.578125 351 C 318.167969 305.289062 357.492188 270 405 270 Z M 514.648438 528.417969 C 513.714844 535.019531 507.964844 540 501.296875 540 L 308.703125 540 C 302.035156 540 296.285156 535.019531 295.351562 528.417969 L 273.859375 378 L 536.140625 378 Z M 418.5 513 L 391.5 513 L 391.5 405 L 418.5 405 Z M 486 513 L 459 513 L 459 405 L 486 405 Z M 351 513 L 324 513 L 324 405 L 351 405 Z M 351 513 " fill-opacity="1" fill-rule="nonzero"/></g></svg>